<?xml version="1.0" encoding="utf-8"?>
<!-- Generator: Adobe Illustrator 27.8.1, SVG Export Plug-In . SVG Version: 6.00 Build 0)  -->
<svg version="1.1" xmlns="http://www.w3.org/2000/svg" xmlns:xlink="http://www.w3.org/1999/xlink" x="0px" y="0px"
	 viewBox="0 0 208.39 95.87" style="enable-background:new 0 0 208.39 95.87;" xml:space="preserve">
<style type="text/css">
	.st0{fill:#0067A2;}
	.st1{display:none;}
	.st2{display:inline;fill-rule:evenodd;clip-rule:evenodd;fill:none;stroke:#000000;stroke-width:0.216;stroke-miterlimit:22.9256;}
	.st3{display:inline;}
	.st4{fill:#DADADA;}
	.st5{fill:none;stroke:#C6C6C6;stroke-width:0.216;stroke-miterlimit:22.9256;}
	.st6{fill:none;stroke:#B2B2B2;stroke-width:0.216;stroke-miterlimit:22.9256;}
	.st7{fill:none;stroke:#009FE3;stroke-width:0.216;stroke-miterlimit:22.9256;}
	.st8{fill:none;stroke:#EF7D00;stroke-width:0.216;stroke-miterlimit:22.9256;}
	.st9{fill:none;stroke:#F59A00;stroke-width:0.216;stroke-miterlimit:22.9256;}
	.st10{fill:none;stroke:#E30613;stroke-width:0.216;stroke-miterlimit:22.9256;}
	.st11{fill:none;stroke:#009640;stroke-width:0.216;stroke-miterlimit:22.9256;}
	
		.st12{display:inline;fill-rule:evenodd;clip-rule:evenodd;fill:none;stroke:#F59A00;stroke-width:0.216;stroke-miterlimit:22.9256;}
	
		.st13{display:inline;fill-rule:evenodd;clip-rule:evenodd;fill:none;stroke:#C6C6C6;stroke-width:0.216;stroke-miterlimit:22.9256;}
	
		.st14{display:inline;fill-rule:evenodd;clip-rule:evenodd;fill:none;stroke:#B2B2B2;stroke-width:0.216;stroke-miterlimit:22.9256;}
	
		.st15{display:inline;fill-rule:evenodd;clip-rule:evenodd;fill:none;stroke:#E30613;stroke-width:0.216;stroke-miterlimit:22.9256;}
	.st16{display:inline;fill:#DADADA;}
	.st17{display:inline;fill-rule:evenodd;clip-rule:evenodd;fill:#009640;}
	.st18{display:inline;fill:none;stroke:#F59A00;stroke-width:0.216;stroke-miterlimit:22.9256;}
	.st19{display:inline;fill:none;stroke:#EF7D00;stroke-width:0.216;stroke-miterlimit:22.9256;}
	.st20{display:inline;fill:none;stroke:#E30613;stroke-width:0.216;stroke-miterlimit:22.9256;}
	
		.st21{display:inline;fill-rule:evenodd;clip-rule:evenodd;fill:none;stroke:#009FE3;stroke-width:0.216;stroke-miterlimit:22.9256;}
	.st22{display:inline;fill-rule:evenodd;clip-rule:evenodd;fill:#F59A00;}
	.st23{display:inline;fill:none;stroke:#009FE3;stroke-width:0.216;stroke-miterlimit:22.9256;}
	.st24{fill-rule:evenodd;clip-rule:evenodd;fill:none;stroke:#B2B2B2;stroke-width:0.216;stroke-miterlimit:22.9256;}
	.st25{fill-rule:evenodd;clip-rule:evenodd;fill:none;stroke:#009FE3;stroke-width:0.216;stroke-miterlimit:22.9256;}
	.st26{fill-rule:evenodd;clip-rule:evenodd;fill:#009640;}
	.st27{fill:#F59A00;}
	.st28{fill-rule:evenodd;clip-rule:evenodd;fill:#0067A2;}
	.st29{fill-rule:evenodd;clip-rule:evenodd;fill:#F59A00;}
	.st30{fill-rule:evenodd;clip-rule:evenodd;fill:#FFFFFF;}
	.st31{fill:#FFFFFF;}
</style>
<g id="Capa_3">
</g>
<g id="Capa_2" class="st1">
	<rect x="0.14" y="0.1" class="st2" width="280.53" height="121.38"/>
	<line class="st13" x1="16.82" y1="0.1" x2="16.82" y2="121.11"/>
	<line class="st14" x1="8.53" y1="0.1" x2="8.53" y2="120.72"/>
	<line class="st13" x1="54.58" y1="0.1" x2="54.58" y2="120.91"/>
	<line class="st15" x1="62.79" y1="0.1" x2="62.79" y2="121.49"/>
	<path class="st16" d="M54.58,27.87c0,1.06,0.27,1.88,0.81,2.47c0.54,0.58,1.35,0.88,2.44,0.88h4.76c0.09,0,0.16-0.03,0.21-0.08
		c0.05-0.05,0.08-0.12,0.08-0.2v-1.07c0-0.09-0.03-0.16-0.08-0.21c-0.05-0.05-0.12-0.08-0.21-0.08h-4.76
		c-0.62,0-1.08-0.15-1.39-0.44c-0.31-0.29-0.47-0.71-0.47-1.24c0-0.54,0.16-0.95,0.47-1.24c0.31-0.29,0.77-0.44,1.39-0.44h4.76
		c0.09,0,0.16-0.03,0.21-0.08c0.05-0.05,0.08-0.12,0.08-0.21v-1.07c0-0.09-0.03-0.15-0.08-0.2c-0.05-0.05-0.12-0.08-0.21-0.08h-4.76
		c-1.09,0-1.9,0.29-2.44,0.87C54.85,26,54.58,26.82,54.58,27.87z"/>
	<path class="st16" d="M42.93,8.41c-1.06,0-1.88-0.27-2.47-0.81c-0.58-0.54-0.88-1.35-0.88-2.44V0.4c0-0.09,0.03-0.16,0.08-0.21
		c0.05-0.05,0.12-0.08,0.2-0.08h1.07c0.09,0,0.16,0.03,0.21,0.08c0.05,0.05,0.08,0.12,0.08,0.21v4.75c0,0.62,0.15,1.08,0.44,1.39
		c0.29,0.31,0.71,0.47,1.24,0.47c0.54,0,0.95-0.16,1.24-0.47c0.29-0.31,0.44-0.78,0.44-1.39V0.4c0-0.09,0.03-0.16,0.08-0.21
		c0.05-0.05,0.12-0.08,0.21-0.08h1.07c0.09,0,0.15,0.03,0.2,0.08c0.05,0.05,0.08,0.12,0.08,0.21v4.75c0,1.09-0.29,1.9-0.87,2.44
		C44.8,8.14,43.98,8.41,42.93,8.41z"/>
	<path class="st16" d="M42.93,16.8c-1.06,0-1.88-0.27-2.47-0.81c-0.58-0.54-0.88-1.35-0.88-2.44V8.8c0-0.09,0.03-0.16,0.08-0.21
		c0.05-0.05,0.12-0.08,0.2-0.08h1.07c0.09,0,0.16,0.03,0.21,0.08c0.05,0.05,0.08,0.12,0.08,0.21v4.75c0,0.62,0.15,1.08,0.44,1.39
		c0.29,0.31,0.71,0.47,1.24,0.47c0.54,0,0.95-0.16,1.24-0.47c0.29-0.31,0.44-0.77,0.44-1.39V8.8c0-0.09,0.03-0.16,0.08-0.21
		c0.05-0.05,0.12-0.08,0.21-0.08h1.07c0.09,0,0.15,0.03,0.2,0.08c0.05,0.05,0.08,0.12,0.08,0.21v4.75c0,1.09-0.29,1.9-0.87,2.44
		C44.8,16.53,43.98,16.8,42.93,16.8z"/>
	<path class="st16" d="M0.14,36.03c0,1.06,0.27,1.88,0.81,2.47c0.54,0.58,1.35,0.88,2.44,0.88h4.75c0.09,0,0.16-0.03,0.21-0.08
		c0.05-0.05,0.08-0.12,0.08-0.2v-1.07c0-0.09-0.03-0.16-0.08-0.21c-0.05-0.05-0.12-0.08-0.21-0.08H3.38c-0.62,0-1.08-0.15-1.39-0.44
		c-0.31-0.29-0.47-0.71-0.47-1.24c0-0.54,0.16-0.95,0.47-1.24c0.31-0.29,0.78-0.44,1.39-0.44h4.75c0.09,0,0.16-0.03,0.21-0.08
		c0.05-0.05,0.08-0.12,0.08-0.21v-1.07c0-0.09-0.03-0.15-0.08-0.2c-0.05-0.05-0.12-0.08-0.21-0.08H3.38c-1.09,0-1.9,0.29-2.44,0.87
		C0.41,34.16,0.14,34.98,0.14,36.03z"/>
	<path class="st16" d="M0.14,36.03c0,1.06,0.27,1.88,0.81,2.47c0.54,0.58,1.35,0.88,2.44,0.88h4.75c0.09,0,0.16-0.03,0.21-0.08
		c0.05-0.05,0.08-0.12,0.08-0.2v-1.07c0-0.09-0.03-0.16-0.08-0.21c-0.05-0.05-0.12-0.08-0.21-0.08H3.38c-0.62,0-1.08-0.15-1.39-0.44
		c-0.31-0.29-0.47-0.71-0.47-1.24c0-0.54,0.16-0.95,0.47-1.24c0.31-0.29,0.78-0.44,1.39-0.44h4.75c0.09,0,0.16-0.03,0.21-0.08
		c0.05-0.05,0.08-0.12,0.08-0.21v-1.07c0-0.09-0.03-0.15-0.08-0.2c-0.05-0.05-0.12-0.08-0.21-0.08H3.38c-1.09,0-1.9,0.29-2.44,0.87
		C0.41,34.16,0.14,34.98,0.14,36.03z"/>
	<path class="st16" d="M8.53,36.03c0,1.06,0.27,1.88,0.81,2.47c0.54,0.58,1.35,0.88,2.44,0.88h4.75c0.09,0,0.16-0.03,0.21-0.08
		c0.05-0.05,0.08-0.12,0.08-0.2v-1.07c0-0.09-0.03-0.16-0.08-0.21c-0.05-0.05-0.12-0.08-0.21-0.08h-4.75
		c-0.62,0-1.08-0.15-1.39-0.44c-0.31-0.29-0.47-0.71-0.47-1.24c0-0.54,0.16-0.95,0.47-1.24c0.31-0.29,0.78-0.44,1.39-0.44h4.75
		c0.09,0,0.16-0.03,0.21-0.08c0.05-0.05,0.08-0.12,0.08-0.21v-1.07c0-0.09-0.03-0.15-0.08-0.2c-0.05-0.05-0.12-0.08-0.21-0.08h-4.75
		c-1.09,0-1.9,0.29-2.44,0.87C8.8,34.16,8.53,34.98,8.53,36.03z"/>
	<path class="st16" d="M8.53,36.03c0,1.06,0.27,1.88,0.81,2.47c0.54,0.58,1.35,0.88,2.44,0.88h4.75c0.09,0,0.16-0.03,0.21-0.08
		c0.05-0.05,0.08-0.12,0.08-0.2v-1.07c0-0.09-0.03-0.16-0.08-0.21c-0.05-0.05-0.12-0.08-0.21-0.08h-4.75
		c-0.62,0-1.08-0.15-1.39-0.44c-0.31-0.29-0.47-0.71-0.47-1.24c0-0.54,0.16-0.95,0.47-1.24c0.31-0.29,0.78-0.44,1.39-0.44h4.75
		c0.09,0,0.16-0.03,0.21-0.08c0.05-0.05,0.08-0.12,0.08-0.21v-1.07c0-0.09-0.03-0.15-0.08-0.2c-0.05-0.05-0.12-0.08-0.21-0.08h-4.75
		c-1.09,0-1.9,0.29-2.44,0.87C8.8,34.16,8.53,34.98,8.53,36.03z"/>
	<rect x="12.18" y="32.71" class="st17" width="3.42" height="1.65"/>
	<g class="st3">
		<path class="st4" d="M113.22,87.32c-1.06,0-1.88,0.27-2.47,0.81c-0.58,0.54-0.88,1.35-0.88,2.44v4.75c0,0.09,0.03,0.16,0.08,0.21
			c0.05,0.05,0.12,0.08,0.2,0.08h1.07c0.09,0,0.16-0.03,0.21-0.08c0.05-0.05,0.08-0.12,0.08-0.21v-4.75c0-0.62,0.15-1.08,0.44-1.39
			c0.29-0.31,0.71-0.47,1.24-0.47c0.54,0,0.95,0.16,1.24,0.47c0.29,0.31,0.44,0.78,0.44,1.39v4.75c0,0.09,0.03,0.16,0.08,0.21
			c0.05,0.05,0.12,0.08,0.21,0.08h1.07c0.09,0,0.15-0.03,0.2-0.08c0.05-0.05,0.08-0.12,0.08-0.21v-4.75c0-1.09-0.29-1.9-0.87-2.44
			C115.08,87.59,114.27,87.32,113.22,87.32z"/>
		<path class="st4" d="M113.22,78.93c-1.06,0-1.88,0.27-2.47,0.81c-0.58,0.54-0.88,1.35-0.88,2.44v4.75c0,0.09,0.03,0.16,0.08,0.21
			c0.05,0.05,0.12,0.08,0.2,0.08h1.07c0.09,0,0.16-0.03,0.21-0.08c0.05-0.05,0.08-0.12,0.08-0.21v-4.75c0-0.62,0.15-1.08,0.44-1.39
			c0.29-0.31,0.71-0.47,1.24-0.47c0.54,0,0.95,0.16,1.24,0.47c0.29,0.31,0.44,0.78,0.44,1.39v4.75c0,0.09,0.03,0.16,0.08,0.21
			c0.05,0.05,0.12,0.08,0.21,0.08h1.07c0.09,0,0.15-0.03,0.2-0.08c0.05-0.05,0.08-0.12,0.08-0.21v-4.75c0-1.09-0.29-1.9-0.87-2.44
			C115.08,79.2,114.27,78.93,113.22,78.93z"/>
	</g>
	<path class="st16" d="M0.14,59.09c0,1.06,0.27,1.88,0.81,2.47c0.54,0.58,1.35,0.88,2.44,0.88h4.75c0.09,0,0.16-0.03,0.21-0.08
		c0.05-0.05,0.08-0.12,0.08-0.2v-1.07c0-0.09-0.03-0.16-0.08-0.21c-0.05-0.05-0.12-0.08-0.21-0.08H3.38c-0.62,0-1.08-0.15-1.39-0.44
		c-0.31-0.29-0.47-0.71-0.47-1.24c0-0.54,0.16-0.95,0.47-1.24c0.31-0.29,0.78-0.44,1.39-0.44h4.75c0.09,0,0.16-0.03,0.21-0.08
		c0.05-0.05,0.08-0.12,0.08-0.21v-1.07c0-0.09-0.03-0.15-0.08-0.2c-0.05-0.05-0.12-0.08-0.21-0.08H3.38c-1.09,0-1.9,0.29-2.44,0.87
		C0.41,57.22,0.14,58.03,0.14,59.09z"/>
	<path class="st16" d="M0.14,59.09c0,1.06,0.27,1.88,0.81,2.47c0.54,0.58,1.35,0.88,2.44,0.88h4.75c0.09,0,0.16-0.03,0.21-0.08
		c0.05-0.05,0.08-0.12,0.08-0.2v-1.07c0-0.09-0.03-0.16-0.08-0.21c-0.05-0.05-0.12-0.08-0.21-0.08H3.38c-0.62,0-1.08-0.15-1.39-0.44
		c-0.31-0.29-0.47-0.71-0.47-1.24c0-0.54,0.16-0.95,0.47-1.24c0.31-0.29,0.78-0.44,1.39-0.44h4.75c0.09,0,0.16-0.03,0.21-0.08
		c0.05-0.05,0.08-0.12,0.08-0.21v-1.07c0-0.09-0.03-0.15-0.08-0.2c-0.05-0.05-0.12-0.08-0.21-0.08H3.38c-1.09,0-1.9,0.29-2.44,0.87
		C0.41,57.22,0.14,58.03,0.14,59.09z"/>
	<path class="st16" d="M8.53,59.09c0,1.06,0.27,1.88,0.81,2.47c0.54,0.58,1.35,0.88,2.44,0.88h4.75c0.09,0,0.16-0.03,0.21-0.08
		c0.05-0.05,0.08-0.12,0.08-0.2v-1.07c0-0.09-0.03-0.16-0.08-0.21c-0.05-0.05-0.12-0.08-0.21-0.08h-4.75
		c-0.62,0-1.08-0.15-1.39-0.44c-0.31-0.29-0.47-0.71-0.47-1.24c0-0.54,0.16-0.95,0.47-1.24c0.31-0.29,0.78-0.44,1.39-0.44h4.75
		c0.09,0,0.16-0.03,0.21-0.08c0.05-0.05,0.08-0.12,0.08-0.21v-1.07c0-0.09-0.03-0.15-0.08-0.2c-0.05-0.05-0.12-0.08-0.21-0.08h-4.75
		c-1.09,0-1.9,0.29-2.44,0.87C8.8,57.22,8.53,58.03,8.53,59.09z"/>
	<path class="st16" d="M8.53,59.09c0,1.06,0.27,1.88,0.81,2.47c0.54,0.58,1.35,0.88,2.44,0.88h4.75c0.09,0,0.16-0.03,0.21-0.08
		c0.05-0.05,0.08-0.12,0.08-0.2v-1.07c0-0.09-0.03-0.16-0.08-0.21c-0.05-0.05-0.12-0.08-0.21-0.08h-4.75
		c-0.62,0-1.08-0.15-1.39-0.44c-0.31-0.29-0.47-0.71-0.47-1.24c0-0.54,0.16-0.95,0.47-1.24c0.31-0.29,0.78-0.44,1.39-0.44h4.75
		c0.09,0,0.16-0.03,0.21-0.08c0.05-0.05,0.08-0.12,0.08-0.21v-1.07c0-0.09-0.03-0.15-0.08-0.2c-0.05-0.05-0.12-0.08-0.21-0.08h-4.75
		c-1.09,0-1.9,0.29-2.44,0.87C8.8,57.22,8.53,58.03,8.53,59.09z"/>
	<path class="st16" d="M0.14,70.54c0,1.06,0.27,1.88,0.81,2.47c0.54,0.58,1.35,0.88,2.44,0.88h4.75c0.09,0,0.16-0.03,0.21-0.08
		c0.05-0.05,0.08-0.12,0.08-0.2v-1.07c0-0.09-0.03-0.16-0.08-0.21c-0.05-0.05-0.12-0.08-0.21-0.08H3.38c-0.62,0-1.08-0.15-1.39-0.44
		c-0.31-0.29-0.47-0.71-0.47-1.24c0-0.54,0.16-0.95,0.47-1.24c0.31-0.29,0.78-0.44,1.39-0.44h4.75c0.09,0,0.16-0.03,0.21-0.08
		c0.05-0.05,0.08-0.12,0.08-0.21V67.5c0-0.09-0.03-0.15-0.08-0.2c-0.05-0.05-0.12-0.08-0.21-0.08H3.38c-1.09,0-1.9,0.29-2.44,0.87
		C0.41,68.67,0.14,69.48,0.14,70.54z"/>
	<path class="st16" d="M0.14,70.54c0,1.06,0.27,1.88,0.81,2.47c0.54,0.58,1.35,0.88,2.44,0.88h4.75c0.09,0,0.16-0.03,0.21-0.08
		c0.05-0.05,0.08-0.12,0.08-0.2v-1.07c0-0.09-0.03-0.16-0.08-0.21c-0.05-0.05-0.12-0.08-0.21-0.08H3.38c-0.62,0-1.08-0.15-1.39-0.44
		c-0.31-0.29-0.47-0.71-0.47-1.24c0-0.54,0.16-0.95,0.47-1.24c0.31-0.29,0.78-0.44,1.39-0.44h4.75c0.09,0,0.16-0.03,0.21-0.08
		c0.05-0.05,0.08-0.12,0.08-0.21V67.5c0-0.09-0.03-0.15-0.08-0.2c-0.05-0.05-0.12-0.08-0.21-0.08H3.38c-1.09,0-1.9,0.29-2.44,0.87
		C0.41,68.67,0.14,69.48,0.14,70.54z"/>
	<path class="st16" d="M8.53,70.54c0,1.06,0.27,1.88,0.81,2.47c0.54,0.58,1.35,0.88,2.44,0.88h4.75c0.09,0,0.16-0.03,0.21-0.08
		c0.05-0.05,0.08-0.12,0.08-0.2v-1.07c0-0.09-0.03-0.16-0.08-0.21c-0.05-0.05-0.12-0.08-0.21-0.08h-4.75
		c-0.62,0-1.08-0.15-1.39-0.44c-0.31-0.29-0.47-0.71-0.47-1.24c0-0.54,0.16-0.95,0.47-1.24c0.31-0.29,0.78-0.44,1.39-0.44h4.75
		c0.09,0,0.16-0.03,0.21-0.08c0.05-0.05,0.08-0.12,0.08-0.21V67.5c0-0.09-0.03-0.15-0.08-0.2c-0.05-0.05-0.12-0.08-0.21-0.08h-4.75
		c-1.09,0-1.9,0.29-2.44,0.87C8.8,68.67,8.53,69.48,8.53,70.54z"/>
	<path class="st16" d="M8.53,70.54c0,1.06,0.27,1.88,0.81,2.47c0.54,0.58,1.35,0.88,2.44,0.88h4.75c0.09,0,0.16-0.03,0.21-0.08
		c0.05-0.05,0.08-0.12,0.08-0.2v-1.07c0-0.09-0.03-0.16-0.08-0.21c-0.05-0.05-0.12-0.08-0.21-0.08h-4.75
		c-0.62,0-1.08-0.15-1.39-0.44c-0.31-0.29-0.47-0.71-0.47-1.24c0-0.54,0.16-0.95,0.47-1.24c0.31-0.29,0.78-0.44,1.39-0.44h4.75
		c0.09,0,0.16-0.03,0.21-0.08c0.05-0.05,0.08-0.12,0.08-0.21V67.5c0-0.09-0.03-0.15-0.08-0.2c-0.05-0.05-0.12-0.08-0.21-0.08h-4.75
		c-1.09,0-1.9,0.29-2.44,0.87C8.8,68.67,8.53,69.48,8.53,70.54z"/>
	<line class="st18" x1="0.14" y1="62.43" x2="280.67" y2="62.43"/>
	<line class="st18" x1="0.14" y1="59.1" x2="280.67" y2="59.1"/>
	<line class="st18" x1="0.14" y1="55.77" x2="280.67" y2="55.77"/>
	<line class="st18" x1="0.14" y1="73.88" x2="280.67" y2="73.88"/>
	<line class="st18" x1="0.14" y1="70.55" x2="280.67" y2="70.55"/>
	<line class="st18" x1="0.14" y1="67.22" x2="280.67" y2="67.22"/>
	<line class="st19" x1="0.14" y1="24.55" x2="280.67" y2="24.55"/>
	<line class="st19" x1="0.14" y1="16.8" x2="280.67" y2="16.8"/>
	<line class="st19" x1="0.14" y1="39.37" x2="280.67" y2="39.37"/>
	<line class="st19" x1="0.14" y1="36.04" x2="280.67" y2="36.04"/>
	<line class="st19" x1="0.14" y1="32.71" x2="280.67" y2="32.71"/>
	<line class="st19" x1="0.14" y1="47.73" x2="280.67" y2="47.73"/>
	<line class="st18" x1="0.2" y1="78.85" x2="280.73" y2="78.85"/>
	<g class="st3">
		<line class="st5" x1="191.72" y1="0.08" x2="191.72" y2="119.61"/>
		<g>
			<path class="st4" d="M191.72,59.06c0,1.06,0.27,1.88,0.81,2.47c0.54,0.58,1.35,0.88,2.44,0.88h4.75c0.09,0,0.16-0.03,0.21-0.08
				c0.05-0.05,0.08-0.12,0.08-0.2v-1.07c0-0.09-0.03-0.16-0.08-0.21c-0.05-0.05-0.12-0.08-0.21-0.08h-4.75
				c-0.62,0-1.08-0.15-1.39-0.44c-0.31-0.29-0.47-0.71-0.47-1.24c0-0.54,0.16-0.95,0.47-1.24c0.31-0.29,0.77-0.44,1.39-0.44h4.75
				c0.09,0,0.16-0.03,0.21-0.08c0.05-0.05,0.08-0.12,0.08-0.21v-1.07c0-0.09-0.03-0.15-0.08-0.2c-0.05-0.05-0.12-0.08-0.21-0.08
				h-4.75c-1.09,0-1.9,0.29-2.44,0.87C191.99,57.19,191.72,58.01,191.72,59.06z"/>
			<path class="st4" d="M200.01,59.06c0,1.06,0.27,1.88,0.81,2.47c0.54,0.58,1.35,0.88,2.44,0.88h4.75c0.09,0,0.16-0.03,0.21-0.08
				c0.05-0.05,0.08-0.12,0.08-0.2v-1.07c0-0.09-0.03-0.16-0.08-0.21c-0.05-0.05-0.12-0.08-0.21-0.08h-4.75
				c-0.62,0-1.08-0.15-1.39-0.44c-0.31-0.29-0.47-0.71-0.47-1.24c0-0.54,0.16-0.95,0.47-1.24c0.31-0.29,0.78-0.44,1.39-0.44h4.75
				c0.09,0,0.16-0.03,0.21-0.08c0.05-0.05,0.08-0.12,0.08-0.21v-1.07c0-0.09-0.03-0.15-0.08-0.2c-0.05-0.05-0.12-0.08-0.21-0.08
				h-4.75c-1.09,0-1.9,0.29-2.44,0.87C200.28,57.19,200.01,58.01,200.01,59.06z"/>
			<line class="st5" x1="200.01" y1="0.08" x2="200.01" y2="119.61"/>
		</g>
	</g>
</g>
<g id="Capa_1">
	<g>
		<path class="st0" d="M42.93,16.8c7.74,0,11.6,5.8,11.6,12.57c0.1,3.09,0,4.84,0,8.7c-1.15,0-2.9,0-2.9,0s-2.55,5.51,1.93,8.7
			c0,0.19-16.53,5.45-20.31-10.64c0,0.19,8.55,5.41,13.54,3.87c0,0,1.94-7.22,0.5-11.59c-1.87-5.65-10.13-4.07-14.03-1.8
			c-9.7,5.64-12.78,14.39-16.45,21.12C16.82,47.74,19.23,16.8,42.93,16.8z"/>
	</g>
	<g>
		<path class="st27" d="M66.32,32.83c-1.1,0-1.97-0.27-2.59-0.8c-0.63-0.54-0.94-1.34-0.94-2.41v-4.75c0-0.09,0.03-0.16,0.08-0.22
			c0.05-0.06,0.12-0.09,0.21-0.09h1.6c0.09,0,0.16,0.03,0.22,0.09c0.06,0.06,0.09,0.13,0.09,0.22v4.73c0,0.48,0.11,0.84,0.34,1.08
			c0.23,0.24,0.56,0.36,0.98,0.36c0.43,0,0.76-0.12,0.98-0.37c0.23-0.24,0.34-0.6,0.34-1.08v-4.73c0-0.09,0.03-0.16,0.09-0.22
			c0.06-0.06,0.13-0.09,0.22-0.09h1.58c0.09,0,0.16,0.03,0.22,0.09c0.06,0.06,0.09,0.13,0.09,0.22v4.75c0,1.07-0.31,1.88-0.93,2.41
			C68.28,32.56,67.42,32.83,66.32,32.83L66.32,32.83z"/>
	</g>
	<g>
		<path class="st27" d="M71.52,32.71c-0.08,0-0.15-0.03-0.2-0.09c-0.06-0.06-0.09-0.13-0.09-0.2v-7.58c0-0.09,0.03-0.16,0.09-0.21
			c0.06-0.05,0.13-0.08,0.2-0.08h1.63c0.09,0,0.16,0.03,0.21,0.08c0.05,0.05,0.08,0.12,0.08,0.21v6.04h3.5
			c0.09,0,0.16,0.03,0.22,0.09c0.06,0.06,0.09,0.13,0.09,0.22v1.24c0,0.09-0.03,0.16-0.09,0.21c-0.06,0.05-0.13,0.08-0.22,0.08
			H71.52L71.52,32.71z"/>
	</g>
	<g>
		<path class="st27" d="M84.06,25.24c-0.58-0.46-1.37-0.69-2.38-0.69h-3.3c-0.09,0-0.16,0.03-0.21,0.09
			c-0.05,0.06-0.08,0.13-0.08,0.22v7.56c0,0.08,0.03,0.15,0.09,0.2c0.06,0.06,0.13,0.09,0.2,0.09h1.68c0.09,0,0.16-0.03,0.21-0.09
			s0.08-0.13,0.08-0.2V29.9h1.33c1.01,0,1.8-0.22,2.38-0.66c0.57-0.44,0.86-1.1,0.86-1.99C84.92,26.37,84.64,25.7,84.06,25.24z
			 M82.38,27.98c-0.18,0.17-0.43,0.25-0.75,0.25h-1.31v-2h1.31c0.35,0,0.61,0.09,0.78,0.28c0.17,0.19,0.25,0.43,0.25,0.73
			C82.65,27.57,82.56,27.82,82.38,27.98z"/>
	</g>
	<g>
		<path class="st27" d="M89.3,32.83c-1.13,0-2.01-0.27-2.65-0.82c-0.64-0.55-0.98-1.33-1.01-2.35c-0.01-0.22-0.01-0.57-0.01-1.06
			c0-0.49,0-0.85,0.01-1.07c0.03-0.98,0.37-1.74,1.02-2.28c0.65-0.54,1.53-0.81,2.64-0.81c0.75,0,1.4,0.12,1.95,0.36
			c0.56,0.24,0.98,0.55,1.27,0.93c0.29,0.38,0.44,0.76,0.46,1.16c0,0.07-0.03,0.13-0.08,0.18c-0.05,0.05-0.11,0.08-0.18,0.08h-1.81
			c-0.08,0-0.14-0.01-0.18-0.04c-0.04-0.03-0.08-0.07-0.12-0.12c-0.09-0.22-0.24-0.4-0.45-0.56c-0.21-0.16-0.5-0.23-0.87-0.23
			c-0.9,0-1.37,0.47-1.4,1.4c-0.01,0.22-0.01,0.55-0.01,1c0,0.45,0,0.79,0.01,1.01c0.03,0.99,0.5,1.48,1.42,1.48
			c0.45,0,0.81-0.11,1.07-0.34c0.26-0.23,0.4-0.57,0.4-1.03V29.5h-1.04c-0.09,0-0.16-0.03-0.22-0.09c-0.06-0.06-0.09-0.13-0.09-0.22
			v-0.91c0-0.09,0.03-0.16,0.09-0.22c0.06-0.06,0.13-0.09,0.22-0.09h2.96c0.09,0,0.16,0.03,0.22,0.09c0.06,0.06,0.09,0.13,0.09,0.22
			v1.35c0,0.66-0.15,1.23-0.46,1.71c-0.31,0.48-0.74,0.84-1.3,1.1C90.7,32.7,90.04,32.83,89.3,32.83L89.3,32.83z"/>
	</g>
	<g>
		<path class="st27" d="M97.57,32.83c-1.11,0-1.98-0.27-2.62-0.8c-0.63-0.54-0.97-1.32-1.01-2.35c-0.01-0.21-0.01-0.55-0.01-1.03
			c0-0.48,0-0.83,0.01-1.05c0.04-1.01,0.38-1.79,1.02-2.34c0.64-0.55,1.51-0.82,2.6-0.82c0.69,0,1.31,0.11,1.86,0.34
			c0.55,0.23,0.98,0.55,1.3,0.98c0.32,0.43,0.49,0.93,0.5,1.52c0,0.07-0.03,0.13-0.08,0.17c-0.05,0.05-0.11,0.07-0.18,0.07h-1.65
			c-0.11,0-0.19-0.02-0.24-0.06c-0.05-0.04-0.1-0.12-0.13-0.24c-0.11-0.38-0.27-0.65-0.5-0.8s-0.51-0.23-0.88-0.23
			c-0.88,0-1.33,0.49-1.36,1.47c-0.01,0.21-0.01,0.53-0.01,0.97s0,0.77,0.01,0.99c0.03,0.98,0.49,1.47,1.36,1.47
			c0.36,0,0.65-0.08,0.88-0.23c0.23-0.16,0.39-0.42,0.5-0.79c0.03-0.12,0.07-0.2,0.13-0.24c0.05-0.04,0.14-0.06,0.24-0.06h1.65
			c0.07,0,0.13,0.02,0.18,0.07c0.05,0.05,0.08,0.1,0.08,0.17c-0.02,0.58-0.18,1.09-0.5,1.52c-0.32,0.43-0.75,0.75-1.3,0.98
			C98.88,32.71,98.26,32.83,97.57,32.83L97.57,32.83z"/>
	</g>
	<g>
		<rect x="62.79" y="39.4" class="st0" width="38.43" height="1.65"/>
	</g>
	<g>
		<path class="st0" d="M63.11,55.89c-0.08,0-0.14-0.03-0.2-0.08c-0.05-0.05-0.08-0.12-0.08-0.2v-7.55c0-0.09,0.03-0.16,0.08-0.21
			c0.05-0.05,0.12-0.08,0.2-0.08h2.83c0.78,0,1.42,0.12,1.93,0.36c0.51,0.24,0.89,0.6,1.15,1.07s0.39,1.05,0.4,1.73
			c0.02,0.34,0.02,0.64,0.02,0.91s-0.01,0.56-0.02,0.89c-0.02,0.72-0.15,1.31-0.39,1.78c-0.25,0.47-0.62,0.82-1.12,1.04
			c-0.5,0.23-1.13,0.34-1.91,0.34H63.11z M64.44,54.56h1.5c0.43,0,0.79-0.06,1.06-0.19c0.27-0.12,0.47-0.32,0.6-0.6
			c0.13-0.27,0.2-0.64,0.2-1.08c0.01-0.23,0.01-0.44,0.02-0.61s0-0.35,0-0.52c0-0.17-0.01-0.37-0.02-0.6
			c-0.02-0.63-0.17-1.1-0.48-1.4c-0.3-0.3-0.78-0.45-1.44-0.45h-1.44V54.56z"/>
		<path class="st0" d="M73.34,56.01c-0.86,0-1.54-0.25-2.04-0.74c-0.5-0.49-0.77-1.2-0.81-2.11c-0.01-0.08-0.01-0.18-0.01-0.3
			c0-0.12,0-0.21,0.01-0.28c0.03-0.59,0.16-1.09,0.4-1.51c0.24-0.42,0.56-0.75,0.98-0.97c0.42-0.23,0.91-0.34,1.47-0.34
			c0.63,0,1.15,0.13,1.58,0.39c0.43,0.26,0.75,0.62,0.96,1.08c0.22,0.46,0.33,0.99,0.33,1.6v0.24c0,0.08-0.03,0.14-0.08,0.2
			c-0.05,0.05-0.12,0.08-0.21,0.08h-3.85c0,0.05,0,0.08,0,0.09c0.01,0.27,0.06,0.52,0.16,0.75c0.1,0.23,0.24,0.41,0.43,0.55
			c0.19,0.14,0.42,0.21,0.68,0.21c0.22,0,0.4-0.03,0.54-0.1c0.15-0.07,0.27-0.14,0.36-0.23s0.16-0.15,0.2-0.21
			c0.07-0.09,0.13-0.15,0.17-0.17c0.04-0.02,0.11-0.03,0.19-0.03h1c0.08,0,0.14,0.02,0.19,0.07c0.05,0.05,0.07,0.1,0.06,0.17
			c-0.01,0.12-0.07,0.27-0.19,0.45c-0.12,0.18-0.29,0.35-0.52,0.52s-0.5,0.31-0.84,0.42C74.16,55.95,73.77,56.01,73.34,56.01z
			 M72.07,52.35h2.56v-0.03c0-0.3-0.05-0.57-0.15-0.79s-0.25-0.41-0.44-0.53c-0.19-0.13-0.42-0.19-0.7-0.19
			c-0.27,0-0.5,0.06-0.7,0.19c-0.19,0.13-0.34,0.31-0.44,0.53s-0.14,0.49-0.14,0.79V52.35z"/>
		<path class="st0" d="M77.62,58.09c-0.08,0-0.14-0.03-0.2-0.08c-0.05-0.05-0.08-0.12-0.08-0.2v-7.68c0-0.08,0.03-0.14,0.08-0.2
			c0.05-0.05,0.12-0.08,0.2-0.08h0.92c0.08,0,0.15,0.03,0.2,0.08c0.05,0.05,0.08,0.12,0.08,0.2v0.46c0.19-0.25,0.43-0.45,0.73-0.61
			c0.3-0.16,0.68-0.24,1.12-0.24c0.41,0,0.77,0.07,1.07,0.2c0.3,0.13,0.55,0.32,0.75,0.56c0.2,0.24,0.36,0.53,0.46,0.87
			c0.11,0.33,0.17,0.7,0.19,1.1c0.01,0.13,0.01,0.27,0.01,0.41s0,0.28-0.01,0.42c-0.01,0.39-0.07,0.74-0.17,1.07
			c-0.11,0.33-0.27,0.61-0.47,0.86c-0.21,0.24-0.46,0.43-0.76,0.57s-0.66,0.21-1.07,0.21c-0.42,0-0.77-0.08-1.07-0.23
			c-0.29-0.15-0.53-0.35-0.72-0.6v2.63c0,0.08-0.03,0.14-0.08,0.2c-0.05,0.05-0.12,0.08-0.2,0.08H77.62z M80.24,54.77
			c0.33,0,0.59-0.07,0.78-0.21c0.19-0.14,0.32-0.33,0.41-0.56c0.08-0.23,0.14-0.49,0.15-0.77c0.01-0.23,0.01-0.46,0-0.7
			c-0.02-0.28-0.07-0.53-0.15-0.77c-0.08-0.23-0.22-0.42-0.41-0.56c-0.19-0.14-0.45-0.21-0.78-0.21c-0.32,0-0.58,0.07-0.77,0.22
			c-0.2,0.15-0.34,0.33-0.43,0.56c-0.09,0.23-0.14,0.46-0.16,0.7c-0.01,0.14-0.01,0.29-0.01,0.44c0,0.15,0,0.31,0.01,0.45
			c0.01,0.23,0.06,0.45,0.16,0.67s0.25,0.39,0.44,0.53C79.68,54.7,79.93,54.77,80.24,54.77z"/>
		<path class="st0" d="M86.1,56.01c-0.4,0-0.77-0.08-1.09-0.24c-0.33-0.16-0.58-0.37-0.77-0.64c-0.19-0.27-0.29-0.57-0.29-0.9
			c0-0.54,0.22-0.97,0.66-1.29c0.44-0.32,1.02-0.54,1.73-0.64l1.59-0.23v-0.24c0-0.33-0.08-0.58-0.24-0.75s-0.44-0.27-0.83-0.27
			c-0.28,0-0.5,0.06-0.68,0.17c-0.17,0.11-0.3,0.26-0.39,0.45c-0.06,0.1-0.15,0.15-0.27,0.15H84.6c-0.08,0-0.15-0.02-0.19-0.07
			c-0.04-0.05-0.06-0.11-0.06-0.19c0.01-0.12,0.06-0.27,0.16-0.45s0.24-0.35,0.44-0.52c0.2-0.17,0.45-0.31,0.77-0.42
			c0.32-0.12,0.7-0.17,1.15-0.17c0.49,0,0.9,0.06,1.24,0.18c0.34,0.12,0.6,0.28,0.81,0.48c0.2,0.2,0.35,0.44,0.44,0.71
			c0.09,0.27,0.14,0.56,0.14,0.86v3.64c0,0.08-0.03,0.14-0.08,0.2c-0.05,0.05-0.12,0.08-0.2,0.08h-0.94c-0.08,0-0.15-0.03-0.2-0.08
			c-0.05-0.05-0.08-0.12-0.08-0.2v-0.45c-0.1,0.14-0.24,0.27-0.41,0.41c-0.17,0.13-0.38,0.24-0.62,0.32
			C86.72,55.97,86.43,56.01,86.1,56.01z M86.49,54.9c0.27,0,0.52-0.06,0.74-0.17c0.22-0.12,0.39-0.3,0.52-0.54
			c0.13-0.24,0.19-0.55,0.19-0.92v-0.24l-1.16,0.19c-0.46,0.07-0.8,0.18-1.02,0.34c-0.22,0.16-0.34,0.34-0.34,0.57
			c0,0.17,0.05,0.32,0.16,0.44s0.24,0.21,0.4,0.27C86.15,54.88,86.32,54.9,86.49,54.9z"/>
		<path class="st0" d="M91.15,55.89c-0.08,0-0.14-0.03-0.2-0.08c-0.05-0.05-0.08-0.12-0.08-0.2v-5.46c0-0.08,0.03-0.15,0.08-0.21
			c0.05-0.05,0.12-0.08,0.2-0.08h0.94c0.08,0,0.14,0.03,0.2,0.08c0.06,0.05,0.09,0.12,0.09,0.21v0.48c0.18-0.25,0.41-0.44,0.69-0.57
			s0.61-0.2,0.98-0.2h0.48c0.08,0,0.15,0.03,0.2,0.08c0.05,0.05,0.08,0.12,0.08,0.2v0.84c0,0.08-0.03,0.14-0.08,0.2
			c-0.05,0.05-0.12,0.08-0.2,0.08h-0.91c-0.37,0-0.66,0.1-0.86,0.31s-0.31,0.49-0.31,0.86v3.19c0,0.08-0.03,0.14-0.08,0.2
			s-0.12,0.08-0.21,0.08H91.15z"/>
		<path class="st0" d="M98.33,55.89c-0.46,0-0.86-0.08-1.17-0.24c-0.32-0.16-0.55-0.4-0.71-0.73s-0.23-0.72-0.23-1.2v-2.63H95.3
			c-0.08,0-0.14-0.03-0.2-0.08c-0.05-0.05-0.08-0.12-0.08-0.21v-0.66c0-0.08,0.03-0.14,0.08-0.2c0.05-0.05,0.12-0.08,0.2-0.08h0.92
			v-1.93c0-0.08,0.03-0.14,0.08-0.2c0.05-0.05,0.12-0.08,0.2-0.08h0.94c0.08,0,0.14,0.03,0.2,0.08c0.05,0.05,0.08,0.12,0.08,0.2
			v1.93h1.45c0.08,0,0.14,0.03,0.2,0.08c0.05,0.05,0.08,0.12,0.08,0.2v0.66c0,0.09-0.03,0.16-0.08,0.21
			c-0.05,0.05-0.12,0.08-0.2,0.08h-1.45v2.52c0,0.32,0.06,0.56,0.17,0.74s0.31,0.27,0.59,0.27h0.8c0.08,0,0.14,0.03,0.2,0.08
			c0.05,0.05,0.08,0.12,0.08,0.2v0.72c0,0.08-0.03,0.14-0.08,0.2c-0.05,0.05-0.12,0.08-0.2,0.08H98.33z"/>
		<path class="st0" d="M102.22,56.01c-0.4,0-0.77-0.08-1.09-0.24c-0.33-0.16-0.58-0.37-0.77-0.64s-0.28-0.57-0.28-0.9
			c0-0.54,0.22-0.97,0.66-1.29c0.44-0.32,1.02-0.54,1.73-0.64l1.59-0.23v-0.24c0-0.33-0.08-0.58-0.24-0.75
			c-0.16-0.18-0.44-0.27-0.83-0.27c-0.28,0-0.5,0.06-0.68,0.17s-0.3,0.26-0.39,0.45c-0.06,0.1-0.15,0.15-0.27,0.15h-0.92
			c-0.08,0-0.15-0.02-0.19-0.07c-0.04-0.05-0.06-0.11-0.06-0.19c0.01-0.12,0.06-0.27,0.16-0.45s0.24-0.35,0.44-0.52
			c0.2-0.17,0.46-0.31,0.77-0.42c0.32-0.12,0.7-0.17,1.15-0.17c0.49,0,0.9,0.06,1.24,0.18c0.34,0.12,0.61,0.28,0.81,0.48
			c0.2,0.2,0.35,0.44,0.44,0.71c0.09,0.27,0.14,0.56,0.14,0.86v3.64c0,0.08-0.03,0.14-0.08,0.2c-0.05,0.05-0.12,0.08-0.2,0.08h-0.94
			c-0.08,0-0.15-0.03-0.2-0.08c-0.05-0.05-0.08-0.12-0.08-0.2v-0.45c-0.1,0.14-0.24,0.27-0.41,0.41c-0.17,0.13-0.38,0.24-0.62,0.32
			C102.84,55.97,102.55,56.01,102.22,56.01z M102.62,54.9c0.27,0,0.52-0.06,0.74-0.17s0.39-0.3,0.52-0.54
			c0.13-0.24,0.19-0.55,0.19-0.92v-0.24l-1.16,0.19c-0.46,0.07-0.8,0.18-1.02,0.34c-0.22,0.16-0.34,0.34-0.34,0.57
			c0,0.17,0.05,0.32,0.16,0.44s0.24,0.21,0.4,0.27C102.27,54.88,102.44,54.9,102.62,54.9z"/>
		<path class="st0" d="M107.27,55.89c-0.08,0-0.14-0.03-0.2-0.08c-0.05-0.05-0.08-0.12-0.08-0.2v-5.48c0-0.08,0.03-0.14,0.08-0.2
			c0.05-0.05,0.12-0.08,0.2-0.08h0.9c0.08,0,0.14,0.03,0.2,0.08c0.05,0.05,0.08,0.12,0.08,0.2v0.39c0.16-0.22,0.38-0.4,0.66-0.55
			c0.27-0.15,0.6-0.23,0.98-0.24c0.88-0.02,1.5,0.33,1.84,1.03c0.18-0.31,0.43-0.56,0.77-0.75c0.34-0.19,0.71-0.28,1.12-0.28
			c0.4,0,0.77,0.09,1.1,0.28s0.59,0.47,0.78,0.84s0.28,0.85,0.28,1.42v3.33c0,0.08-0.03,0.14-0.08,0.2
			c-0.05,0.05-0.12,0.08-0.2,0.08h-0.95c-0.08,0-0.14-0.03-0.2-0.08c-0.05-0.05-0.08-0.12-0.08-0.2v-3.24
			c0-0.35-0.05-0.62-0.15-0.83s-0.24-0.35-0.41-0.44s-0.36-0.13-0.57-0.13c-0.17,0-0.34,0.04-0.51,0.13
			c-0.17,0.08-0.31,0.23-0.42,0.44s-0.16,0.48-0.16,0.83v3.24c0,0.08-0.03,0.14-0.08,0.2c-0.05,0.05-0.12,0.08-0.2,0.08h-0.95
			c-0.08,0-0.14-0.03-0.2-0.08s-0.08-0.12-0.08-0.2v-3.24c0-0.35-0.05-0.62-0.16-0.83c-0.11-0.21-0.25-0.35-0.42-0.44
			s-0.35-0.13-0.55-0.13c-0.18,0-0.35,0.04-0.52,0.13s-0.31,0.23-0.42,0.44s-0.16,0.48-0.16,0.82v3.24c0,0.08-0.03,0.14-0.08,0.2
			c-0.05,0.05-0.12,0.08-0.2,0.08H107.27z"/>
		<path class="st0" d="M119.95,56.01c-0.86,0-1.54-0.25-2.04-0.74c-0.5-0.49-0.77-1.2-0.81-2.11c-0.01-0.08-0.01-0.18-0.01-0.3
			c0-0.12,0-0.21,0.01-0.28c0.03-0.59,0.16-1.09,0.4-1.51c0.24-0.42,0.56-0.75,0.98-0.97c0.42-0.23,0.91-0.34,1.47-0.34
			c0.63,0,1.15,0.13,1.58,0.39c0.43,0.26,0.75,0.62,0.96,1.08s0.33,0.99,0.33,1.6v0.24c0,0.08-0.03,0.14-0.08,0.2
			c-0.05,0.05-0.12,0.08-0.21,0.08h-3.85c0,0.05,0,0.08,0,0.09c0.01,0.27,0.06,0.52,0.16,0.75c0.1,0.23,0.24,0.41,0.43,0.55
			s0.42,0.21,0.68,0.21c0.22,0,0.4-0.03,0.55-0.1c0.15-0.07,0.27-0.14,0.36-0.23s0.16-0.15,0.2-0.21c0.07-0.09,0.13-0.15,0.17-0.17
			c0.04-0.02,0.11-0.03,0.19-0.03h1c0.08,0,0.14,0.02,0.19,0.07c0.05,0.05,0.07,0.1,0.06,0.17c-0.01,0.12-0.07,0.27-0.19,0.45
			c-0.12,0.18-0.29,0.35-0.52,0.52c-0.22,0.17-0.5,0.31-0.84,0.42C120.76,55.95,120.38,56.01,119.95,56.01z M118.67,52.35h2.56
			v-0.03c0-0.3-0.05-0.57-0.15-0.79c-0.1-0.23-0.25-0.41-0.44-0.53c-0.19-0.13-0.43-0.19-0.7-0.19s-0.5,0.06-0.7,0.19
			c-0.19,0.13-0.34,0.31-0.43,0.53s-0.15,0.49-0.15,0.79V52.35z"/>
		<path class="st0" d="M124.21,55.89c-0.08,0-0.14-0.03-0.2-0.08c-0.05-0.05-0.08-0.12-0.08-0.2v-5.48c0-0.08,0.03-0.14,0.08-0.2
			c0.05-0.05,0.12-0.08,0.2-0.08h0.95c0.08,0,0.14,0.03,0.2,0.08c0.05,0.05,0.08,0.12,0.08,0.2v0.48c0.2-0.25,0.46-0.45,0.77-0.62
			c0.31-0.17,0.7-0.25,1.17-0.25c0.47,0,0.88,0.11,1.23,0.32c0.35,0.21,0.62,0.51,0.81,0.9s0.28,0.85,0.28,1.39v3.26
			c0,0.08-0.03,0.14-0.08,0.2c-0.05,0.05-0.12,0.08-0.2,0.08h-1.02c-0.08,0-0.14-0.03-0.2-0.08c-0.05-0.05-0.08-0.12-0.08-0.2v-3.19
			c0-0.45-0.11-0.8-0.33-1.06c-0.22-0.26-0.54-0.38-0.96-0.38c-0.4,0-0.72,0.13-0.96,0.38c-0.24,0.25-0.36,0.61-0.36,1.06v3.19
			c0,0.08-0.03,0.14-0.08,0.2c-0.05,0.05-0.12,0.08-0.2,0.08H124.21z"/>
		<path class="st0" d="M133.73,55.89c-0.46,0-0.86-0.08-1.17-0.24c-0.32-0.16-0.55-0.4-0.71-0.73c-0.16-0.32-0.23-0.72-0.23-1.2
			v-2.63h-0.92c-0.08,0-0.14-0.03-0.2-0.08c-0.05-0.05-0.08-0.12-0.08-0.21v-0.66c0-0.08,0.03-0.14,0.08-0.2
			c0.05-0.05,0.12-0.08,0.2-0.08h0.92v-1.93c0-0.08,0.03-0.14,0.08-0.2c0.05-0.05,0.12-0.08,0.2-0.08h0.94
			c0.08,0,0.14,0.03,0.2,0.08c0.05,0.05,0.08,0.12,0.08,0.2v1.93h1.45c0.08,0,0.14,0.03,0.2,0.08c0.05,0.05,0.08,0.12,0.08,0.2v0.66
			c0,0.09-0.03,0.16-0.08,0.21c-0.05,0.05-0.12,0.08-0.2,0.08h-1.45v2.52c0,0.32,0.06,0.56,0.17,0.74s0.31,0.27,0.59,0.27h0.8
			c0.08,0,0.14,0.03,0.2,0.08c0.05,0.05,0.08,0.12,0.08,0.2v0.72c0,0.08-0.03,0.14-0.08,0.2c-0.05,0.05-0.12,0.08-0.2,0.08H133.73z"
			/>
		<path class="st0" d="M138.54,56.01c-0.62,0-1.14-0.11-1.56-0.33s-0.74-0.52-0.96-0.92s-0.35-0.86-0.38-1.38
			c-0.01-0.14-0.01-0.31-0.01-0.51s0-0.37,0.01-0.51c0.03-0.53,0.16-1,0.39-1.39c0.23-0.39,0.55-0.69,0.97-0.91
			c0.42-0.22,0.93-0.33,1.54-0.33s1.12,0.11,1.54,0.33s0.75,0.52,0.97,0.91s0.36,0.85,0.39,1.39c0.01,0.14,0.01,0.31,0.01,0.51
			s0,0.37-0.01,0.51c-0.03,0.53-0.16,0.99-0.38,1.38s-0.54,0.7-0.96,0.92S139.16,56.01,138.54,56.01z M138.54,54.86
			c0.41,0,0.73-0.13,0.95-0.39c0.22-0.26,0.35-0.64,0.37-1.14c0.01-0.12,0.01-0.27,0.01-0.45s0-0.34-0.01-0.45
			c-0.02-0.5-0.15-0.88-0.37-1.14c-0.22-0.26-0.54-0.39-0.95-0.39s-0.73,0.13-0.95,0.39c-0.22,0.26-0.35,0.64-0.37,1.14
			c-0.01,0.12-0.01,0.27-0.01,0.45s0,0.34,0.01,0.45c0.02,0.5,0.15,0.88,0.37,1.14C137.81,54.73,138.13,54.86,138.54,54.86z"/>
		<path class="st0" d="M147.5,56.01c-0.4,0-0.76-0.07-1.06-0.2c-0.31-0.14-0.56-0.33-0.76-0.57c-0.2-0.25-0.36-0.54-0.46-0.88
			c-0.11-0.34-0.17-0.71-0.19-1.11c-0.01-0.14-0.01-0.26-0.01-0.38s0-0.24,0.01-0.38c0.01-0.39,0.08-0.75,0.18-1.08
			c0.1-0.33,0.26-0.62,0.46-0.88c0.21-0.25,0.46-0.45,0.77-0.59c0.31-0.14,0.66-0.21,1.06-0.21c0.42,0,0.77,0.07,1.06,0.21
			c0.29,0.14,0.53,0.33,0.73,0.55v-2.58c0-0.08,0.02-0.14,0.08-0.2c0.05-0.05,0.12-0.08,0.2-0.08h0.99c0.08,0,0.14,0.03,0.2,0.08
			c0.05,0.05,0.08,0.12,0.08,0.2v7.68c0,0.08-0.03,0.14-0.08,0.2c-0.05,0.05-0.12,0.08-0.2,0.08h-0.92c-0.08,0-0.15-0.03-0.2-0.08
			c-0.05-0.05-0.08-0.12-0.08-0.2v-0.43c-0.19,0.24-0.44,0.44-0.74,0.59C148.32,55.93,147.95,56.01,147.5,56.01z M147.93,54.77
			c0.32,0,0.58-0.07,0.78-0.22c0.19-0.15,0.34-0.33,0.43-0.56c0.09-0.23,0.14-0.46,0.15-0.7c0.01-0.14,0.01-0.29,0.01-0.45
			c0-0.16,0-0.31-0.01-0.45c-0.01-0.23-0.06-0.45-0.16-0.67c-0.1-0.21-0.25-0.39-0.44-0.53c-0.19-0.14-0.45-0.21-0.75-0.21
			c-0.33,0-0.58,0.07-0.77,0.21c-0.19,0.14-0.33,0.33-0.41,0.56c-0.08,0.23-0.14,0.49-0.15,0.77c-0.01,0.23-0.01,0.46,0,0.7
			c0.01,0.28,0.07,0.53,0.15,0.77c0.08,0.23,0.22,0.42,0.41,0.56C147.35,54.69,147.61,54.77,147.93,54.77z"/>
		<path class="st0" d="M154.87,56.01c-0.86,0-1.54-0.25-2.04-0.74c-0.5-0.49-0.77-1.2-0.81-2.11c-0.01-0.08-0.01-0.18-0.01-0.3
			c0-0.12,0-0.21,0.01-0.28c0.03-0.59,0.16-1.09,0.4-1.51c0.24-0.42,0.56-0.75,0.98-0.97c0.42-0.23,0.91-0.34,1.47-0.34
			c0.63,0,1.15,0.13,1.58,0.39c0.43,0.26,0.75,0.62,0.96,1.08s0.33,0.99,0.33,1.6v0.24c0,0.08-0.03,0.14-0.08,0.2
			c-0.05,0.05-0.12,0.08-0.21,0.08h-3.85c0,0.05,0,0.08,0,0.09c0.01,0.27,0.06,0.52,0.16,0.75c0.1,0.23,0.24,0.41,0.43,0.55
			c0.19,0.14,0.42,0.21,0.68,0.21c0.22,0,0.4-0.03,0.54-0.1c0.15-0.07,0.27-0.14,0.36-0.23s0.16-0.15,0.2-0.21
			c0.07-0.09,0.13-0.15,0.17-0.17c0.04-0.02,0.11-0.03,0.19-0.03h1c0.08,0,0.14,0.02,0.19,0.07c0.05,0.05,0.07,0.1,0.06,0.17
			c-0.01,0.12-0.07,0.27-0.19,0.45c-0.12,0.18-0.29,0.35-0.52,0.52s-0.5,0.31-0.84,0.42C155.69,55.95,155.3,56.01,154.87,56.01z
			 M153.59,52.35h2.56v-0.03c0-0.3-0.05-0.57-0.15-0.79s-0.25-0.41-0.44-0.53c-0.19-0.13-0.42-0.19-0.7-0.19
			c-0.27,0-0.5,0.06-0.7,0.19c-0.19,0.13-0.34,0.31-0.44,0.53s-0.14,0.49-0.14,0.79V52.35z"/>
	</g>
	<g>
		<path class="st0" d="M63.18,67.22c-0.08,0-0.15-0.03-0.2-0.09c-0.06-0.06-0.09-0.13-0.09-0.2v-7.54c0-0.09,0.03-0.16,0.09-0.21
			c0.06-0.05,0.12-0.08,0.2-0.08h1.25c0.13,0,0.23,0.03,0.29,0.1c0.06,0.07,0.1,0.12,0.12,0.16l2.04,3.65l2.04-3.65
			c0.02-0.04,0.06-0.09,0.12-0.16c0.06-0.07,0.15-0.1,0.28-0.1h1.24c0.08,0,0.16,0.03,0.21,0.08c0.06,0.05,0.09,0.12,0.09,0.21v7.54
			c0,0.08-0.03,0.14-0.09,0.2c-0.06,0.06-0.13,0.09-0.21,0.09h-1.38c-0.08,0-0.16-0.03-0.21-0.09c-0.06-0.06-0.09-0.13-0.09-0.2
			v-4.35L67.58,65c-0.04,0.07-0.09,0.13-0.15,0.19c-0.06,0.05-0.15,0.08-0.26,0.08h-0.6c-0.11,0-0.19-0.03-0.26-0.08
			c-0.06-0.05-0.11-0.12-0.15-0.19l-1.31-2.42v4.35c0,0.08-0.03,0.14-0.08,0.2c-0.05,0.06-0.12,0.09-0.21,0.09H63.18z"/>
		<path class="st0" d="M75.05,67.33c-0.91,0-1.64-0.25-2.18-0.74c-0.54-0.49-0.82-1.23-0.85-2.2c0-0.05,0-0.12,0-0.21
			c0-0.08,0-0.15,0-0.2c0.02-0.61,0.16-1.13,0.41-1.57c0.25-0.44,0.6-0.77,1.04-1c0.45-0.23,0.96-0.34,1.56-0.34
			c0.68,0,1.24,0.14,1.69,0.41c0.44,0.27,0.78,0.64,1,1.1c0.22,0.46,0.34,0.99,0.34,1.59v0.28c0,0.08-0.03,0.15-0.08,0.21
			c-0.05,0.05-0.12,0.08-0.21,0.08h-3.71c0,0.01,0,0.02,0,0.03s0,0.03,0,0.05c0.01,0.22,0.05,0.43,0.12,0.61s0.18,0.33,0.33,0.44
			c0.14,0.11,0.32,0.16,0.53,0.16c0.16,0,0.28-0.02,0.39-0.08c0.1-0.05,0.19-0.11,0.26-0.17c0.07-0.07,0.12-0.12,0.16-0.17
			c0.07-0.08,0.13-0.14,0.17-0.16c0.04-0.02,0.11-0.03,0.2-0.03h1.44c0.08,0,0.14,0.02,0.19,0.07c0.05,0.05,0.07,0.11,0.06,0.19
			c-0.01,0.13-0.07,0.29-0.2,0.48c-0.12,0.19-0.3,0.37-0.54,0.55c-0.24,0.18-0.53,0.33-0.89,0.45
			C75.94,67.28,75.52,67.33,75.05,67.33z M74.06,63.59h1.96v-0.02c0-0.26-0.04-0.47-0.11-0.66c-0.07-0.18-0.19-0.32-0.34-0.42
			c-0.15-0.1-0.33-0.15-0.54-0.15c-0.2,0-0.38,0.05-0.52,0.15c-0.15,0.1-0.26,0.24-0.34,0.42c-0.08,0.18-0.12,0.4-0.12,0.66V63.59z
			 M74.4,60.31c-0.12,0-0.19-0.06-0.19-0.19c0-0.06,0.02-0.11,0.06-0.15l1.02-1.24c0.08-0.09,0.14-0.15,0.2-0.18
			c0.05-0.03,0.13-0.04,0.23-0.04h1.53c0.15,0,0.22,0.08,0.22,0.23c0,0.05-0.02,0.1-0.06,0.14l-1.54,1.26
			c-0.06,0.05-0.12,0.09-0.19,0.12c-0.06,0.03-0.15,0.04-0.26,0.04H74.4z"/>
		<path class="st0" d="M82.13,67.22c-0.5,0-0.92-0.08-1.28-0.24c-0.36-0.16-0.64-0.41-0.83-0.74c-0.19-0.34-0.29-0.77-0.29-1.3V62.7
			h-0.91c-0.08,0-0.16-0.03-0.21-0.08c-0.06-0.05-0.09-0.12-0.09-0.21v-0.94c0-0.08,0.03-0.15,0.09-0.21
			c0.06-0.05,0.13-0.08,0.21-0.08h0.91v-1.91c0-0.08,0.03-0.16,0.09-0.21c0.06-0.05,0.12-0.08,0.2-0.08h1.35
			c0.08,0,0.15,0.03,0.21,0.08c0.05,0.05,0.08,0.12,0.08,0.21v1.91h1.45c0.08,0,0.16,0.03,0.21,0.08c0.06,0.05,0.09,0.12,0.09,0.21
			v0.94c0,0.09-0.03,0.16-0.09,0.21c-0.06,0.05-0.13,0.08-0.21,0.08h-1.45v2.07c0,0.26,0.05,0.47,0.15,0.63
			c0.1,0.15,0.27,0.23,0.51,0.23h0.89c0.08,0,0.15,0.03,0.21,0.08c0.05,0.05,0.08,0.12,0.08,0.21v1.01c0,0.08-0.03,0.14-0.08,0.2
			c-0.05,0.06-0.12,0.09-0.21,0.09H82.13z"/>
		<path class="st0" d="M87.22,67.33c-0.65,0-1.2-0.1-1.64-0.31c-0.44-0.21-0.79-0.51-1.02-0.9c-0.24-0.39-0.37-0.86-0.4-1.4
			c-0.01-0.16-0.01-0.33-0.01-0.53s0-0.37,0.01-0.52c0.03-0.55,0.17-1.02,0.42-1.4c0.25-0.39,0.59-0.68,1.04-0.89
			c0.44-0.21,0.98-0.31,1.61-0.31c0.63,0,1.17,0.1,1.62,0.31c0.44,0.21,0.79,0.51,1.04,0.89s0.39,0.85,0.42,1.4
			c0.01,0.15,0.01,0.32,0.01,0.52s0,0.37-0.01,0.53c-0.03,0.54-0.17,1.01-0.4,1.4c-0.24,0.39-0.58,0.69-1.02,0.9
			C88.43,67.23,87.88,67.33,87.22,67.33z M87.22,65.92c0.35,0,0.6-0.1,0.76-0.31c0.16-0.21,0.25-0.52,0.27-0.94
			c0.01-0.12,0.01-0.27,0.01-0.46s0-0.35-0.01-0.46c-0.02-0.41-0.11-0.72-0.27-0.93c-0.16-0.21-0.41-0.32-0.76-0.32
			c-0.33,0-0.58,0.11-0.75,0.32c-0.17,0.21-0.26,0.52-0.27,0.93c-0.01,0.12-0.01,0.27-0.01,0.46s0,0.35,0.01,0.46
			c0.02,0.42,0.11,0.73,0.27,0.94C86.64,65.81,86.89,65.92,87.22,65.92z"/>
		<path class="st0" d="M93.61,67.33c-0.37,0-0.71-0.06-1-0.18c-0.3-0.12-0.55-0.3-0.77-0.53c-0.21-0.24-0.38-0.52-0.49-0.86
			c-0.12-0.34-0.18-0.72-0.2-1.15c-0.01-0.15-0.01-0.29-0.01-0.41s0-0.26,0.01-0.41c0.01-0.41,0.08-0.78,0.2-1.12
			c0.12-0.34,0.28-0.62,0.49-0.86c0.21-0.24,0.46-0.42,0.77-0.55c0.3-0.13,0.64-0.19,1.01-0.19c0.39,0,0.72,0.06,1,0.19
			c0.28,0.13,0.51,0.29,0.71,0.49v-2.48c0-0.08,0.03-0.16,0.08-0.21c0.05-0.05,0.12-0.08,0.21-0.08h1.42c0.08,0,0.15,0.03,0.2,0.08
			c0.06,0.05,0.09,0.12,0.09,0.21v7.66c0,0.08-0.03,0.14-0.09,0.2c-0.06,0.06-0.13,0.09-0.2,0.09h-1.31c-0.08,0-0.16-0.03-0.21-0.09
			c-0.05-0.06-0.08-0.13-0.08-0.2v-0.37c-0.19,0.22-0.43,0.41-0.72,0.56S94.04,67.33,93.61,67.33z M94.25,65.78
			c0.25,0,0.46-0.06,0.61-0.17c0.15-0.11,0.26-0.26,0.34-0.44s0.11-0.37,0.12-0.58c0.01-0.15,0.01-0.3,0.01-0.44
			c0-0.14,0-0.28-0.01-0.43c-0.01-0.19-0.05-0.37-0.13-0.54c-0.08-0.17-0.19-0.3-0.35-0.41c-0.16-0.1-0.35-0.16-0.59-0.16
			c-0.26,0-0.46,0.05-0.61,0.16c-0.15,0.11-0.26,0.25-0.33,0.44c-0.07,0.19-0.11,0.39-0.12,0.62c-0.02,0.24-0.02,0.48,0,0.72
			c0.01,0.22,0.06,0.43,0.12,0.62c0.07,0.19,0.17,0.33,0.33,0.44C93.79,65.72,93.99,65.78,94.25,65.78z"/>
		<path class="st0" d="M101.43,67.33c-0.65,0-1.2-0.1-1.64-0.31c-0.44-0.21-0.79-0.51-1.02-0.9c-0.24-0.39-0.37-0.86-0.4-1.4
			c-0.01-0.16-0.01-0.33-0.01-0.53s0-0.37,0.01-0.52c0.03-0.55,0.17-1.02,0.42-1.4c0.25-0.39,0.59-0.68,1.04-0.89
			s0.98-0.31,1.61-0.31c0.63,0,1.17,0.1,1.62,0.31c0.44,0.21,0.79,0.51,1.04,0.89c0.25,0.39,0.39,0.85,0.42,1.4
			c0.01,0.15,0.01,0.32,0.01,0.52s0,0.37-0.01,0.53c-0.03,0.54-0.16,1.01-0.4,1.4s-0.58,0.69-1.02,0.9
			C102.64,67.23,102.09,67.33,101.43,67.33z M101.43,65.92c0.35,0,0.6-0.1,0.76-0.31c0.16-0.21,0.25-0.52,0.27-0.94
			c0.01-0.12,0.01-0.27,0.01-0.46s0-0.35-0.01-0.46c-0.02-0.41-0.11-0.72-0.27-0.93c-0.16-0.21-0.41-0.32-0.76-0.32
			c-0.33,0-0.58,0.11-0.75,0.32c-0.17,0.21-0.26,0.52-0.27,0.93c-0.01,0.12-0.01,0.27-0.01,0.46s0,0.35,0.01,0.46
			c0.02,0.42,0.11,0.73,0.27,0.94C100.85,65.81,101.1,65.92,101.43,65.92z"/>
		<path class="st0" d="M108.05,67.33c-0.5,0-0.93-0.06-1.28-0.17c-0.35-0.11-0.64-0.25-0.86-0.41c-0.22-0.16-0.38-0.33-0.49-0.5
			s-0.17-0.33-0.17-0.46c-0.01-0.08,0.02-0.16,0.08-0.21c0.06-0.05,0.13-0.08,0.2-0.08h1.32c0.02,0,0.04,0,0.06,0.01
			s0.04,0.02,0.06,0.05c0.1,0.05,0.2,0.12,0.3,0.2s0.22,0.15,0.35,0.21c0.13,0.06,0.29,0.09,0.48,0.09c0.22,0,0.4-0.04,0.54-0.13
			s0.22-0.21,0.22-0.38c0-0.12-0.04-0.23-0.1-0.31s-0.21-0.16-0.42-0.24s-0.53-0.16-0.96-0.23c-0.4-0.09-0.75-0.21-1.06-0.37
			c-0.3-0.15-0.53-0.35-0.7-0.59c-0.16-0.24-0.24-0.54-0.24-0.89c0-0.31,0.1-0.61,0.3-0.89c0.2-0.29,0.49-0.52,0.88-0.7
			c0.39-0.18,0.87-0.27,1.44-0.27c0.44,0,0.83,0.05,1.16,0.16c0.33,0.1,0.61,0.24,0.83,0.4c0.22,0.16,0.39,0.33,0.51,0.5
			c0.12,0.17,0.18,0.33,0.19,0.46c0.01,0.08-0.02,0.14-0.07,0.2c-0.05,0.06-0.12,0.09-0.19,0.09h-1.21c-0.03,0-0.06-0.01-0.09-0.02
			s-0.06-0.03-0.08-0.04c-0.09-0.05-0.19-0.11-0.28-0.19s-0.2-0.15-0.33-0.21c-0.12-0.06-0.28-0.09-0.46-0.09
			c-0.21,0-0.37,0.05-0.49,0.14s-0.17,0.21-0.17,0.36c0,0.1,0.03,0.19,0.1,0.28c0.07,0.08,0.2,0.16,0.41,0.23s0.52,0.15,0.96,0.23
			c0.53,0.09,0.96,0.22,1.28,0.41c0.32,0.19,0.54,0.41,0.68,0.66c0.14,0.25,0.2,0.52,0.2,0.79c0,0.37-0.11,0.7-0.34,0.99
			c-0.22,0.29-0.55,0.51-0.98,0.67C109.21,67.25,108.68,67.33,108.05,67.33z"/>
		<path class="st0" d="M117.79,67.33c-0.73,0-1.35-0.12-1.88-0.36c-0.53-0.24-0.93-0.59-1.22-1.06c-0.29-0.46-0.45-1.04-0.48-1.73
			c-0.01-0.32-0.01-0.66-0.01-1.02c0-0.36,0-0.71,0.01-1.04c0.03-0.67,0.19-1.25,0.49-1.72s0.7-0.83,1.23-1.07
			c0.53-0.24,1.15-0.36,1.87-0.36c0.51,0,0.98,0.06,1.42,0.19c0.43,0.13,0.81,0.31,1.14,0.56c0.33,0.24,0.58,0.54,0.76,0.88
			s0.28,0.73,0.28,1.17c0.01,0.07-0.01,0.13-0.06,0.17c-0.05,0.05-0.11,0.07-0.18,0.07h-1.57c-0.1,0-0.18-0.02-0.23-0.06
			c-0.05-0.04-0.1-0.12-0.14-0.24c-0.11-0.41-0.29-0.69-0.53-0.84c-0.24-0.15-0.54-0.23-0.9-0.23c-0.42,0-0.76,0.12-1.01,0.35
			c-0.25,0.24-0.38,0.63-0.41,1.18c-0.02,0.63-0.02,1.28,0,1.95c0.02,0.55,0.16,0.94,0.41,1.18c0.25,0.24,0.58,0.35,1.01,0.35
			c0.36,0,0.66-0.08,0.91-0.23c0.25-0.15,0.42-0.43,0.52-0.83c0.03-0.12,0.08-0.2,0.13-0.24c0.06-0.04,0.14-0.06,0.24-0.06h1.57
			c0.07,0,0.13,0.02,0.18,0.07c0.05,0.05,0.07,0.1,0.06,0.17c-0.01,0.43-0.1,0.82-0.28,1.17c-0.18,0.34-0.43,0.64-0.76,0.88
			c-0.33,0.24-0.7,0.43-1.14,0.56C118.77,67.27,118.3,67.33,117.79,67.33z"/>
		<path class="st0" d="M124.59,67.33c-0.44,0-0.83-0.1-1.18-0.3c-0.34-0.2-0.61-0.5-0.81-0.89s-0.29-0.87-0.29-1.43v-3.24
			c0-0.08,0.03-0.15,0.08-0.21c0.05-0.05,0.12-0.08,0.21-0.08h1.45c0.08,0,0.16,0.03,0.21,0.08c0.06,0.05,0.09,0.12,0.09,0.21v3.17
			c0,0.76,0.34,1.14,1.01,1.14c0.32,0,0.57-0.1,0.76-0.3s0.28-0.48,0.28-0.84v-3.17c0-0.08,0.03-0.15,0.08-0.21
			c0.05-0.05,0.12-0.08,0.21-0.08h1.45c0.08,0,0.16,0.03,0.21,0.08c0.05,0.05,0.08,0.12,0.08,0.21v5.45c0,0.08-0.03,0.14-0.08,0.2
			c-0.05,0.06-0.12,0.09-0.21,0.09h-1.35c-0.08,0-0.14-0.03-0.2-0.09c-0.06-0.06-0.09-0.13-0.09-0.2v-0.44
			c-0.2,0.28-0.46,0.49-0.78,0.63S125.03,67.33,124.59,67.33z"/>
		<path class="st0" d="M131.53,67.33c-0.42,0-0.79-0.08-1.12-0.24c-0.33-0.16-0.59-0.37-0.78-0.64s-0.29-0.58-0.29-0.92
			c0-0.55,0.22-0.98,0.67-1.3c0.45-0.32,1.04-0.54,1.79-0.66l1.45-0.22v-0.16c0-0.28-0.06-0.49-0.17-0.64
			c-0.12-0.15-0.33-0.22-0.64-0.22c-0.22,0-0.39,0.04-0.53,0.13c-0.13,0.08-0.24,0.2-0.32,0.35c-0.07,0.1-0.17,0.15-0.29,0.15h-1.3
			c-0.08,0-0.15-0.03-0.2-0.08c-0.05-0.05-0.07-0.11-0.06-0.18c0-0.14,0.05-0.3,0.16-0.48c0.1-0.18,0.26-0.36,0.48-0.54
			s0.5-0.33,0.83-0.44c0.34-0.12,0.75-0.17,1.24-0.17c0.49,0,0.92,0.06,1.28,0.17c0.36,0.12,0.65,0.28,0.87,0.49
			c0.22,0.21,0.39,0.46,0.49,0.74c0.1,0.28,0.16,0.59,0.16,0.93v3.53c0,0.08-0.03,0.14-0.09,0.2c-0.06,0.06-0.13,0.09-0.2,0.09
			h-1.35c-0.09,0-0.16-0.03-0.21-0.09c-0.05-0.06-0.08-0.13-0.08-0.2v-0.41c-0.1,0.15-0.24,0.28-0.41,0.41s-0.37,0.22-0.6,0.3
			S131.83,67.33,131.53,67.33z M132.07,66.01c0.22,0,0.43-0.05,0.61-0.14s0.33-0.25,0.43-0.45s0.16-0.46,0.16-0.77v-0.16l-0.99,0.17
			c-0.36,0.06-0.63,0.16-0.79,0.28c-0.17,0.13-0.25,0.28-0.25,0.45c0,0.13,0.04,0.24,0.12,0.34s0.18,0.17,0.31,0.21
			C131.79,65.99,131.92,66.01,132.07,66.01z"/>
		<path class="st0" d="M136.75,67.22c-0.08,0-0.15-0.03-0.21-0.09c-0.05-0.06-0.08-0.13-0.08-0.2v-5.45c0-0.08,0.03-0.15,0.08-0.21
			c0.05-0.05,0.12-0.08,0.21-0.08h1.33c0.08,0,0.16,0.03,0.21,0.08c0.06,0.05,0.09,0.12,0.09,0.21v0.44
			c0.19-0.24,0.45-0.44,0.78-0.6c0.33-0.16,0.71-0.24,1.15-0.24c0.45,0,0.85,0.1,1.19,0.3c0.34,0.2,0.62,0.5,0.81,0.88
			s0.3,0.87,0.3,1.44v3.24c0,0.08-0.03,0.14-0.08,0.2c-0.05,0.06-0.12,0.09-0.21,0.09h-1.46c-0.08,0-0.15-0.03-0.2-0.09
			c-0.06-0.06-0.09-0.13-0.09-0.2v-3.17c0-0.36-0.09-0.64-0.26-0.84c-0.17-0.2-0.43-0.3-0.77-0.3c-0.32,0-0.57,0.1-0.76,0.3
			s-0.28,0.48-0.28,0.84v3.17c0,0.08-0.03,0.14-0.09,0.2c-0.06,0.06-0.13,0.09-0.2,0.09H136.75z"/>
		<path class="st0" d="M146.85,67.22c-0.5,0-0.92-0.08-1.28-0.24c-0.36-0.16-0.64-0.41-0.83-0.74c-0.19-0.34-0.29-0.77-0.29-1.3
			V62.7h-0.91c-0.08,0-0.16-0.03-0.21-0.08c-0.06-0.05-0.09-0.12-0.09-0.21v-0.94c0-0.08,0.03-0.15,0.09-0.21
			c0.06-0.05,0.13-0.08,0.21-0.08h0.91v-1.91c0-0.08,0.03-0.16,0.09-0.21c0.06-0.05,0.12-0.08,0.2-0.08h1.35
			c0.08,0,0.15,0.03,0.21,0.08c0.05,0.05,0.08,0.12,0.08,0.21v1.91h1.45c0.08,0,0.16,0.03,0.21,0.08c0.06,0.05,0.09,0.12,0.09,0.21
			v0.94c0,0.09-0.03,0.16-0.09,0.21c-0.06,0.05-0.13,0.08-0.21,0.08h-1.45v2.07c0,0.26,0.05,0.47,0.15,0.63
			c0.1,0.15,0.27,0.23,0.51,0.23h0.89c0.08,0,0.15,0.03,0.21,0.08c0.05,0.05,0.08,0.12,0.08,0.21v1.01c0,0.08-0.03,0.14-0.08,0.2
			c-0.05,0.06-0.12,0.09-0.21,0.09H146.85z"/>
		<path class="st0" d="M149.36,60.31c-0.08,0-0.16-0.03-0.21-0.08c-0.05-0.05-0.08-0.12-0.08-0.21v-1.04c0-0.08,0.03-0.15,0.08-0.2
			c0.05-0.06,0.12-0.09,0.21-0.09h1.39c0.08,0,0.14,0.03,0.2,0.09c0.06,0.06,0.09,0.13,0.09,0.2v1.04c0,0.08-0.03,0.16-0.09,0.21
			c-0.06,0.05-0.12,0.08-0.2,0.08H149.36z M149.38,67.22c-0.09,0-0.16-0.03-0.21-0.09c-0.05-0.06-0.08-0.13-0.08-0.2v-5.45
			c0-0.08,0.03-0.15,0.08-0.21c0.05-0.05,0.12-0.08,0.21-0.08h1.37c0.08,0,0.15,0.03,0.21,0.08c0.05,0.05,0.08,0.12,0.08,0.21v5.45
			c0,0.08-0.03,0.14-0.08,0.2c-0.05,0.06-0.12,0.09-0.21,0.09H149.38z"/>
		<path class="st0" d="M155.39,67.22c-0.5,0-0.92-0.08-1.28-0.24c-0.36-0.16-0.64-0.41-0.83-0.74c-0.19-0.34-0.29-0.77-0.29-1.3
			V62.7h-0.9c-0.09,0-0.16-0.03-0.21-0.08c-0.06-0.05-0.09-0.12-0.09-0.21v-0.94c0-0.08,0.03-0.15,0.09-0.21
			c0.06-0.05,0.13-0.08,0.21-0.08h0.9v-1.91c0-0.08,0.03-0.16,0.09-0.21c0.06-0.05,0.13-0.08,0.2-0.08h1.35
			c0.08,0,0.16,0.03,0.21,0.08c0.05,0.05,0.08,0.12,0.08,0.21v1.91h1.45c0.08,0,0.16,0.03,0.21,0.08c0.06,0.05,0.09,0.12,0.09,0.21
			v0.94c0,0.09-0.03,0.16-0.09,0.21c-0.06,0.05-0.13,0.08-0.21,0.08h-1.45v2.07c0,0.26,0.05,0.47,0.15,0.63
			c0.1,0.15,0.27,0.23,0.51,0.23h0.89c0.09,0,0.16,0.03,0.21,0.08c0.05,0.05,0.08,0.12,0.08,0.21v1.01c0,0.08-0.03,0.14-0.08,0.2
			c-0.05,0.06-0.12,0.09-0.21,0.09H155.39z"/>
		<path class="st0" d="M159.43,67.33c-0.42,0-0.79-0.08-1.12-0.24s-0.59-0.37-0.78-0.64s-0.29-0.58-0.29-0.92
			c0-0.55,0.22-0.98,0.67-1.3c0.45-0.32,1.04-0.54,1.79-0.66l1.45-0.22v-0.16c0-0.28-0.06-0.49-0.17-0.64
			c-0.12-0.15-0.33-0.22-0.64-0.22c-0.22,0-0.39,0.04-0.53,0.13c-0.14,0.08-0.24,0.2-0.32,0.35c-0.07,0.1-0.17,0.15-0.29,0.15h-1.3
			c-0.08,0-0.15-0.03-0.2-0.08c-0.05-0.05-0.07-0.11-0.06-0.18c0-0.14,0.05-0.3,0.16-0.48c0.1-0.18,0.27-0.36,0.48-0.54
			c0.22-0.18,0.5-0.33,0.84-0.44c0.34-0.12,0.75-0.17,1.24-0.17c0.5,0,0.92,0.06,1.28,0.17c0.36,0.12,0.65,0.28,0.87,0.49
			c0.22,0.21,0.39,0.46,0.49,0.74s0.16,0.59,0.16,0.93v3.53c0,0.08-0.03,0.14-0.09,0.2c-0.06,0.06-0.13,0.09-0.2,0.09h-1.35
			c-0.08,0-0.15-0.03-0.21-0.09c-0.05-0.06-0.08-0.13-0.08-0.2v-0.41c-0.1,0.15-0.24,0.28-0.41,0.41s-0.37,0.22-0.6,0.3
			C160,67.3,159.74,67.33,159.43,67.33z M159.98,66.01c0.22,0,0.43-0.05,0.61-0.14s0.32-0.25,0.43-0.45s0.16-0.46,0.16-0.77v-0.16
			l-0.99,0.17c-0.36,0.06-0.63,0.16-0.79,0.28c-0.17,0.13-0.25,0.28-0.25,0.45c0,0.13,0.04,0.24,0.12,0.34
			c0.08,0.09,0.18,0.17,0.31,0.21C159.69,65.99,159.83,66.01,159.98,66.01z"/>
		<path class="st0" d="M167.41,67.22c-0.5,0-0.92-0.08-1.28-0.24c-0.36-0.16-0.64-0.41-0.83-0.74c-0.19-0.34-0.29-0.77-0.29-1.3
			V62.7h-0.91c-0.08,0-0.16-0.03-0.21-0.08c-0.06-0.05-0.09-0.12-0.09-0.21v-0.94c0-0.08,0.03-0.15,0.09-0.21
			c0.06-0.05,0.13-0.08,0.21-0.08h0.91v-1.91c0-0.08,0.03-0.16,0.09-0.21c0.06-0.05,0.13-0.08,0.2-0.08h1.35
			c0.08,0,0.16,0.03,0.21,0.08s0.08,0.12,0.08,0.21v1.91h1.45c0.08,0,0.16,0.03,0.21,0.08c0.06,0.05,0.09,0.12,0.09,0.21v0.94
			c0,0.09-0.03,0.16-0.09,0.21c-0.06,0.05-0.13,0.08-0.21,0.08h-1.45v2.07c0,0.26,0.05,0.47,0.15,0.63c0.1,0.15,0.27,0.23,0.51,0.23
			h0.89c0.08,0,0.16,0.03,0.21,0.08c0.05,0.05,0.08,0.12,0.08,0.21v1.01c0,0.08-0.03,0.14-0.08,0.2c-0.05,0.06-0.12,0.09-0.21,0.09
			H167.41z"/>
		<path class="st0" d="M169.92,60.31c-0.08,0-0.15-0.03-0.21-0.08c-0.05-0.05-0.08-0.12-0.08-0.21v-1.04c0-0.08,0.03-0.15,0.08-0.2
			c0.05-0.06,0.12-0.09,0.21-0.09h1.39c0.08,0,0.14,0.03,0.2,0.09c0.06,0.06,0.09,0.13,0.09,0.2v1.04c0,0.08-0.03,0.16-0.09,0.21
			c-0.06,0.05-0.13,0.08-0.2,0.08H169.92z M169.93,67.22c-0.08,0-0.15-0.03-0.21-0.09c-0.05-0.06-0.08-0.13-0.08-0.2v-5.45
			c0-0.08,0.03-0.15,0.08-0.21c0.05-0.05,0.12-0.08,0.21-0.08h1.37c0.08,0,0.15,0.03,0.21,0.08c0.05,0.05,0.08,0.12,0.08,0.21v5.45
			c0,0.08-0.03,0.14-0.08,0.2c-0.05,0.06-0.12,0.09-0.21,0.09H169.93z"/>
		<path class="st0" d="M175.01,67.22c-0.12,0-0.2-0.03-0.26-0.09c-0.05-0.06-0.1-0.13-0.14-0.2l-2.19-5.38
			c-0.02-0.03-0.02-0.07-0.02-0.1c0-0.07,0.03-0.13,0.08-0.18c0.05-0.05,0.11-0.08,0.19-0.08h1.31c0.1,0,0.18,0.03,0.23,0.08
			c0.05,0.05,0.09,0.11,0.1,0.16l1.31,3.56l1.32-3.56c0.01-0.05,0.05-0.11,0.1-0.16c0.05-0.05,0.13-0.08,0.23-0.08h1.31
			c0.07,0,0.13,0.03,0.19,0.08c0.05,0.05,0.08,0.11,0.08,0.18c0,0.04-0.01,0.07-0.02,0.1l-2.19,5.38c-0.03,0.08-0.08,0.14-0.13,0.2
			c-0.06,0.06-0.15,0.09-0.27,0.09H175.01z"/>
		<path class="st0" d="M182.29,67.33c-0.65,0-1.2-0.1-1.64-0.31c-0.44-0.21-0.79-0.51-1.02-0.9c-0.24-0.39-0.37-0.86-0.4-1.4
			c-0.01-0.16-0.01-0.33-0.01-0.53s0-0.37,0.01-0.52c0.03-0.55,0.17-1.02,0.42-1.4c0.25-0.39,0.59-0.68,1.04-0.89
			c0.44-0.21,0.98-0.31,1.61-0.31c0.63,0,1.17,0.1,1.62,0.31c0.44,0.21,0.79,0.51,1.04,0.89c0.25,0.39,0.39,0.85,0.42,1.4
			c0.01,0.15,0.01,0.32,0.01,0.52s0,0.37-0.01,0.53c-0.03,0.54-0.17,1.01-0.4,1.4c-0.24,0.39-0.58,0.69-1.02,0.9
			C183.5,67.23,182.95,67.33,182.29,67.33z M182.29,65.92c0.35,0,0.6-0.1,0.76-0.31c0.16-0.21,0.25-0.52,0.27-0.94
			c0.01-0.12,0.01-0.27,0.01-0.46s0-0.35-0.01-0.46c-0.02-0.41-0.11-0.72-0.27-0.93c-0.16-0.21-0.41-0.32-0.76-0.32
			c-0.33,0-0.58,0.11-0.75,0.32c-0.17,0.21-0.26,0.52-0.27,0.93c-0.01,0.12-0.01,0.27-0.01,0.46s0,0.35,0.01,0.46
			c0.02,0.42,0.11,0.73,0.27,0.94C181.71,65.81,181.96,65.92,182.29,65.92z"/>
		<path class="st0" d="M188.91,67.33c-0.5,0-0.93-0.06-1.28-0.17c-0.35-0.11-0.64-0.25-0.86-0.41c-0.22-0.16-0.38-0.33-0.49-0.5
			s-0.17-0.33-0.17-0.46c-0.01-0.08,0.02-0.16,0.08-0.21s0.13-0.08,0.2-0.08h1.32c0.02,0,0.04,0,0.06,0.01
			c0.02,0.01,0.04,0.02,0.06,0.05c0.1,0.05,0.2,0.12,0.3,0.2s0.22,0.15,0.35,0.21c0.13,0.06,0.29,0.09,0.48,0.09
			c0.22,0,0.4-0.04,0.54-0.13c0.15-0.09,0.22-0.21,0.22-0.38c0-0.12-0.04-0.23-0.1-0.31c-0.07-0.08-0.21-0.16-0.42-0.24
			s-0.53-0.16-0.96-0.23c-0.4-0.09-0.75-0.21-1.06-0.37c-0.3-0.15-0.53-0.35-0.7-0.59c-0.16-0.24-0.24-0.54-0.24-0.89
			c0-0.31,0.1-0.61,0.3-0.89s0.5-0.52,0.88-0.7c0.39-0.18,0.87-0.27,1.44-0.27c0.44,0,0.83,0.05,1.16,0.16
			c0.33,0.1,0.61,0.24,0.83,0.4c0.22,0.16,0.39,0.33,0.51,0.5c0.12,0.17,0.18,0.33,0.19,0.46c0.01,0.08-0.02,0.14-0.07,0.2
			c-0.05,0.06-0.12,0.09-0.19,0.09h-1.21c-0.03,0-0.06-0.01-0.09-0.02c-0.03-0.01-0.06-0.03-0.08-0.04
			c-0.09-0.05-0.19-0.11-0.28-0.19c-0.09-0.08-0.2-0.15-0.33-0.21c-0.12-0.06-0.28-0.09-0.46-0.09c-0.21,0-0.37,0.05-0.49,0.14
			c-0.12,0.09-0.17,0.21-0.17,0.36c0,0.1,0.03,0.19,0.1,0.28c0.07,0.08,0.2,0.16,0.41,0.23s0.52,0.15,0.96,0.23
			c0.53,0.09,0.96,0.22,1.28,0.41s0.54,0.41,0.68,0.66c0.14,0.25,0.2,0.52,0.2,0.79c0,0.37-0.11,0.7-0.34,0.99
			c-0.22,0.29-0.55,0.51-0.98,0.67C190.06,67.25,189.53,67.33,188.91,67.33z"/>
	</g>
	<g>
		<path class="st0" d="M65.63,78.82c-0.91,0-1.64-0.25-2.18-0.74c-0.54-0.49-0.82-1.23-0.85-2.2c0-0.05,0-0.12,0-0.21
			c0-0.08,0-0.15,0-0.2c0.02-0.61,0.16-1.13,0.41-1.57c0.25-0.44,0.6-0.77,1.04-1c0.45-0.23,0.96-0.34,1.56-0.34
			c0.68,0,1.24,0.14,1.69,0.41s0.78,0.64,1,1.1c0.22,0.46,0.34,0.99,0.34,1.59v0.28c0,0.08-0.03,0.15-0.08,0.21
			c-0.05,0.05-0.12,0.08-0.21,0.08h-3.71c0,0.01,0,0.02,0,0.03s0,0.03,0,0.05c0.01,0.22,0.05,0.43,0.12,0.61s0.18,0.33,0.33,0.44
			c0.14,0.11,0.32,0.16,0.53,0.16c0.16,0,0.29-0.02,0.39-0.08c0.1-0.05,0.19-0.11,0.26-0.17c0.07-0.07,0.12-0.12,0.16-0.17
			c0.07-0.08,0.13-0.14,0.17-0.16c0.04-0.02,0.11-0.03,0.2-0.03h1.44c0.08,0,0.14,0.02,0.19,0.07c0.05,0.05,0.07,0.11,0.06,0.19
			c-0.01,0.13-0.07,0.29-0.2,0.48c-0.12,0.19-0.3,0.37-0.54,0.55c-0.24,0.18-0.53,0.33-0.89,0.45
			C66.52,78.76,66.1,78.82,65.63,78.82z M64.64,75.07h1.96v-0.02c0-0.26-0.04-0.47-0.11-0.66c-0.07-0.18-0.19-0.32-0.34-0.42
			c-0.15-0.1-0.33-0.15-0.54-0.15c-0.2,0-0.38,0.05-0.52,0.15c-0.15,0.1-0.26,0.24-0.34,0.42c-0.08,0.18-0.12,0.4-0.12,0.66V75.07z"
			/>
		<path class="st0" d="M69.93,78.7c-0.08,0-0.16-0.03-0.21-0.09c-0.05-0.06-0.08-0.13-0.08-0.2v-5.45c0-0.08,0.03-0.15,0.08-0.21
			c0.05-0.05,0.12-0.08,0.21-0.08h1.33c0.08,0,0.16,0.03,0.21,0.08c0.06,0.05,0.09,0.12,0.09,0.21v0.44
			c0.19-0.24,0.45-0.44,0.78-0.6c0.33-0.16,0.71-0.24,1.15-0.24c0.45,0,0.85,0.1,1.19,0.3s0.62,0.5,0.81,0.88s0.3,0.87,0.3,1.44
			v3.24c0,0.08-0.03,0.14-0.08,0.2c-0.05,0.06-0.12,0.09-0.21,0.09h-1.46c-0.08,0-0.15-0.03-0.2-0.09c-0.06-0.06-0.09-0.13-0.09-0.2
			v-3.17c0-0.36-0.09-0.64-0.26-0.84c-0.17-0.2-0.43-0.3-0.77-0.3c-0.32,0-0.57,0.1-0.76,0.3s-0.28,0.48-0.28,0.84v3.17
			c0,0.08-0.03,0.14-0.09,0.2c-0.06,0.06-0.13,0.09-0.2,0.09H69.93z"/>
		<path class="st0" d="M79.86,78.7c-0.09,0-0.16-0.03-0.21-0.09c-0.05-0.06-0.08-0.13-0.08-0.2v-7.54c0-0.09,0.03-0.16,0.08-0.21
			c0.05-0.05,0.12-0.08,0.21-0.08h5.42c0.08,0,0.15,0.03,0.21,0.08c0.05,0.05,0.08,0.12,0.08,0.21v1.09c0,0.09-0.03,0.16-0.08,0.21
			c-0.05,0.05-0.12,0.08-0.21,0.08h-3.7v1.57h3.45c0.08,0,0.15,0.03,0.21,0.09c0.05,0.06,0.08,0.13,0.08,0.21v1.01
			c0,0.08-0.03,0.14-0.08,0.2c-0.05,0.06-0.12,0.09-0.21,0.09h-3.45v1.61h3.79c0.08,0,0.15,0.03,0.21,0.08
			c0.05,0.05,0.08,0.12,0.08,0.21v1.09c0,0.08-0.03,0.14-0.08,0.2c-0.05,0.06-0.12,0.09-0.21,0.09H79.86z"/>
		<path class="st0" d="M89.5,78.82c-0.57,0-1.08-0.1-1.52-0.31c-0.44-0.21-0.79-0.51-1.05-0.91c-0.26-0.4-0.4-0.88-0.42-1.43
			c-0.01-0.12-0.01-0.28-0.01-0.47s0-0.35,0.01-0.47c0.02-0.56,0.16-1.05,0.42-1.44s0.61-0.7,1.05-0.91s0.95-0.31,1.53-0.31
			c0.53,0,0.99,0.08,1.38,0.23c0.38,0.15,0.69,0.34,0.93,0.56c0.24,0.22,0.41,0.46,0.53,0.69c0.12,0.24,0.18,0.44,0.19,0.62
			c0.01,0.08-0.02,0.14-0.08,0.2c-0.06,0.06-0.13,0.09-0.21,0.09h-1.47c-0.08,0-0.15-0.02-0.2-0.06c-0.05-0.04-0.09-0.1-0.13-0.17
			c-0.09-0.24-0.21-0.41-0.35-0.51c-0.14-0.1-0.33-0.15-0.55-0.15c-0.31,0-0.55,0.1-0.71,0.3c-0.17,0.2-0.26,0.51-0.27,0.93
			c-0.01,0.31-0.01,0.58,0,0.82c0.02,0.42,0.12,0.73,0.28,0.93c0.16,0.19,0.4,0.29,0.71,0.29c0.24,0,0.43-0.05,0.57-0.16
			c0.14-0.1,0.25-0.27,0.34-0.5c0.04-0.08,0.08-0.13,0.13-0.17c0.05-0.04,0.11-0.06,0.2-0.06h1.47c0.08,0,0.15,0.03,0.21,0.08
			c0.06,0.05,0.09,0.12,0.08,0.21c-0.01,0.12-0.05,0.28-0.12,0.45c-0.07,0.18-0.18,0.36-0.32,0.56c-0.15,0.19-0.34,0.37-0.57,0.53
			c-0.24,0.16-0.52,0.29-0.85,0.4C90.33,78.77,89.94,78.82,89.5,78.82z"/>
		<path class="st0" d="M96.33,78.82c-0.65,0-1.2-0.1-1.64-0.31c-0.44-0.21-0.78-0.51-1.02-0.9s-0.37-0.86-0.4-1.4
			c-0.01-0.16-0.01-0.33-0.01-0.53s0-0.37,0.01-0.52c0.03-0.55,0.17-1.02,0.42-1.4c0.25-0.39,0.59-0.68,1.04-0.89
			s0.98-0.31,1.61-0.31c0.63,0,1.17,0.1,1.62,0.31c0.44,0.21,0.79,0.51,1.04,0.89c0.25,0.39,0.39,0.85,0.42,1.4
			c0.01,0.15,0.01,0.32,0.01,0.52s0,0.37-0.01,0.53c-0.03,0.54-0.16,1.01-0.4,1.4s-0.58,0.69-1.02,0.9
			C97.54,78.71,96.99,78.82,96.33,78.82z M96.33,77.4c0.35,0,0.6-0.1,0.76-0.31c0.16-0.21,0.25-0.52,0.27-0.94
			c0.01-0.12,0.01-0.27,0.01-0.46s0-0.35-0.01-0.46c-0.02-0.41-0.11-0.72-0.27-0.93c-0.16-0.21-0.41-0.32-0.76-0.32
			c-0.33,0-0.58,0.11-0.75,0.32c-0.17,0.21-0.26,0.52-0.27,0.93c-0.01,0.12-0.01,0.27-0.01,0.46s0,0.35,0.01,0.46
			c0.02,0.42,0.11,0.73,0.27,0.94C95.75,77.3,96,77.4,96.33,77.4z"/>
		<path class="st0" d="M100.75,78.7c-0.08,0-0.16-0.03-0.21-0.09c-0.05-0.06-0.08-0.13-0.08-0.2v-5.45c0-0.08,0.03-0.15,0.08-0.21
			c0.05-0.05,0.12-0.08,0.21-0.08h1.33c0.08,0,0.16,0.03,0.21,0.08c0.06,0.05,0.09,0.12,0.09,0.21v0.44
			c0.19-0.24,0.45-0.44,0.78-0.6c0.33-0.16,0.71-0.24,1.15-0.24c0.45,0,0.85,0.1,1.19,0.3s0.62,0.5,0.81,0.88s0.3,0.87,0.3,1.44
			v3.24c0,0.08-0.03,0.14-0.08,0.2c-0.05,0.06-0.12,0.09-0.21,0.09h-1.46c-0.08,0-0.15-0.03-0.2-0.09c-0.06-0.06-0.09-0.13-0.09-0.2
			v-3.17c0-0.36-0.09-0.64-0.26-0.84c-0.17-0.2-0.43-0.3-0.77-0.3c-0.32,0-0.57,0.1-0.76,0.3s-0.28,0.48-0.28,0.84v3.17
			c0,0.08-0.03,0.14-0.09,0.2c-0.06,0.06-0.13,0.09-0.2,0.09H100.75z"/>
		<path class="st0" d="M110.68,78.82c-0.65,0-1.2-0.1-1.64-0.31c-0.44-0.21-0.78-0.51-1.02-0.9s-0.37-0.86-0.4-1.4
			c-0.01-0.16-0.01-0.33-0.01-0.53s0-0.37,0.01-0.52c0.03-0.55,0.17-1.02,0.42-1.4c0.25-0.39,0.59-0.68,1.04-0.89
			s0.98-0.31,1.61-0.31c0.63,0,1.17,0.1,1.62,0.31c0.44,0.21,0.79,0.51,1.04,0.89c0.25,0.39,0.39,0.85,0.42,1.4
			c0.01,0.15,0.01,0.32,0.01,0.52s0,0.37-0.01,0.53c-0.03,0.54-0.16,1.01-0.4,1.4s-0.58,0.69-1.02,0.9
			C111.89,78.71,111.34,78.82,110.68,78.82z M110.68,77.4c0.35,0,0.6-0.1,0.76-0.31c0.16-0.21,0.25-0.52,0.27-0.94
			c0.01-0.12,0.01-0.27,0.01-0.46s0-0.35-0.01-0.46c-0.02-0.41-0.11-0.72-0.27-0.93c-0.16-0.21-0.41-0.32-0.76-0.32
			c-0.33,0-0.58,0.11-0.75,0.32c-0.17,0.21-0.26,0.52-0.27,0.93c-0.01,0.12-0.01,0.27-0.01,0.46s0,0.35,0.01,0.46
			c0.02,0.42,0.11,0.73,0.27,0.94C110.1,77.3,110.35,77.4,110.68,77.4z"/>
		<path class="st0" d="M115.11,78.7c-0.08,0-0.16-0.03-0.21-0.09c-0.05-0.06-0.08-0.13-0.08-0.2v-5.45c0-0.08,0.03-0.15,0.08-0.21
			c0.05-0.05,0.12-0.08,0.21-0.08h1.26c0.08,0,0.15,0.03,0.21,0.08c0.05,0.05,0.08,0.12,0.08,0.21v0.39
			c0.15-0.21,0.37-0.39,0.65-0.55c0.28-0.16,0.61-0.24,0.99-0.25c0.9-0.02,1.51,0.31,1.84,1c0.18-0.29,0.43-0.53,0.76-0.72
			c0.33-0.19,0.69-0.28,1.08-0.28c0.4,0,0.76,0.09,1.08,0.27c0.32,0.18,0.58,0.46,0.77,0.84s0.29,0.86,0.29,1.46v3.29
			c0,0.08-0.03,0.14-0.08,0.2c-0.05,0.06-0.12,0.09-0.21,0.09h-1.35c-0.08,0-0.16-0.03-0.21-0.09c-0.06-0.06-0.09-0.13-0.09-0.2
			V75.2c0-0.27-0.04-0.49-0.12-0.64c-0.08-0.16-0.18-0.27-0.31-0.34c-0.13-0.07-0.28-0.1-0.45-0.1c-0.14,0-0.28,0.04-0.41,0.1
			c-0.13,0.07-0.24,0.18-0.32,0.34c-0.08,0.16-0.12,0.37-0.12,0.64v3.21c0,0.08-0.03,0.14-0.08,0.2c-0.05,0.06-0.12,0.09-0.21,0.09
			h-1.35c-0.08,0-0.16-0.03-0.21-0.09c-0.05-0.06-0.08-0.13-0.08-0.2V75.2c0-0.27-0.04-0.49-0.13-0.64
			c-0.08-0.16-0.19-0.27-0.33-0.34c-0.13-0.07-0.27-0.1-0.43-0.1c-0.15,0-0.29,0.04-0.42,0.1c-0.13,0.07-0.24,0.18-0.32,0.34
			c-0.08,0.16-0.12,0.37-0.12,0.63v3.23c0,0.08-0.03,0.14-0.09,0.2c-0.06,0.06-0.13,0.09-0.2,0.09H115.11z"/>
		<path class="st0" d="M125.63,78.7c-0.08,0-0.16-0.03-0.21-0.09c-0.05-0.06-0.08-0.13-0.08-0.2v-5.45c0-0.08,0.03-0.15,0.08-0.21
			c0.05-0.05,0.12-0.08,0.21-0.08H127c0.08,0,0.15,0.03,0.21,0.08c0.05,0.05,0.08,0.12,0.08,0.21v5.45c0,0.08-0.03,0.14-0.08,0.2
			c-0.05,0.06-0.12,0.09-0.21,0.09H125.63z M125.66,71.8c-0.12,0-0.19-0.06-0.19-0.19c0-0.06,0.02-0.11,0.06-0.15l1.02-1.24
			c0.08-0.09,0.14-0.15,0.2-0.18c0.05-0.03,0.13-0.04,0.23-0.04h1.53c0.15,0,0.22,0.08,0.22,0.23c0,0.05-0.02,0.1-0.06,0.14
			l-1.54,1.26c-0.06,0.05-0.12,0.09-0.19,0.12c-0.06,0.03-0.15,0.04-0.25,0.04H125.66z"/>
		<path class="st0" d="M130.37,78.82c-0.42,0-0.79-0.08-1.12-0.24c-0.33-0.16-0.59-0.37-0.78-0.64s-0.29-0.58-0.29-0.92
			c0-0.55,0.22-0.98,0.67-1.3c0.45-0.32,1.04-0.54,1.79-0.66l1.45-0.22v-0.16c0-0.28-0.06-0.49-0.17-0.64
			c-0.12-0.15-0.33-0.22-0.64-0.22c-0.22,0-0.39,0.04-0.53,0.13c-0.13,0.08-0.24,0.2-0.32,0.35c-0.07,0.1-0.17,0.15-0.29,0.15h-1.3
			c-0.08,0-0.15-0.03-0.2-0.08c-0.05-0.05-0.07-0.11-0.06-0.18c0-0.14,0.05-0.3,0.16-0.48c0.1-0.18,0.26-0.36,0.48-0.54
			s0.5-0.33,0.84-0.44c0.34-0.12,0.75-0.17,1.24-0.17c0.5,0,0.92,0.06,1.28,0.17c0.36,0.12,0.65,0.28,0.87,0.49
			c0.22,0.21,0.39,0.46,0.49,0.74s0.16,0.59,0.16,0.93v3.53c0,0.08-0.03,0.14-0.09,0.2c-0.06,0.06-0.13,0.09-0.2,0.09h-1.35
			c-0.08,0-0.16-0.03-0.21-0.09c-0.05-0.06-0.08-0.13-0.08-0.2v-0.41c-0.1,0.15-0.24,0.28-0.41,0.41s-0.37,0.22-0.6,0.3
			S130.67,78.82,130.37,78.82z M130.92,77.5c0.22,0,0.43-0.05,0.61-0.14s0.33-0.25,0.43-0.45s0.16-0.46,0.16-0.77v-0.16l-0.99,0.17
			c-0.36,0.06-0.63,0.16-0.79,0.28c-0.17,0.13-0.25,0.28-0.25,0.45c0,0.13,0.04,0.24,0.12,0.34s0.18,0.17,0.31,0.21
			C130.63,77.47,130.77,77.5,130.92,77.5z"/>
		<path class="st0" d="M138.6,80.91c-0.07,0-0.13-0.02-0.17-0.07c-0.05-0.05-0.07-0.1-0.07-0.17c0-0.02,0-0.04,0.01-0.06
			c0-0.03,0.01-0.06,0.03-0.09l0.9-2.18l-2.23-5.27c-0.02-0.05-0.04-0.1-0.04-0.14c0.02-0.07,0.05-0.13,0.09-0.18
			c0.05-0.05,0.1-0.08,0.17-0.08h1.32c0.1,0,0.18,0.03,0.23,0.08c0.05,0.05,0.09,0.11,0.11,0.17l1.32,3.38l1.36-3.38
			c0.03-0.06,0.07-0.12,0.12-0.17c0.05-0.05,0.13-0.08,0.23-0.08h1.3c0.07,0,0.13,0.03,0.18,0.08c0.05,0.05,0.08,0.11,0.08,0.17
			c0,0.04-0.01,0.09-0.04,0.15l-3.28,7.6c-0.02,0.06-0.06,0.12-0.12,0.17c-0.05,0.05-0.13,0.08-0.23,0.08H138.6z"/>
		<path class="st0" d="M149.94,78.82c-0.73,0-1.37-0.12-1.9-0.37c-0.53-0.24-0.94-0.6-1.23-1.07c-0.29-0.47-0.45-1.04-0.48-1.71
			c-0.01-0.33-0.01-0.69-0.01-1.06s0-0.73,0.01-1.07c0.03-0.66,0.19-1.21,0.49-1.67c0.29-0.46,0.71-0.8,1.24-1.04
			c0.53-0.24,1.16-0.36,1.88-0.36c0.58,0,1.09,0.07,1.54,0.21c0.45,0.14,0.83,0.33,1.13,0.57c0.3,0.24,0.54,0.5,0.7,0.79
			c0.16,0.29,0.25,0.57,0.26,0.85c0,0.07-0.03,0.13-0.08,0.17c-0.05,0.05-0.11,0.07-0.18,0.07h-1.69c-0.08,0-0.15-0.01-0.19-0.04
			c-0.04-0.03-0.08-0.07-0.11-0.12c-0.05-0.12-0.13-0.24-0.24-0.37c-0.1-0.13-0.25-0.24-0.43-0.33s-0.42-0.14-0.71-0.14
			c-0.43,0-0.78,0.12-1.03,0.35c-0.26,0.23-0.39,0.6-0.42,1.11c-0.02,0.67-0.02,1.34,0,2.02c0.02,0.54,0.17,0.93,0.43,1.17
			c0.26,0.24,0.61,0.36,1.06,0.36c0.29,0,0.54-0.05,0.77-0.15c0.23-0.1,0.41-0.26,0.54-0.47c0.13-0.21,0.2-0.49,0.2-0.82v-0.22
			h-1.09c-0.08,0-0.15-0.03-0.21-0.09c-0.05-0.06-0.08-0.13-0.08-0.21v-0.86c0-0.08,0.03-0.16,0.08-0.21
			c0.05-0.06,0.12-0.09,0.21-0.09h2.92c0.08,0,0.16,0.03,0.21,0.09c0.05,0.06,0.08,0.13,0.08,0.21v1.32c0,0.67-0.15,1.23-0.45,1.71
			s-0.73,0.83-1.28,1.08C151.32,78.69,150.67,78.82,149.94,78.82z"/>
		<path class="st0" d="M157.49,78.82c-0.91,0-1.64-0.25-2.18-0.74c-0.54-0.49-0.82-1.23-0.85-2.2c0-0.05,0-0.12,0-0.21
			c0-0.08,0-0.15,0-0.2c0.02-0.61,0.16-1.13,0.41-1.57c0.25-0.44,0.6-0.77,1.04-1c0.45-0.23,0.96-0.34,1.56-0.34
			c0.68,0,1.24,0.14,1.69,0.41s0.78,0.64,1,1.1c0.22,0.46,0.34,0.99,0.34,1.59v0.28c0,0.08-0.03,0.15-0.08,0.21
			c-0.05,0.05-0.12,0.08-0.21,0.08h-3.71c0,0.01,0,0.02,0,0.03s0,0.03,0,0.05c0.01,0.22,0.05,0.43,0.12,0.61s0.18,0.33,0.33,0.44
			c0.14,0.11,0.32,0.16,0.53,0.16c0.16,0,0.29-0.02,0.39-0.08c0.1-0.05,0.19-0.11,0.26-0.17c0.07-0.07,0.12-0.12,0.16-0.17
			c0.07-0.08,0.13-0.14,0.17-0.16c0.04-0.02,0.11-0.03,0.2-0.03h1.44c0.08,0,0.14,0.02,0.19,0.07c0.05,0.05,0.07,0.11,0.06,0.19
			c-0.01,0.13-0.07,0.29-0.2,0.48c-0.12,0.19-0.3,0.37-0.54,0.55c-0.24,0.18-0.53,0.33-0.89,0.45
			C158.38,78.76,157.97,78.82,157.49,78.82z M156.51,75.07h1.96v-0.02c0-0.26-0.04-0.47-0.11-0.66c-0.07-0.18-0.19-0.32-0.34-0.42
			c-0.15-0.1-0.33-0.15-0.54-0.15c-0.2,0-0.38,0.05-0.52,0.15c-0.15,0.1-0.26,0.24-0.34,0.42c-0.08,0.18-0.12,0.4-0.12,0.66V75.07z"
			/>
		<path class="st0" d="M163.99,78.82c-0.5,0-0.93-0.06-1.28-0.17c-0.35-0.11-0.64-0.25-0.86-0.41c-0.22-0.16-0.38-0.33-0.49-0.5
			c-0.11-0.17-0.17-0.33-0.17-0.46c-0.01-0.08,0.02-0.16,0.08-0.21c0.06-0.05,0.13-0.08,0.2-0.08h1.32c0.02,0,0.04,0,0.06,0.01
			s0.04,0.02,0.06,0.05c0.1,0.05,0.2,0.12,0.3,0.2s0.22,0.15,0.35,0.21c0.13,0.06,0.29,0.09,0.48,0.09c0.22,0,0.4-0.04,0.54-0.13
			c0.15-0.09,0.22-0.21,0.22-0.38c0-0.12-0.04-0.23-0.1-0.31s-0.21-0.16-0.42-0.24c-0.21-0.08-0.53-0.16-0.96-0.23
			c-0.4-0.09-0.75-0.21-1.06-0.37c-0.3-0.15-0.53-0.35-0.7-0.59c-0.16-0.24-0.24-0.54-0.24-0.89c0-0.31,0.1-0.61,0.3-0.89
			s0.5-0.52,0.88-0.7c0.39-0.18,0.87-0.27,1.44-0.27c0.44,0,0.83,0.05,1.16,0.16c0.33,0.1,0.61,0.24,0.83,0.4
			c0.22,0.16,0.39,0.33,0.51,0.5c0.12,0.17,0.18,0.33,0.19,0.46c0.01,0.08-0.02,0.14-0.07,0.2c-0.05,0.06-0.12,0.09-0.19,0.09h-1.21
			c-0.03,0-0.06-0.01-0.09-0.02s-0.06-0.03-0.08-0.04c-0.09-0.05-0.19-0.11-0.28-0.19s-0.2-0.15-0.33-0.21
			c-0.12-0.06-0.28-0.09-0.46-0.09c-0.21,0-0.37,0.05-0.49,0.14s-0.17,0.21-0.17,0.36c0,0.1,0.03,0.19,0.1,0.28
			c0.07,0.08,0.2,0.16,0.41,0.23c0.2,0.07,0.52,0.15,0.96,0.23c0.53,0.09,0.96,0.22,1.28,0.41c0.32,0.19,0.54,0.41,0.68,0.66
			c0.13,0.25,0.2,0.52,0.2,0.79c0,0.37-0.11,0.7-0.34,0.99s-0.55,0.51-0.98,0.67C165.14,78.74,164.61,78.82,163.99,78.82z"/>
		<path class="st0" d="M170.88,78.7c-0.5,0-0.92-0.08-1.28-0.24c-0.36-0.16-0.64-0.41-0.83-0.74c-0.19-0.34-0.29-0.77-0.29-1.3
			v-2.23h-0.91c-0.08,0-0.16-0.03-0.21-0.08c-0.06-0.05-0.09-0.12-0.09-0.21v-0.94c0-0.08,0.03-0.15,0.09-0.21
			c0.06-0.05,0.13-0.08,0.21-0.08h0.91v-1.91c0-0.08,0.03-0.16,0.09-0.21s0.13-0.08,0.2-0.08h1.35c0.08,0,0.15,0.03,0.21,0.08
			c0.05,0.05,0.08,0.12,0.08,0.21v1.91h1.45c0.08,0,0.16,0.03,0.21,0.08c0.06,0.05,0.09,0.12,0.09,0.21v0.94
			c0,0.09-0.03,0.16-0.09,0.21c-0.06,0.05-0.13,0.08-0.21,0.08h-1.45v2.07c0,0.26,0.05,0.47,0.15,0.63c0.1,0.15,0.27,0.23,0.51,0.23
			h0.89c0.08,0,0.15,0.03,0.21,0.08c0.05,0.05,0.08,0.12,0.08,0.21v1.01c0,0.08-0.03,0.14-0.08,0.2c-0.05,0.06-0.12,0.09-0.21,0.09
			H170.88z"/>
		<path class="st0" d="M173.39,71.8c-0.08,0-0.15-0.03-0.21-0.08c-0.05-0.05-0.08-0.12-0.08-0.21v-1.04c0-0.08,0.03-0.15,0.08-0.2
			c0.05-0.06,0.12-0.09,0.21-0.09h1.39c0.08,0,0.14,0.03,0.2,0.09c0.06,0.06,0.09,0.13,0.09,0.2v1.04c0,0.08-0.03,0.16-0.09,0.21
			c-0.06,0.05-0.13,0.08-0.2,0.08H173.39z M173.41,78.7c-0.08,0-0.16-0.03-0.21-0.09c-0.05-0.06-0.08-0.13-0.08-0.2v-5.45
			c0-0.08,0.03-0.15,0.08-0.21c0.05-0.05,0.12-0.08,0.21-0.08h1.37c0.08,0,0.15,0.03,0.21,0.08c0.05,0.05,0.08,0.12,0.08,0.21v5.45
			c0,0.08-0.03,0.14-0.08,0.2c-0.05,0.06-0.12,0.09-0.21,0.09H173.41z"/>
		<path class="st0" d="M179.19,78.82c-0.65,0-1.2-0.1-1.64-0.31c-0.44-0.21-0.78-0.51-1.02-0.9s-0.37-0.86-0.4-1.4
			c-0.01-0.16-0.01-0.33-0.01-0.53s0-0.37,0.01-0.52c0.03-0.55,0.17-1.02,0.42-1.4c0.25-0.39,0.59-0.68,1.04-0.89
			s0.98-0.31,1.61-0.31c0.63,0,1.17,0.1,1.62,0.31c0.44,0.21,0.79,0.51,1.04,0.89c0.25,0.39,0.39,0.85,0.42,1.4
			c0.01,0.15,0.01,0.32,0.01,0.52s0,0.37-0.01,0.53c-0.03,0.54-0.16,1.01-0.4,1.4s-0.58,0.69-1.02,0.9
			C180.4,78.71,179.85,78.82,179.19,78.82z M179.19,77.4c0.35,0,0.6-0.1,0.76-0.31c0.16-0.21,0.25-0.52,0.27-0.94
			c0.01-0.12,0.01-0.27,0.01-0.46s0-0.35-0.01-0.46c-0.02-0.41-0.11-0.72-0.27-0.93c-0.16-0.21-0.41-0.32-0.76-0.32
			c-0.33,0-0.58,0.11-0.75,0.32c-0.17,0.21-0.26,0.52-0.27,0.93c-0.01,0.12-0.01,0.27-0.01,0.46s0,0.35,0.01,0.46
			c0.02,0.42,0.11,0.73,0.27,0.94C178.61,77.3,178.86,77.4,179.19,77.4z M178.52,71.8c-0.12,0-0.19-0.06-0.19-0.19
			c0-0.06,0.02-0.11,0.06-0.15l1.02-1.24c0.08-0.09,0.14-0.15,0.2-0.18c0.05-0.03,0.13-0.04,0.23-0.04h1.53
			c0.15,0,0.22,0.08,0.22,0.23c0,0.05-0.02,0.1-0.06,0.14l-1.54,1.26c-0.06,0.05-0.12,0.09-0.19,0.12
			c-0.06,0.03-0.15,0.04-0.25,0.04H178.52z"/>
		<path class="st0" d="M183.62,78.7c-0.08,0-0.16-0.03-0.21-0.09c-0.05-0.06-0.08-0.13-0.08-0.2v-5.45c0-0.08,0.03-0.15,0.08-0.21
			c0.05-0.05,0.12-0.08,0.21-0.08h1.33c0.08,0,0.16,0.03,0.21,0.08c0.06,0.05,0.09,0.12,0.09,0.21v0.44
			c0.19-0.24,0.45-0.44,0.78-0.6c0.33-0.16,0.71-0.24,1.15-0.24c0.45,0,0.85,0.1,1.19,0.3s0.62,0.5,0.81,0.88s0.3,0.87,0.3,1.44
			v3.24c0,0.08-0.03,0.14-0.08,0.2c-0.05,0.06-0.12,0.09-0.21,0.09h-1.46c-0.08,0-0.15-0.03-0.2-0.09c-0.06-0.06-0.09-0.13-0.09-0.2
			v-3.17c0-0.36-0.09-0.64-0.26-0.84c-0.17-0.2-0.43-0.3-0.77-0.3c-0.32,0-0.57,0.1-0.76,0.3s-0.28,0.48-0.28,0.84v3.17
			c0,0.08-0.03,0.14-0.09,0.2c-0.06,0.06-0.13,0.09-0.2,0.09H183.62z"/>
	</g>
</g>
</svg>
