<?xml version="1.0" encoding="utf-8"?>
<!-- Generator: Adobe Illustrator 28.0.0, SVG Export Plug-In . SVG Version: 6.00 Build 0)  -->
<svg version="1.1" xmlns="http://www.w3.org/2000/svg" xmlns:xlink="http://www.w3.org/1999/xlink" x="0px" y="0px"
	 viewBox="0 0 249.86 97.43" style="enable-background:new 0 0 249.86 97.43;" xml:space="preserve">
<style type="text/css">
	.st0{fill:#0067A2;}
	.st1{display:none;}
	.st2{display:inline;fill:none;stroke:#009FE3;stroke-width:0.216;stroke-miterlimit:22.9256;}
	.st3{display:inline;fill-rule:evenodd;clip-rule:evenodd;fill:none;stroke:#009FE3;stroke-width:0.216;stroke-miterlimit:22.9256;}
	.st4{display:inline;fill-rule:evenodd;clip-rule:evenodd;fill:none;stroke:#B2B2B2;stroke-width:0.216;stroke-miterlimit:22.9256;}
	.st5{display:inline;}
	.st6{fill:#DADADA;}
	.st7{display:inline;fill:#DADADA;}
	.st8{display:inline;fill:none;stroke:#F59A00;stroke-width:0.216;stroke-miterlimit:22.9256;}
	.st9{display:inline;fill:none;stroke:#EF7D00;stroke-width:0.216;stroke-miterlimit:22.9256;}
	.st10{display:inline;fill:none;stroke:#E30613;stroke-width:0.216;stroke-miterlimit:22.9256;}
	.st11{fill-rule:evenodd;clip-rule:evenodd;fill:#DADADA;}
	
		.st12{display:inline;fill-rule:evenodd;clip-rule:evenodd;fill:none;stroke:#000000;stroke-width:0.216;stroke-miterlimit:22.9256;}
	.st13{fill:none;stroke:#C6C6C6;stroke-width:0.216;stroke-miterlimit:22.9256;}
	.st14{fill:none;stroke:#B2B2B2;stroke-width:0.216;stroke-miterlimit:22.9256;}
	.st15{display:inline;fill:none;stroke:#C6C6C6;stroke-width:0.216;stroke-miterlimit:22.9256;}
	.st16{display:inline;fill:none;stroke:#B2B2B2;stroke-width:0.216;stroke-miterlimit:22.9256;}
	.st17{display:inline;fill-rule:evenodd;clip-rule:evenodd;fill:#DADADA;}
	.st18{fill-rule:evenodd;clip-rule:evenodd;fill:#009640;}
	
		.st19{display:inline;fill-rule:evenodd;clip-rule:evenodd;fill:none;stroke:#000000;stroke-width:0.2173;stroke-miterlimit:22.9256;}
	
		.st20{display:inline;fill-rule:evenodd;clip-rule:evenodd;fill:none;stroke:#C6C6C6;stroke-width:0.216;stroke-miterlimit:22.9256;}
	
		.st21{display:inline;fill-rule:evenodd;clip-rule:evenodd;fill:none;stroke:#E30613;stroke-width:0.216;stroke-miterlimit:22.9256;}
	.st22{display:inline;fill-rule:evenodd;clip-rule:evenodd;fill:#009640;}
	.st23{display:inline;fill:none;stroke:#EF7D00;stroke-width:0.2175;stroke-miterlimit:22.9256;}
	.st24{fill:#B3B1B1;}
	.st25{fill:none;stroke:#B3B1B1;stroke-width:0.216;stroke-miterlimit:22.926;}
	.st26{display:inline;fill:#FFFFFF;}
	.st27{display:inline;fill:none;stroke:#020203;stroke-width:0.216;stroke-miterlimit:22.926;}
	.st28{display:inline;fill:none;stroke:#289BD3;stroke-width:0.216;stroke-miterlimit:22.926;}
	.st29{display:inline;fill:none;stroke:#F39A10;stroke-width:0.216;stroke-miterlimit:22.926;}
	.st30{display:inline;fill:#B3B1B1;}
	.st31{display:inline;fill:none;stroke:#B3B1B1;stroke-width:0.216;stroke-miterlimit:22.926;}
	.st32{display:inline;fill:none;}
	.st33{fill:none;stroke:#E30613;stroke-width:0.2175;stroke-miterlimit:22.9256;}
	.st34{fill:none;stroke:#C6C6C6;stroke-width:0.2175;stroke-miterlimit:22.9256;}
	.st35{fill:#0467A2;}
	.st36{fill:#F39A10;}
	.st37{fill:#F59A00;}
	.st38{fill-rule:evenodd;clip-rule:evenodd;fill:#0067A2;}
	.st39{fill-rule:evenodd;clip-rule:evenodd;fill:#F59A00;}
	.st40{fill:#FFFFFF;}
	.st41{fill-rule:evenodd;clip-rule:evenodd;fill:#FFFFFF;}
</style>
<g id="Capa_4">
</g>
<g id="Capa_1" class="st1">
	<polygon class="st19" points="254.77,-7.52 0.24,-6.71 0.24,97.99 254.77,97.18 	"/>
	<line class="st20" x1="17.27" y1="-7.03" x2="17.27" y2="97.99"/>
	<line class="st4" x1="8.98" y1="-7.03" x2="8.98" y2="97.99"/>
	<line class="st20" x1="55.03" y1="-6.74" x2="55.03" y2="97.99"/>
	<line class="st21" x1="63.24" y1="-6.74" x2="63.24" y2="97.99"/>
	<path class="st7" d="M55.03,28.47c0,1.06,0.27,1.88,0.81,2.47c0.54,0.58,1.35,0.88,2.44,0.88h4.76c0.09,0,0.16-0.03,0.21-0.08
		c0.05-0.05,0.08-0.12,0.08-0.2v-1.07c0-0.09-0.03-0.16-0.08-0.21c-0.05-0.05-0.12-0.08-0.21-0.08h-4.76
		c-0.62,0-1.08-0.15-1.39-0.44c-0.31-0.29-0.47-0.71-0.47-1.24c0-0.54,0.16-0.95,0.47-1.24c0.31-0.29,0.78-0.44,1.39-0.44h4.76
		c0.09,0,0.16-0.03,0.21-0.08c0.05-0.05,0.08-0.12,0.08-0.21v-1.07c0-0.09-0.03-0.15-0.08-0.2c-0.05-0.05-0.12-0.08-0.21-0.08h-4.76
		c-1.09,0-1.9,0.29-2.44,0.87C55.3,26.61,55.03,27.42,55.03,28.47z"/>
	<path class="st7" d="M43.38,9.01c-1.06,0-1.88-0.27-2.47-0.81c-0.58-0.54-0.88-1.35-0.88-2.44V1.01c0-0.09,0.03-0.16,0.08-0.21
		c0.05-0.05,0.12-0.08,0.2-0.08h1.07c0.09,0,0.16,0.03,0.21,0.08c0.05,0.05,0.08,0.12,0.08,0.21v4.75c0,0.62,0.15,1.08,0.44,1.39
		c0.29,0.31,0.71,0.47,1.24,0.47c0.54,0,0.95-0.16,1.24-0.47c0.29-0.31,0.44-0.78,0.44-1.39V1.01c0-0.09,0.03-0.16,0.08-0.21
		c0.05-0.05,0.12-0.08,0.21-0.08h1.07c0.09,0,0.15,0.03,0.2,0.08c0.05,0.05,0.08,0.12,0.08,0.21v4.75c0,1.09-0.29,1.9-0.87,2.44
		C45.25,8.74,44.44,9.01,43.38,9.01z"/>
	<path class="st7" d="M43.38,17.4c-1.06,0-1.88-0.27-2.47-0.81c-0.58-0.54-0.88-1.35-0.88-2.44V9.4c0-0.09,0.03-0.16,0.08-0.21
		c0.05-0.05,0.12-0.08,0.2-0.08h1.07c0.09,0,0.16,0.03,0.21,0.08c0.05,0.05,0.08,0.12,0.08,0.21v4.75c0,0.62,0.15,1.08,0.44,1.39
		c0.29,0.31,0.71,0.47,1.24,0.47c0.54,0,0.95-0.16,1.24-0.47c0.29-0.31,0.44-0.77,0.44-1.39V9.4c0-0.09,0.03-0.16,0.08-0.21
		c0.05-0.05,0.12-0.08,0.21-0.08h1.07c0.09,0,0.15,0.03,0.2,0.08c0.05,0.05,0.08,0.12,0.08,0.21v4.75c0,1.09-0.29,1.9-0.87,2.44
		C45.25,17.13,44.44,17.4,43.38,17.4z"/>
	<path class="st7" d="M0.59,36.63c0,1.06,0.27,1.88,0.81,2.47c0.54,0.58,1.35,0.88,2.44,0.88h4.75c0.09,0,0.16-0.03,0.21-0.08
		c0.05-0.05,0.08-0.12,0.08-0.2v-1.07c0-0.09-0.03-0.16-0.08-0.21c-0.05-0.05-0.12-0.08-0.21-0.08H3.84c-0.62,0-1.08-0.15-1.39-0.44
		c-0.31-0.29-0.47-0.71-0.47-1.24c0-0.54,0.16-0.95,0.47-1.24c0.31-0.29,0.78-0.44,1.39-0.44h4.75c0.09,0,0.16-0.03,0.21-0.08
		c0.05-0.05,0.08-0.12,0.08-0.21v-1.07c0-0.09-0.03-0.15-0.08-0.2c-0.05-0.05-0.12-0.08-0.21-0.08H3.84c-1.09,0-1.9,0.29-2.44,0.87
		C0.86,34.76,0.59,35.58,0.59,36.63z"/>
	<path class="st7" d="M0.59,36.63c0,1.06,0.27,1.88,0.81,2.47c0.54,0.58,1.35,0.88,2.44,0.88h4.75c0.09,0,0.16-0.03,0.21-0.08
		c0.05-0.05,0.08-0.12,0.08-0.2v-1.07c0-0.09-0.03-0.16-0.08-0.21c-0.05-0.05-0.12-0.08-0.21-0.08H3.84c-0.62,0-1.08-0.15-1.39-0.44
		c-0.31-0.29-0.47-0.71-0.47-1.24c0-0.54,0.16-0.95,0.47-1.24c0.31-0.29,0.78-0.44,1.39-0.44h4.75c0.09,0,0.16-0.03,0.21-0.08
		c0.05-0.05,0.08-0.12,0.08-0.21v-1.07c0-0.09-0.03-0.15-0.08-0.2c-0.05-0.05-0.12-0.08-0.21-0.08H3.84c-1.09,0-1.9,0.29-2.44,0.87
		C0.86,34.76,0.59,35.58,0.59,36.63z"/>
	<path class="st7" d="M8.98,36.63c0,1.06,0.27,1.88,0.81,2.47c0.54,0.58,1.35,0.88,2.44,0.88h4.75c0.09,0,0.16-0.03,0.21-0.08
		c0.05-0.05,0.08-0.12,0.08-0.2v-1.07c0-0.09-0.03-0.16-0.08-0.21c-0.05-0.05-0.12-0.08-0.21-0.08h-4.75
		c-0.62,0-1.08-0.15-1.39-0.44c-0.31-0.29-0.47-0.71-0.47-1.24c0-0.54,0.16-0.95,0.47-1.24c0.31-0.29,0.77-0.44,1.39-0.44h4.75
		c0.09,0,0.16-0.03,0.21-0.08c0.05-0.05,0.08-0.12,0.08-0.21v-1.07c0-0.09-0.03-0.15-0.08-0.2c-0.05-0.05-0.12-0.08-0.21-0.08h-4.75
		c-1.09,0-1.9,0.29-2.44,0.87C9.25,34.76,8.98,35.58,8.98,36.63z"/>
	<path class="st7" d="M8.98,36.63c0,1.06,0.27,1.88,0.81,2.47c0.54,0.58,1.35,0.88,2.44,0.88h4.75c0.09,0,0.16-0.03,0.21-0.08
		c0.05-0.05,0.08-0.12,0.08-0.2v-1.07c0-0.09-0.03-0.16-0.08-0.21c-0.05-0.05-0.12-0.08-0.21-0.08h-4.75
		c-0.62,0-1.08-0.15-1.39-0.44c-0.31-0.29-0.47-0.71-0.47-1.24c0-0.54,0.16-0.95,0.47-1.24c0.31-0.29,0.77-0.44,1.39-0.44h4.75
		c0.09,0,0.16-0.03,0.21-0.08c0.05-0.05,0.08-0.12,0.08-0.21v-1.07c0-0.09-0.03-0.15-0.08-0.2c-0.05-0.05-0.12-0.08-0.21-0.08h-4.75
		c-1.09,0-1.9,0.29-2.44,0.87C9.25,34.76,8.98,35.58,8.98,36.63z"/>
	<rect x="12.63" y="33.31" class="st22" width="3.42" height="1.65"/>
	<line class="st23" x1="0" y1="25.14" x2="254.16" y2="24.41"/>
	<line class="st23" x1="0" y1="17.39" x2="254.16" y2="16.65"/>
	<line class="st23" x1="0" y1="39.96" x2="254.16" y2="39.22"/>
	<line class="st23" x1="0.41" y1="41.73" x2="254.56" y2="41"/>
	<line class="st23" x1="0" y1="36.63" x2="254.16" y2="35.89"/>
	<line class="st23" x1="0" y1="33.3" x2="254.16" y2="32.56"/>
	<line class="st23" x1="0" y1="0.53" x2="254.16" y2="-0.21"/>
	<line class="st2" x1="0.29" y1="79.6" x2="254.86" y2="79.6"/>
	<line class="st2" x1="0.29" y1="48.76" x2="254.77" y2="48.76"/>
	<line class="st2" x1="0.29" y1="62.03" x2="254.71" y2="62.03"/>
	<line class="st2" x1="0.29" y1="69.07" x2="254.71" y2="69.07"/>
	<line class="st2" x1="0.29" y1="72.58" x2="254.71" y2="72.58"/>
	<line class="st2" x1="0.29" y1="57.1" x2="254.78" y2="57.1"/>
	<path class="st17" d="M42.21,48.81c1.1,0,1.97,0.27,2.59,0.8c0.63,0.54,0.94,1.34,0.94,2.41v4.75c0,0.09-0.03,0.16-0.08,0.22
		c-0.05,0.06-0.12,0.09-0.21,0.09h-1.6c-0.09,0-0.16-0.03-0.22-0.09c-0.06-0.06-0.09-0.13-0.09-0.22v-4.73
		c0-0.48-0.11-0.84-0.34-1.08c-0.23-0.24-0.56-0.36-0.98-0.36c-0.43,0-0.76,0.12-0.98,0.37c-0.23,0.24-0.34,0.6-0.34,1.08v4.73
		c0,0.09-0.03,0.16-0.09,0.22c-0.06,0.06-0.13,0.09-0.22,0.09H39c-0.09,0-0.16-0.03-0.22-0.09c-0.06-0.06-0.09-0.13-0.09-0.22v-4.75
		c0-1.07,0.31-1.88,0.93-2.41C40.25,49.08,41.11,48.81,42.21,48.81L42.21,48.81z"/>
	<path class="st17" d="M46.73,65.57c0,1.1-0.27,1.97-0.8,2.59c-0.54,0.63-1.34,0.94-2.41,0.94h-4.75c-0.09,0-0.16-0.03-0.22-0.08
		c-0.06-0.05-0.09-0.12-0.09-0.21v-1.6c0-0.09,0.03-0.16,0.09-0.22c0.06-0.06,0.13-0.09,0.22-0.09h4.73c0.48,0,0.84-0.11,1.08-0.34
		c0.24-0.23,0.36-0.56,0.36-0.98c0-0.43-0.12-0.76-0.37-0.98s-0.6-0.34-1.08-0.34h-4.73c-0.09,0-0.16-0.03-0.22-0.09
		c-0.06-0.06-0.09-0.13-0.09-0.22v-1.58c0-0.09,0.03-0.16,0.09-0.22c0.06-0.06,0.13-0.09,0.22-0.09h4.75c1.07,0,1.88,0.31,2.41,0.93
		C46.46,63.62,46.73,64.48,46.73,65.57L46.73,65.57z"/>
	<path class="st17" d="M42.64,70.83c0,0.55-0.13,0.98-0.4,1.3c-0.27,0.31-0.67,0.47-1.21,0.47h-2.38c-0.04,0-0.08-0.01-0.11-0.04
		s-0.04-0.06-0.04-0.1v-0.8c0-0.04,0.01-0.08,0.04-0.11c0.03-0.03,0.07-0.04,0.11-0.04h2.37c0.24,0,0.42-0.06,0.54-0.17
		c0.12-0.11,0.18-0.28,0.18-0.49c0-0.21-0.06-0.38-0.18-0.49c-0.12-0.11-0.3-0.17-0.54-0.17h-2.37c-0.04,0-0.08-0.01-0.11-0.04
		c-0.03-0.03-0.04-0.07-0.04-0.11v-0.79c0-0.04,0.01-0.08,0.04-0.11c0.03-0.03,0.07-0.04,0.11-0.04h2.38c0.54,0,0.94,0.16,1.21,0.47
		C42.51,69.85,42.64,70.28,42.64,70.83L42.64,70.83z"/>
	<path class="st17" d="M46.78,76.07c0,1.1-0.27,1.97-0.8,2.59c-0.54,0.63-1.34,0.94-2.41,0.94h-4.75c-0.09,0-0.16-0.03-0.22-0.08
		c-0.06-0.05-0.09-0.12-0.09-0.21v-1.6c0-0.09,0.03-0.16,0.09-0.22c0.06-0.06,0.13-0.09,0.22-0.09h4.73c0.48,0,0.84-0.11,1.08-0.34
		c0.24-0.23,0.36-0.56,0.36-0.98c0-0.43-0.12-0.76-0.37-0.98c-0.24-0.23-0.6-0.34-1.08-0.34h-4.73c-0.09,0-0.16-0.03-0.22-0.09
		c-0.06-0.06-0.09-0.13-0.09-0.22v-1.58c0-0.09,0.03-0.16,0.09-0.22c0.06-0.06,0.13-0.09,0.22-0.09h4.75c1.07,0,1.88,0.31,2.41,0.93
		C46.51,74.11,46.78,74.97,46.78,76.07L46.78,76.07z"/>
	<path class="st17" d="M96.19,45.14c0,1.13-0.28,2.01-0.83,2.65c-0.55,0.64-1.39,0.96-2.5,0.96h-4.92c-0.09,0-0.16-0.03-0.22-0.08
		c-0.06-0.06-0.09-0.13-0.09-0.21v-1.63c0-0.09,0.03-0.16,0.09-0.22c0.06-0.06,0.13-0.09,0.22-0.09h4.9c0.5,0,0.87-0.12,1.12-0.35
		c0.25-0.23,0.37-0.57,0.37-1.01c0-0.44-0.13-0.77-0.38-1.01c-0.25-0.23-0.63-0.35-1.12-0.35h-4.9c-0.09,0-0.16-0.03-0.22-0.09
		c-0.06-0.06-0.09-0.13-0.09-0.22v-1.62c0-0.09,0.03-0.16,0.09-0.22c0.06-0.06,0.13-0.09,0.22-0.09h4.92c1.11,0,1.94,0.32,2.5,0.95
		C95.91,43.15,96.19,44.03,96.19,45.14z"/>
	<g class="st5">
		<path class="st6" d="M72.86,88.93c-1.1,0-1.95,0.3-2.56,0.89c-0.61,0.6-0.91,1.5-0.91,2.7v5.27c0,0.09,0.03,0.17,0.08,0.23
			c0.05,0.06,0.12,0.09,0.21,0.09h1.12c0.09,0,0.16-0.03,0.22-0.09c0.06-0.06,0.09-0.14,0.09-0.23v-5.27c0-0.68,0.15-1.19,0.46-1.54
			c0.3-0.34,0.73-0.52,1.29-0.52c0.56,0,0.99,0.17,1.29,0.52c0.3,0.34,0.46,0.86,0.46,1.54v5.27c0,0.09,0.03,0.17,0.08,0.23
			c0.06,0.06,0.13,0.09,0.22,0.09h1.12c0.09,0,0.16-0.03,0.21-0.09c0.05-0.06,0.08-0.14,0.08-0.23v-5.27c0-1.21-0.3-2.11-0.9-2.7
			C74.8,89.23,73.96,88.93,72.86,88.93z"/>
		<path class="st6" d="M72.86,88.93c-1.1,0-1.95-0.3-2.56-0.89c-0.61-0.6-0.91-1.5-0.91-2.7v-5.27c0-0.1,0.03-0.17,0.08-0.23
			c0.05-0.06,0.12-0.09,0.21-0.09h1.12c0.09,0,0.16,0.03,0.22,0.09c0.06,0.06,0.09,0.14,0.09,0.23v5.27c0,0.68,0.15,1.19,0.46,1.54
			c0.3,0.34,0.73,0.52,1.29,0.52c0.56,0,0.99-0.17,1.29-0.52c0.3-0.34,0.46-0.86,0.46-1.54v-5.27c0-0.1,0.03-0.17,0.08-0.23
			c0.06-0.06,0.13-0.09,0.22-0.09h1.12c0.09,0,0.16,0.03,0.21,0.09c0.05,0.06,0.08,0.14,0.08,0.23v5.27c0,1.21-0.3,2.11-0.9,2.7
			C74.8,88.63,73.96,88.93,72.86,88.93z"/>
	</g>
	<g class="st5">
		<line class="st33" x1="232.46" y1="-7.08" x2="232.46" y2="97.3"/>
		<line class="st34" x1="241.12" y1="-7.08" x2="241.12" y2="97.3"/>
		<path class="st6" d="M232.44,65.84c0,1.1,0.28,1.96,0.84,2.57c0.56,0.61,1.41,0.91,2.54,0.91h4.95c0.09,0,0.16-0.03,0.22-0.08
			c0.06-0.05,0.09-0.12,0.09-0.21v-1.12c0-0.09-0.03-0.16-0.09-0.22c-0.06-0.06-0.13-0.09-0.22-0.09h-4.95
			c-0.64,0-1.12-0.15-1.45-0.46c-0.32-0.3-0.49-0.74-0.49-1.3c0-0.56,0.16-0.99,0.49-1.3c0.32-0.3,0.81-0.46,1.45-0.46h4.95
			c0.09,0,0.16-0.03,0.22-0.09c0.06-0.06,0.09-0.13,0.09-0.22v-1.12c0-0.09-0.03-0.16-0.09-0.21c-0.06-0.05-0.13-0.08-0.22-0.08
			h-4.95c-1.14,0-1.98,0.3-2.54,0.91C232.72,63.9,232.44,64.75,232.44,65.84z"/>
		<line class="st34" x1="249.76" y1="-7.17" x2="249.76" y2="97.2"/>
		<path class="st6" d="M241.08,65.75c0,1.1,0.28,1.96,0.84,2.57c0.56,0.61,1.41,0.91,2.54,0.91h4.95c0.09,0,0.16-0.03,0.22-0.08
			c0.06-0.05,0.09-0.12,0.09-0.21v-1.12c0-0.09-0.03-0.16-0.09-0.22c-0.06-0.06-0.13-0.09-0.22-0.09h-4.95
			c-0.64,0-1.12-0.15-1.45-0.46c-0.32-0.3-0.49-0.74-0.49-1.3c0-0.56,0.16-0.99,0.49-1.3c0.32-0.3,0.81-0.46,1.45-0.46h4.95
			c0.09,0,0.16-0.03,0.22-0.09c0.06-0.06,0.09-0.13,0.09-0.22v-1.12c0-0.09-0.03-0.16-0.09-0.21c-0.06-0.05-0.13-0.08-0.22-0.08
			h-4.95c-1.14,0-1.98,0.3-2.54,0.91C241.36,63.8,241.08,64.65,241.08,65.75z"/>
	</g>
</g>
<g id="Capa_2">
	<g>
		<path class="st0" d="M65.91,57.09c-0.09,0-0.16-0.03-0.22-0.09c-0.06-0.06-0.09-0.13-0.09-0.22v-5.77h-2.03
			c-0.09,0-0.16-0.03-0.22-0.09c-0.06-0.06-0.09-0.13-0.09-0.22v-1.58c0-0.09,0.03-0.16,0.09-0.22c0.06-0.06,0.13-0.09,0.22-0.09
			h6.64c0.09,0,0.16,0.03,0.22,0.09c0.06,0.06,0.09,0.13,0.09,0.22v1.58c0,0.09-0.03,0.16-0.09,0.22c-0.06,0.06-0.13,0.09-0.22,0.09
			h-2.03v5.77c0,0.09-0.03,0.16-0.09,0.22c-0.06,0.06-0.13,0.09-0.22,0.09H65.91z"/>
		<path class="st0" d="M71.78,57.09c-0.08,0-0.15-0.03-0.21-0.09c-0.06-0.06-0.09-0.13-0.09-0.22v-7.66c0-0.09,0.03-0.16,0.09-0.22
			c0.06-0.06,0.13-0.09,0.21-0.09h2.01c0.09,0,0.16,0.03,0.22,0.09c0.06,0.06,0.09,0.13,0.09,0.22v7.66c0,0.09-0.03,0.16-0.09,0.22
			c-0.06,0.06-0.13,0.09-0.22,0.09H71.78z"/>
		<path class="st0" d="M75.88,57.09c-0.08,0-0.15-0.03-0.21-0.09c-0.06-0.06-0.09-0.13-0.09-0.22v-7.66c0-0.09,0.03-0.16,0.09-0.22
			c0.06-0.06,0.13-0.09,0.21-0.09h3.24c0.76,0,1.43,0.12,1.99,0.37c0.56,0.25,1,0.61,1.32,1.09c0.32,0.48,0.5,1.07,0.52,1.77
			c0.02,0.34,0.02,0.64,0.02,0.9c0,0.26-0.01,0.56-0.02,0.89c-0.03,0.74-0.2,1.35-0.5,1.83c-0.3,0.48-0.73,0.84-1.28,1.07
			s-1.21,0.35-1.99,0.35H75.88z M78.11,55.08h1c0.26,0,0.48-0.04,0.66-0.13c0.18-0.09,0.32-0.22,0.43-0.41s0.16-0.42,0.17-0.72
			c0.01-0.23,0.01-0.43,0.02-0.61s0-0.36,0-0.54c0-0.18-0.01-0.38-0.02-0.6c-0.02-0.43-0.14-0.75-0.37-0.95s-0.55-0.3-0.94-0.3
			h-0.95V55.08z"/>
		<path class="st0" d="M84.48,57.09c-0.08,0-0.15-0.03-0.21-0.09c-0.06-0.06-0.09-0.13-0.09-0.22v-7.66c0-0.09,0.03-0.16,0.09-0.22
			c0.06-0.06,0.13-0.09,0.21-0.09h5.79c0.09,0,0.16,0.03,0.22,0.09c0.06,0.06,0.09,0.13,0.09,0.22v1.4c0,0.08-0.03,0.15-0.09,0.21
			c-0.06,0.06-0.14,0.09-0.22,0.09h-3.65v1.17h3.39c0.09,0,0.16,0.03,0.22,0.09c0.06,0.06,0.09,0.13,0.09,0.22v1.28
			c0,0.09-0.03,0.16-0.09,0.22c-0.06,0.06-0.14,0.09-0.22,0.09h-3.39v1.19h3.75c0.09,0,0.16,0.03,0.22,0.09
			c0.06,0.06,0.09,0.14,0.09,0.22v1.38c0,0.09-0.03,0.16-0.09,0.22c-0.06,0.06-0.14,0.09-0.22,0.09H84.48z"/>
		<path class="st0" d="M95.17,57.21c-0.83,0-1.52-0.12-2.06-0.35s-0.96-0.54-1.23-0.91c-0.27-0.37-0.42-0.77-0.43-1.19
			c0-0.07,0.02-0.13,0.07-0.18c0.05-0.05,0.11-0.07,0.18-0.07h1.88c0.11,0,0.2,0.02,0.26,0.05c0.06,0.04,0.13,0.08,0.2,0.15
			c0.07,0.09,0.15,0.17,0.25,0.24c0.09,0.08,0.22,0.13,0.37,0.18c0.15,0.04,0.32,0.06,0.52,0.06c0.36,0,0.64-0.05,0.84-0.15
			s0.3-0.23,0.3-0.41c0-0.13-0.05-0.24-0.16-0.33c-0.11-0.09-0.29-0.17-0.54-0.24c-0.25-0.07-0.6-0.15-1.03-0.22
			c-0.61-0.1-1.13-0.25-1.57-0.46c-0.44-0.2-0.78-0.47-1.01-0.82s-0.35-0.77-0.35-1.27c0-0.51,0.14-0.97,0.43-1.36
			s0.69-0.7,1.21-0.92c0.52-0.22,1.12-0.33,1.8-0.33c0.57,0,1.07,0.07,1.51,0.22c0.44,0.15,0.81,0.34,1.11,0.58
			c0.3,0.24,0.53,0.5,0.69,0.77c0.16,0.28,0.24,0.54,0.25,0.79c0,0.07-0.03,0.13-0.08,0.18c-0.05,0.05-0.11,0.08-0.17,0.08h-1.97
			c-0.09,0-0.17-0.02-0.24-0.05c-0.06-0.03-0.13-0.08-0.19-0.15c-0.04-0.11-0.14-0.21-0.3-0.3c-0.16-0.09-0.36-0.13-0.6-0.13
			c-0.27,0-0.47,0.05-0.62,0.14c-0.14,0.09-0.21,0.22-0.21,0.4c0,0.12,0.04,0.22,0.13,0.31c0.09,0.09,0.24,0.16,0.46,0.23
			c0.22,0.07,0.53,0.14,0.92,0.22c0.75,0.11,1.35,0.27,1.81,0.47s0.8,0.47,1.01,0.8s0.32,0.74,0.32,1.24c0,0.56-0.16,1.04-0.48,1.44
			c-0.32,0.4-0.77,0.71-1.33,0.93C96.54,57.1,95.89,57.21,95.17,57.21z"/>
	</g>
	<g>
		<path class="st0" d="M64.73,81.55c-0.06,0-0.11-0.02-0.15-0.06s-0.06-0.09-0.06-0.15c0-0.01,0-0.03,0-0.06
			c0-0.02,0.01-0.05,0.03-0.07l0.78-1.88l-1.92-4.54c-0.02-0.05-0.03-0.09-0.03-0.12c0.01-0.06,0.04-0.11,0.08-0.15
			c0.04-0.04,0.09-0.07,0.15-0.07h1.14c0.09,0,0.15,0.02,0.19,0.07c0.04,0.04,0.07,0.09,0.09,0.14l1.15,2.91l1.17-2.91
			c0.03-0.05,0.06-0.1,0.1-0.14c0.04-0.04,0.11-0.07,0.19-0.07h1.12c0.06,0,0.11,0.02,0.15,0.07c0.04,0.04,0.06,0.09,0.06,0.14
			c0,0.03-0.01,0.08-0.03,0.13l-2.83,6.55c-0.02,0.05-0.05,0.1-0.1,0.15s-0.11,0.06-0.2,0.06H64.73z"/>
		<path class="st0" d="M72.06,79.65c-0.07,0-0.13-0.02-0.18-0.07c-0.05-0.05-0.07-0.11-0.07-0.18v-6.5c0-0.07,0.02-0.13,0.07-0.18
			c0.05-0.05,0.11-0.07,0.18-0.07h2.6c0.65,0,1.21,0.1,1.67,0.31s0.81,0.52,1.06,0.92c0.25,0.4,0.38,0.9,0.4,1.5
			c0.01,0.29,0.01,0.55,0.01,0.77s0,0.47-0.01,0.76c-0.03,0.62-0.16,1.13-0.39,1.54c-0.24,0.41-0.58,0.71-1.03,0.91
			c-0.45,0.2-1,0.29-1.65,0.29H72.06z M73.6,78.21h1.06c0.29,0,0.53-0.04,0.72-0.14c0.19-0.09,0.33-0.23,0.43-0.42
			s0.15-0.45,0.16-0.76c0.01-0.19,0.02-0.37,0.03-0.52c0-0.15,0-0.31,0-0.46c0-0.15-0.01-0.32-0.03-0.51
			c-0.01-0.45-0.13-0.79-0.36-1c-0.22-0.21-0.55-0.31-0.99-0.31H73.6V78.21z"/>
		<path class="st0" d="M81.18,79.75c-0.79,0-1.41-0.21-1.88-0.64s-0.71-1.06-0.73-1.9c0-0.05,0-0.11,0-0.18c0-0.07,0-0.13,0-0.17
			c0.02-0.53,0.14-0.98,0.36-1.35c0.22-0.38,0.52-0.66,0.9-0.86s0.83-0.29,1.34-0.29c0.59,0,1.07,0.12,1.46,0.35
			c0.38,0.23,0.67,0.55,0.87,0.95s0.29,0.86,0.29,1.37v0.24c0,0.07-0.02,0.13-0.08,0.18c-0.05,0.05-0.11,0.07-0.17,0.07h-3.2
			c0,0.01,0,0.02,0,0.03s0,0.03,0,0.04c0.01,0.19,0.04,0.37,0.1,0.53s0.15,0.29,0.28,0.38c0.13,0.09,0.28,0.14,0.46,0.14
			c0.13,0,0.25-0.02,0.34-0.06s0.16-0.09,0.22-0.15s0.11-0.1,0.14-0.15c0.06-0.07,0.11-0.11,0.14-0.12
			c0.04-0.02,0.09-0.02,0.17-0.02h1.24c0.07,0,0.12,0.02,0.17,0.05c0.04,0.04,0.06,0.09,0.05,0.16c-0.01,0.11-0.06,0.25-0.17,0.41
			c-0.11,0.16-0.26,0.32-0.46,0.48s-0.46,0.29-0.77,0.39C81.94,79.7,81.59,79.75,81.18,79.75z M80.33,76.52h1.69V76.5
			c0-0.21-0.03-0.4-0.09-0.56c-0.06-0.16-0.16-0.28-0.29-0.37c-0.13-0.09-0.28-0.13-0.46-0.13c-0.18,0-0.33,0.04-0.46,0.13
			c-0.12,0.09-0.22,0.21-0.28,0.37c-0.07,0.16-0.1,0.35-0.1,0.56V76.52z"/>
		<path class="st0" d="M86.78,79.75c-0.43,0-0.8-0.05-1.11-0.15s-0.55-0.21-0.74-0.35c-0.19-0.14-0.33-0.29-0.42-0.44
			s-0.14-0.28-0.15-0.39c-0.01-0.07,0.02-0.13,0.07-0.18c0.05-0.05,0.11-0.08,0.17-0.08h1.14c0.02,0,0.04,0,0.05,0.01
			c0.01,0.01,0.03,0.02,0.06,0.04c0.09,0.05,0.17,0.1,0.26,0.18c0.09,0.07,0.19,0.13,0.3,0.19s0.25,0.08,0.41,0.08
			c0.19,0,0.34-0.04,0.47-0.11c0.13-0.07,0.19-0.18,0.19-0.33c0-0.11-0.03-0.19-0.09-0.26c-0.06-0.07-0.18-0.14-0.37-0.21
			c-0.18-0.07-0.46-0.13-0.82-0.2c-0.35-0.08-0.65-0.19-0.91-0.31s-0.46-0.3-0.6-0.51c-0.14-0.21-0.21-0.47-0.21-0.77
			c0-0.27,0.09-0.52,0.26-0.77c0.17-0.25,0.43-0.45,0.76-0.6s0.74-0.23,1.23-0.23c0.39,0,0.72,0.04,1.01,0.13
			c0.28,0.09,0.52,0.21,0.72,0.35c0.2,0.14,0.35,0.28,0.45,0.43c0.1,0.15,0.15,0.28,0.16,0.4c0.01,0.07-0.01,0.12-0.06,0.18
			c-0.05,0.05-0.1,0.07-0.16,0.07H87.8c-0.03,0-0.05,0-0.08-0.01c-0.03-0.01-0.05-0.02-0.07-0.04c-0.08-0.04-0.16-0.09-0.24-0.16
			c-0.08-0.07-0.17-0.13-0.28-0.18c-0.11-0.05-0.24-0.08-0.4-0.08c-0.18,0-0.32,0.04-0.42,0.12s-0.15,0.18-0.15,0.31
			c0,0.09,0.03,0.17,0.09,0.24s0.17,0.14,0.35,0.2s0.45,0.13,0.83,0.2c0.46,0.07,0.83,0.19,1.1,0.35c0.27,0.16,0.47,0.35,0.58,0.57
			s0.17,0.44,0.17,0.69c0,0.32-0.1,0.6-0.29,0.85c-0.19,0.25-0.47,0.44-0.85,0.58S87.31,79.75,86.78,79.75z"/>
		<path class="st0" d="M91.65,79.75c-0.36,0-0.68-0.07-0.96-0.21s-0.51-0.32-0.68-0.56c-0.17-0.23-0.25-0.5-0.25-0.79
			c0-0.47,0.19-0.85,0.58-1.12c0.39-0.28,0.9-0.46,1.54-0.56l1.25-0.19v-0.14c0-0.24-0.05-0.42-0.15-0.55
			c-0.1-0.13-0.28-0.19-0.55-0.19c-0.19,0-0.34,0.04-0.46,0.11c-0.12,0.07-0.21,0.17-0.27,0.3c-0.06,0.09-0.14,0.13-0.25,0.13h-1.12
			c-0.07,0-0.13-0.02-0.17-0.06c-0.04-0.04-0.06-0.1-0.05-0.16c0-0.12,0.04-0.26,0.14-0.42c0.09-0.16,0.23-0.31,0.41-0.46
			c0.19-0.15,0.43-0.28,0.72-0.38c0.29-0.1,0.65-0.15,1.06-0.15c0.43,0,0.8,0.05,1.11,0.15s0.55,0.24,0.74,0.42
			c0.19,0.18,0.33,0.39,0.43,0.63c0.09,0.24,0.14,0.51,0.14,0.81v3.04c0,0.07-0.02,0.13-0.08,0.18c-0.05,0.05-0.11,0.07-0.17,0.07
			h-1.16c-0.07,0-0.13-0.02-0.18-0.07c-0.05-0.05-0.07-0.11-0.07-0.18v-0.35c-0.09,0.13-0.2,0.24-0.35,0.35
			c-0.15,0.11-0.32,0.19-0.51,0.25C92.14,79.72,91.91,79.75,91.65,79.75z M92.12,78.61c0.19,0,0.37-0.04,0.52-0.12
			c0.16-0.08,0.28-0.21,0.37-0.39c0.09-0.18,0.13-0.4,0.13-0.67v-0.14l-0.85,0.15c-0.31,0.05-0.54,0.13-0.69,0.25
			c-0.14,0.11-0.21,0.24-0.21,0.38c0,0.11,0.03,0.21,0.1,0.29s0.15,0.14,0.26,0.19C91.87,78.59,91.99,78.61,92.12,78.61z"/>
		<path class="st0" d="M96.16,79.65c-0.07,0-0.13-0.02-0.18-0.07c-0.05-0.05-0.07-0.11-0.07-0.18v-4.7c0-0.07,0.02-0.12,0.07-0.17
			s0.11-0.08,0.18-0.08h1.15c0.07,0,0.13,0.03,0.18,0.08s0.07,0.11,0.07,0.17v0.4c0.18-0.21,0.39-0.37,0.64-0.48
			s0.53-0.17,0.85-0.17h0.44c0.07,0,0.12,0.02,0.18,0.07c0.05,0.05,0.07,0.11,0.07,0.18v1.03c0,0.07-0.03,0.12-0.07,0.17
			c-0.05,0.05-0.11,0.08-0.18,0.08h-0.97c-0.27,0-0.49,0.07-0.64,0.23c-0.15,0.15-0.22,0.36-0.22,0.63v2.56
			c0,0.07-0.03,0.13-0.07,0.18c-0.05,0.05-0.11,0.07-0.19,0.07H96.16z"/>
		<path class="st0" d="M100.62,79.65c-0.07,0-0.13-0.02-0.18-0.07c-0.05-0.05-0.07-0.11-0.07-0.18v-4.7c0-0.07,0.02-0.12,0.07-0.17
			c0.05-0.05,0.11-0.08,0.18-0.08h1.15c0.07,0,0.13,0.03,0.18,0.08s0.07,0.11,0.07,0.17v0.4c0.18-0.21,0.39-0.37,0.64-0.48
			s0.53-0.17,0.84-0.17h0.44c0.07,0,0.12,0.02,0.17,0.07c0.05,0.05,0.08,0.11,0.08,0.18v1.03c0,0.07-0.02,0.12-0.08,0.17
			c-0.05,0.05-0.11,0.08-0.17,0.08h-0.97c-0.27,0-0.49,0.07-0.63,0.23c-0.15,0.15-0.23,0.36-0.23,0.63v2.56
			c0,0.07-0.02,0.13-0.08,0.18c-0.05,0.05-0.11,0.07-0.18,0.07H100.62z"/>
		<path class="st0" d="M107.29,79.75c-0.56,0-1.03-0.09-1.42-0.27c-0.38-0.18-0.68-0.44-0.88-0.77c-0.2-0.34-0.32-0.74-0.34-1.21
			c-0.01-0.13-0.01-0.29-0.01-0.46s0-0.32,0.01-0.44c0.03-0.47,0.15-0.88,0.36-1.21c0.21-0.33,0.51-0.59,0.9-0.77
			c0.38-0.18,0.84-0.27,1.38-0.27c0.55,0,1.01,0.09,1.4,0.27c0.38,0.18,0.68,0.44,0.89,0.77c0.21,0.33,0.33,0.74,0.36,1.21
			c0.01,0.13,0.01,0.27,0.01,0.44s0,0.32-0.01,0.46c-0.03,0.47-0.14,0.87-0.34,1.21c-0.2,0.34-0.5,0.59-0.88,0.77
			C108.33,79.66,107.86,79.75,107.29,79.75z M107.29,78.53c0.3,0,0.52-0.09,0.66-0.27c0.14-0.18,0.21-0.45,0.23-0.81
			c0.01-0.1,0.01-0.23,0.01-0.4c0-0.17,0-0.3-0.01-0.4c-0.02-0.35-0.1-0.62-0.23-0.81c-0.14-0.18-0.36-0.27-0.66-0.27
			c-0.29,0-0.51,0.09-0.65,0.27c-0.14,0.18-0.22,0.45-0.23,0.81c-0.01,0.1-0.01,0.23-0.01,0.4c0,0.17,0,0.3,0.01,0.4
			c0.01,0.36,0.09,0.63,0.23,0.81C106.78,78.44,107,78.53,107.29,78.53z"/>
		<path class="st0" d="M111.1,79.65c-0.07,0-0.13-0.02-0.18-0.07c-0.05-0.05-0.07-0.11-0.07-0.18v-6.6c0-0.07,0.02-0.13,0.07-0.18
			c0.05-0.05,0.11-0.07,0.18-0.07h1.18c0.07,0,0.13,0.02,0.18,0.07c0.05,0.05,0.07,0.11,0.07,0.18v6.6c0,0.07-0.02,0.13-0.07,0.18
			c-0.05,0.05-0.11,0.07-0.18,0.07H111.1z"/>
		<path class="st0" d="M113.88,79.65c-0.07,0-0.13-0.02-0.18-0.07c-0.05-0.05-0.07-0.11-0.07-0.18v-6.6c0-0.07,0.02-0.13,0.07-0.18
			c0.05-0.05,0.11-0.07,0.18-0.07h1.18c0.07,0,0.13,0.02,0.18,0.07c0.05,0.05,0.07,0.11,0.07,0.18v6.6c0,0.07-0.02,0.13-0.07,0.18
			c-0.05,0.05-0.11,0.07-0.18,0.07H113.88z"/>
		<path class="st0" d="M118.87,79.75c-0.56,0-1.03-0.09-1.42-0.27c-0.38-0.18-0.68-0.44-0.88-0.77c-0.2-0.34-0.32-0.74-0.34-1.21
			c-0.01-0.13-0.01-0.29-0.01-0.46s0-0.32,0.01-0.44c0.03-0.47,0.15-0.88,0.36-1.21c0.21-0.33,0.51-0.59,0.9-0.77
			c0.38-0.18,0.84-0.27,1.38-0.27c0.55,0,1.01,0.09,1.4,0.27c0.38,0.18,0.68,0.44,0.89,0.77c0.21,0.33,0.33,0.74,0.36,1.21
			c0.01,0.13,0.01,0.27,0.01,0.44s0,0.32-0.01,0.46c-0.03,0.47-0.14,0.87-0.34,1.21c-0.2,0.34-0.5,0.59-0.88,0.77
			C119.91,79.66,119.44,79.75,118.87,79.75z M118.87,78.53c0.3,0,0.52-0.09,0.66-0.27c0.14-0.18,0.21-0.45,0.23-0.81
			c0.01-0.1,0.01-0.23,0.01-0.4c0-0.17,0-0.3-0.01-0.4c-0.02-0.35-0.1-0.62-0.23-0.81c-0.14-0.18-0.36-0.27-0.66-0.27
			c-0.29,0-0.51,0.09-0.65,0.27c-0.14,0.18-0.22,0.45-0.23,0.81c-0.01,0.1-0.01,0.23-0.01,0.4c0,0.17,0,0.3,0.01,0.4
			c0.01,0.36,0.09,0.63,0.23,0.81C118.36,78.44,118.58,78.53,118.87,78.53z"/>
		<path class="st0" d="M124.84,79.65c-0.07,0-0.13-0.02-0.18-0.07c-0.05-0.05-0.07-0.11-0.07-0.18v-6.5c0-0.07,0.02-0.13,0.07-0.18
			c0.05-0.05,0.11-0.07,0.18-0.07h4.67c0.07,0,0.13,0.02,0.18,0.07c0.05,0.05,0.07,0.11,0.07,0.18v0.94c0,0.07-0.02,0.13-0.07,0.18
			c-0.05,0.05-0.11,0.07-0.18,0.07h-3.19v1.35h2.97c0.07,0,0.13,0.02,0.18,0.08c0.05,0.05,0.07,0.11,0.07,0.18v0.87
			c0,0.07-0.02,0.12-0.07,0.18c-0.05,0.05-0.11,0.07-0.18,0.07h-2.97v1.39h3.27c0.07,0,0.13,0.02,0.18,0.07
			c0.05,0.05,0.07,0.11,0.07,0.18v0.94c0,0.07-0.02,0.13-0.07,0.18c-0.05,0.05-0.11,0.07-0.18,0.07H124.84z"/>
		<path class="st0" d="M133.18,79.75c-0.49,0-0.93-0.09-1.31-0.27c-0.38-0.18-0.68-0.44-0.9-0.79c-0.22-0.34-0.35-0.75-0.37-1.23
			c-0.01-0.11-0.01-0.24-0.01-0.41c0-0.16,0-0.3,0.01-0.4c0.02-0.49,0.14-0.9,0.36-1.25c0.22-0.34,0.52-0.6,0.91-0.78
			c0.38-0.18,0.82-0.27,1.31-0.27c0.46,0,0.85,0.06,1.18,0.19s0.59,0.29,0.8,0.48c0.21,0.19,0.36,0.39,0.46,0.6
			c0.1,0.2,0.16,0.38,0.16,0.53c0.01,0.07-0.02,0.12-0.07,0.18c-0.05,0.05-0.11,0.07-0.18,0.07h-1.27c-0.07,0-0.13-0.02-0.17-0.05
			c-0.04-0.03-0.08-0.08-0.11-0.15c-0.08-0.21-0.18-0.35-0.31-0.44c-0.12-0.09-0.28-0.13-0.48-0.13c-0.27,0-0.47,0.09-0.61,0.26
			s-0.22,0.44-0.24,0.8c-0.01,0.27-0.01,0.5,0,0.71c0.01,0.37,0.09,0.63,0.24,0.8s0.35,0.25,0.61,0.25c0.21,0,0.37-0.04,0.49-0.13
			c0.12-0.09,0.22-0.23,0.29-0.44c0.03-0.07,0.07-0.12,0.11-0.15c0.04-0.03,0.1-0.05,0.17-0.05h1.27c0.07,0,0.13,0.02,0.18,0.08
			c0.05,0.05,0.08,0.11,0.07,0.17c-0.01,0.11-0.04,0.25-0.1,0.4c-0.06,0.15-0.15,0.31-0.28,0.48c-0.13,0.17-0.29,0.32-0.5,0.46
			c-0.2,0.14-0.45,0.26-0.73,0.35C133.89,79.71,133.56,79.75,133.18,79.75z"/>
		<path class="st0" d="M139.07,79.75c-0.56,0-1.03-0.09-1.42-0.27c-0.38-0.18-0.68-0.44-0.88-0.77c-0.2-0.34-0.32-0.74-0.35-1.21
			c-0.01-0.13-0.01-0.29-0.01-0.46s0-0.32,0.01-0.44c0.03-0.47,0.15-0.88,0.36-1.21c0.21-0.33,0.51-0.59,0.9-0.77
			c0.38-0.18,0.84-0.27,1.38-0.27c0.55,0,1.01,0.09,1.39,0.27c0.38,0.18,0.68,0.44,0.89,0.77c0.21,0.33,0.33,0.74,0.36,1.21
			c0.01,0.13,0.01,0.27,0.01,0.44s0,0.32-0.01,0.46c-0.03,0.47-0.14,0.87-0.35,1.21c-0.2,0.34-0.5,0.59-0.88,0.77
			C140.11,79.66,139.64,79.75,139.07,79.75z M139.07,78.53c0.3,0,0.52-0.09,0.65-0.27c0.14-0.18,0.21-0.45,0.24-0.81
			c0.01-0.1,0.01-0.23,0.01-0.4c0-0.17,0-0.3-0.01-0.4c-0.02-0.35-0.1-0.62-0.24-0.81c-0.14-0.18-0.35-0.27-0.65-0.27
			c-0.29,0-0.51,0.09-0.65,0.27c-0.14,0.18-0.22,0.45-0.23,0.81c-0.01,0.1-0.01,0.23-0.01,0.4c0,0.17,0,0.3,0.01,0.4
			c0.01,0.36,0.09,0.63,0.23,0.81C138.56,78.44,138.78,78.53,139.07,78.53z"/>
		<path class="st0" d="M142.88,79.65c-0.07,0-0.13-0.02-0.18-0.07c-0.05-0.05-0.07-0.11-0.07-0.18v-4.7c0-0.07,0.02-0.13,0.07-0.18
			c0.05-0.05,0.11-0.07,0.18-0.07h1.15c0.07,0,0.13,0.02,0.18,0.07c0.05,0.05,0.07,0.11,0.07,0.18v0.38
			c0.17-0.21,0.4-0.38,0.68-0.52c0.28-0.14,0.61-0.21,0.99-0.21c0.39,0,0.73,0.09,1.03,0.26s0.53,0.43,0.7,0.77
			c0.17,0.34,0.26,0.75,0.26,1.23v2.79c0,0.07-0.03,0.13-0.08,0.18c-0.05,0.05-0.11,0.07-0.17,0.07h-1.26
			c-0.07,0-0.12-0.02-0.18-0.07c-0.05-0.05-0.07-0.11-0.07-0.18v-2.73c0-0.31-0.08-0.56-0.23-0.73c-0.15-0.17-0.37-0.25-0.67-0.25
			c-0.27,0-0.49,0.08-0.65,0.25c-0.16,0.17-0.25,0.41-0.25,0.73v2.73c0,0.07-0.02,0.13-0.07,0.18c-0.05,0.05-0.11,0.07-0.18,0.07
			H142.88z"/>
		<path class="st0" d="M151.43,79.75c-0.56,0-1.03-0.09-1.42-0.27c-0.38-0.18-0.68-0.44-0.88-0.77c-0.2-0.34-0.32-0.74-0.34-1.21
			c-0.01-0.13-0.01-0.29-0.01-0.46s0-0.32,0.01-0.44c0.03-0.47,0.15-0.88,0.36-1.21c0.21-0.33,0.51-0.59,0.89-0.77
			c0.38-0.18,0.84-0.27,1.38-0.27c0.55,0,1.01,0.09,1.39,0.27c0.38,0.18,0.68,0.44,0.9,0.77c0.21,0.33,0.33,0.74,0.36,1.21
			c0.01,0.13,0.01,0.27,0.01,0.44s0,0.32-0.01,0.46c-0.03,0.47-0.14,0.87-0.35,1.21c-0.2,0.34-0.5,0.59-0.88,0.77
			C152.47,79.66,152,79.75,151.43,79.75z M151.43,78.53c0.3,0,0.52-0.09,0.66-0.27c0.14-0.18,0.21-0.45,0.24-0.81
			c0.01-0.1,0.01-0.23,0.01-0.4c0-0.17,0-0.3-0.01-0.4c-0.02-0.35-0.1-0.62-0.24-0.81c-0.14-0.18-0.35-0.27-0.66-0.27
			c-0.29,0-0.51,0.09-0.65,0.27c-0.14,0.18-0.22,0.45-0.23,0.81c-0.01,0.1-0.01,0.23-0.01,0.4c0,0.17,0,0.3,0.01,0.4
			c0.01,0.36,0.09,0.63,0.23,0.81C150.92,78.44,151.14,78.53,151.43,78.53z M150.85,73.7c-0.11,0-0.16-0.05-0.16-0.16
			c0-0.05,0.02-0.1,0.05-0.13l0.88-1.07c0.07-0.08,0.12-0.13,0.17-0.15c0.05-0.02,0.11-0.04,0.2-0.04h1.31
			c0.13,0,0.19,0.07,0.19,0.2c0,0.05-0.02,0.09-0.05,0.12l-1.32,1.09c-0.05,0.05-0.11,0.08-0.16,0.1s-0.13,0.03-0.22,0.03H150.85z"
			/>
		<path class="st0" d="M155.24,79.65c-0.07,0-0.13-0.02-0.18-0.07c-0.05-0.05-0.07-0.11-0.07-0.18v-4.7c0-0.07,0.02-0.13,0.07-0.18
			c0.05-0.05,0.11-0.07,0.18-0.07h1.09c0.07,0,0.13,0.02,0.18,0.07c0.05,0.05,0.07,0.11,0.07,0.18v0.34
			c0.13-0.18,0.32-0.34,0.56-0.48c0.24-0.14,0.52-0.21,0.85-0.21c0.77-0.01,1.29,0.28,1.58,0.87c0.15-0.25,0.37-0.46,0.66-0.62
			c0.29-0.16,0.6-0.24,0.94-0.24c0.35,0,0.66,0.08,0.93,0.23s0.5,0.4,0.67,0.72c0.17,0.32,0.25,0.74,0.25,1.26v2.84
			c0,0.07-0.03,0.13-0.08,0.18c-0.05,0.05-0.11,0.07-0.17,0.07h-1.16c-0.07,0-0.13-0.02-0.19-0.07c-0.05-0.05-0.07-0.11-0.07-0.18
			v-2.77c0-0.23-0.03-0.42-0.1-0.56c-0.07-0.14-0.16-0.23-0.27-0.29s-0.24-0.09-0.39-0.09c-0.12,0-0.24,0.03-0.36,0.09
			s-0.21,0.16-0.28,0.29c-0.07,0.14-0.11,0.32-0.11,0.56v2.77c0,0.07-0.02,0.13-0.07,0.18c-0.05,0.05-0.11,0.07-0.18,0.07h-1.16
			c-0.07,0-0.13-0.02-0.18-0.07c-0.05-0.05-0.07-0.11-0.07-0.18v-2.77c0-0.23-0.04-0.42-0.11-0.56c-0.07-0.14-0.17-0.23-0.28-0.29
			s-0.24-0.09-0.38-0.09c-0.12,0-0.24,0.03-0.36,0.09s-0.21,0.16-0.28,0.29c-0.07,0.14-0.1,0.32-0.1,0.55v2.78
			c0,0.07-0.03,0.13-0.08,0.18c-0.05,0.05-0.11,0.07-0.18,0.07H155.24z"/>
		<path class="st0" d="M164.3,73.7c-0.07,0-0.13-0.02-0.18-0.07c-0.05-0.05-0.07-0.11-0.07-0.18v-0.89c0-0.07,0.02-0.14,0.07-0.19
			c0.05-0.05,0.11-0.08,0.18-0.08h1.19c0.07,0,0.13,0.02,0.18,0.08c0.05,0.05,0.08,0.11,0.08,0.19v0.89c0,0.07-0.02,0.13-0.08,0.18
			c-0.05,0.05-0.11,0.07-0.18,0.07H164.3z M164.31,79.65c-0.07,0-0.13-0.02-0.18-0.07c-0.05-0.05-0.07-0.11-0.07-0.18v-4.7
			c0-0.07,0.02-0.13,0.07-0.18c0.05-0.05,0.11-0.07,0.18-0.07h1.18c0.07,0,0.12,0.02,0.17,0.07c0.05,0.05,0.08,0.11,0.08,0.18v4.7
			c0,0.07-0.02,0.13-0.08,0.18c-0.05,0.05-0.11,0.07-0.17,0.07H164.31z"/>
		<path class="st0" d="M169.22,79.75c-0.49,0-0.93-0.09-1.31-0.27c-0.38-0.18-0.68-0.44-0.91-0.79c-0.22-0.34-0.34-0.75-0.37-1.23
			c-0.01-0.11-0.01-0.24-0.01-0.41c0-0.16,0-0.3,0.01-0.4c0.02-0.49,0.14-0.9,0.36-1.25c0.22-0.34,0.52-0.6,0.91-0.78
			c0.38-0.18,0.82-0.27,1.31-0.27c0.46,0,0.85,0.06,1.18,0.19c0.33,0.13,0.59,0.29,0.8,0.48s0.36,0.39,0.46,0.6
			c0.1,0.2,0.16,0.38,0.17,0.53c0.01,0.07-0.02,0.12-0.07,0.18c-0.05,0.05-0.11,0.07-0.18,0.07h-1.27c-0.07,0-0.13-0.02-0.17-0.05
			c-0.04-0.03-0.08-0.08-0.11-0.15c-0.08-0.21-0.18-0.35-0.3-0.44c-0.12-0.09-0.28-0.13-0.48-0.13c-0.27,0-0.47,0.09-0.61,0.26
			c-0.14,0.17-0.22,0.44-0.24,0.8c-0.01,0.27-0.01,0.5,0,0.71c0.01,0.37,0.09,0.63,0.24,0.8c0.14,0.17,0.35,0.25,0.61,0.25
			c0.21,0,0.37-0.04,0.49-0.13c0.12-0.09,0.22-0.23,0.29-0.44c0.03-0.07,0.07-0.12,0.11-0.15c0.04-0.03,0.1-0.05,0.17-0.05h1.27
			c0.07,0,0.13,0.02,0.18,0.08c0.05,0.05,0.08,0.11,0.07,0.17c-0.01,0.11-0.04,0.25-0.1,0.4s-0.15,0.31-0.28,0.48
			s-0.29,0.32-0.5,0.46c-0.2,0.14-0.45,0.26-0.74,0.35C169.93,79.71,169.6,79.75,169.22,79.75z"/>
		<path class="st0" d="M175.11,79.75c-0.56,0-1.03-0.09-1.42-0.27c-0.38-0.18-0.68-0.44-0.88-0.77c-0.2-0.34-0.32-0.74-0.35-1.21
			c-0.01-0.13-0.01-0.29-0.01-0.46s0-0.32,0.01-0.44c0.03-0.47,0.15-0.88,0.36-1.21c0.21-0.33,0.51-0.59,0.9-0.77
			c0.38-0.18,0.84-0.27,1.38-0.27c0.55,0,1.01,0.09,1.39,0.27c0.38,0.18,0.68,0.44,0.89,0.77c0.21,0.33,0.33,0.74,0.36,1.21
			c0.01,0.13,0.01,0.27,0.01,0.44s0,0.32-0.01,0.46c-0.03,0.47-0.14,0.87-0.35,1.21c-0.2,0.34-0.5,0.59-0.88,0.77
			C176.15,79.66,175.67,79.75,175.11,79.75z M175.11,78.53c0.3,0,0.52-0.09,0.65-0.27c0.14-0.18,0.21-0.45,0.24-0.81
			c0.01-0.1,0.01-0.23,0.01-0.4c0-0.17,0-0.3-0.01-0.4c-0.02-0.35-0.1-0.62-0.24-0.81c-0.14-0.18-0.35-0.27-0.65-0.27
			c-0.29,0-0.51,0.09-0.65,0.27c-0.14,0.18-0.22,0.45-0.23,0.81c-0.01,0.1-0.01,0.23-0.01,0.4c0,0.17,0,0.3,0.01,0.4
			c0.01,0.36,0.09,0.63,0.23,0.81C174.6,78.44,174.81,78.53,175.11,78.53z"/>
		<path class="st0" d="M183.44,79.75c-0.67,0-1.22-0.1-1.66-0.29c-0.44-0.19-0.77-0.44-1-0.75c-0.23-0.31-0.35-0.63-0.36-0.98
			c0-0.05,0.02-0.1,0.07-0.15c0.04-0.04,0.09-0.06,0.15-0.06h1.26c0.09,0,0.17,0.02,0.21,0.05c0.05,0.03,0.1,0.08,0.14,0.13
			c0.05,0.1,0.13,0.2,0.23,0.29c0.1,0.09,0.22,0.17,0.38,0.23s0.35,0.08,0.59,0.08c0.39,0,0.68-0.06,0.88-0.18
			c0.2-0.12,0.29-0.28,0.29-0.49c0-0.15-0.05-0.27-0.16-0.37c-0.11-0.1-0.28-0.18-0.52-0.26s-0.55-0.16-0.95-0.24
			c-0.51-0.11-0.94-0.25-1.29-0.42c-0.36-0.17-0.63-0.39-0.81-0.67c-0.19-0.28-0.28-0.62-0.28-1.04c0-0.41,0.11-0.77,0.34-1.09
			c0.23-0.32,0.55-0.57,0.96-0.75c0.41-0.18,0.9-0.27,1.47-0.27c0.46,0,0.87,0.06,1.21,0.18s0.64,0.28,0.88,0.48
			c0.24,0.2,0.42,0.41,0.54,0.63c0.12,0.22,0.19,0.44,0.2,0.66c0,0.05-0.02,0.1-0.06,0.15c-0.04,0.04-0.09,0.06-0.15,0.06h-1.32
			c-0.07,0-0.14-0.01-0.19-0.04c-0.05-0.03-0.1-0.07-0.14-0.13c-0.04-0.15-0.15-0.27-0.32-0.39c-0.17-0.11-0.39-0.17-0.67-0.17
			c-0.29,0-0.52,0.05-0.69,0.16c-0.16,0.1-0.24,0.26-0.24,0.48c0,0.13,0.04,0.25,0.13,0.35c0.09,0.1,0.24,0.19,0.45,0.26
			c0.21,0.07,0.5,0.15,0.87,0.23c0.61,0.11,1.1,0.25,1.47,0.42s0.65,0.39,0.82,0.66c0.17,0.27,0.26,0.61,0.26,1.02
			c0,0.45-0.13,0.84-0.38,1.17c-0.26,0.33-0.61,0.58-1.07,0.75C184.54,79.67,184.02,79.75,183.44,79.75z"/>
		<path class="st0" d="M189.72,79.75c-0.56,0-1.03-0.09-1.42-0.27c-0.38-0.18-0.68-0.44-0.88-0.77c-0.2-0.34-0.32-0.74-0.34-1.21
			c-0.01-0.13-0.01-0.29-0.01-0.46s0-0.32,0.01-0.44c0.03-0.47,0.15-0.88,0.36-1.21c0.21-0.33,0.51-0.59,0.89-0.77
			c0.38-0.18,0.84-0.27,1.38-0.27c0.55,0,1.01,0.09,1.39,0.27c0.38,0.18,0.68,0.44,0.9,0.77c0.21,0.33,0.33,0.74,0.36,1.21
			c0.01,0.13,0.01,0.27,0.01,0.44s0,0.32-0.01,0.46c-0.03,0.47-0.14,0.87-0.35,1.21c-0.2,0.34-0.5,0.59-0.88,0.77
			C190.76,79.66,190.28,79.75,189.72,79.75z M189.72,78.53c0.3,0,0.52-0.09,0.66-0.27c0.14-0.18,0.21-0.45,0.24-0.81
			c0.01-0.1,0.01-0.23,0.01-0.4c0-0.17,0-0.3-0.01-0.4c-0.02-0.35-0.1-0.62-0.24-0.81c-0.14-0.18-0.35-0.27-0.66-0.27
			c-0.29,0-0.51,0.09-0.65,0.27c-0.14,0.18-0.22,0.45-0.23,0.81c-0.01,0.1-0.01,0.23-0.01,0.4c0,0.17,0,0.3,0.01,0.4
			c0.01,0.36,0.09,0.63,0.23,0.81C189.21,78.44,189.42,78.53,189.72,78.53z"/>
		<path class="st0" d="M195.42,79.75c-0.43,0-0.8-0.05-1.1-0.15c-0.3-0.1-0.55-0.21-0.74-0.35c-0.19-0.14-0.33-0.29-0.43-0.44
			c-0.09-0.15-0.14-0.28-0.15-0.39c-0.01-0.07,0.02-0.13,0.07-0.18c0.05-0.05,0.11-0.08,0.17-0.08h1.14c0.02,0,0.04,0,0.05,0.01
			c0.01,0.01,0.03,0.02,0.06,0.04c0.09,0.05,0.17,0.1,0.26,0.18c0.09,0.07,0.19,0.13,0.3,0.19s0.25,0.08,0.41,0.08
			c0.19,0,0.34-0.04,0.47-0.11c0.13-0.07,0.19-0.18,0.19-0.33c0-0.11-0.03-0.19-0.09-0.26c-0.06-0.07-0.18-0.14-0.37-0.21
			c-0.18-0.07-0.46-0.13-0.83-0.2c-0.35-0.08-0.65-0.19-0.91-0.31c-0.26-0.13-0.46-0.3-0.6-0.51s-0.21-0.47-0.21-0.77
			c0-0.27,0.09-0.52,0.26-0.77s0.43-0.45,0.76-0.6c0.33-0.16,0.74-0.23,1.23-0.23c0.39,0,0.72,0.04,1,0.13
			c0.28,0.09,0.52,0.21,0.72,0.35c0.2,0.14,0.35,0.28,0.45,0.43c0.1,0.15,0.15,0.28,0.16,0.4c0.01,0.07-0.01,0.12-0.06,0.18
			c-0.05,0.05-0.1,0.07-0.16,0.07h-1.04c-0.03,0-0.05,0-0.08-0.01c-0.03-0.01-0.05-0.02-0.07-0.04c-0.08-0.04-0.16-0.09-0.24-0.16
			c-0.08-0.07-0.17-0.13-0.28-0.18c-0.11-0.05-0.24-0.08-0.4-0.08c-0.18,0-0.32,0.04-0.42,0.12s-0.15,0.18-0.15,0.31
			c0,0.09,0.03,0.17,0.08,0.24s0.17,0.14,0.35,0.2c0.18,0.06,0.45,0.13,0.82,0.2c0.46,0.07,0.83,0.19,1.1,0.35
			c0.27,0.16,0.47,0.35,0.58,0.57s0.17,0.44,0.17,0.69c0,0.32-0.09,0.6-0.29,0.85c-0.19,0.25-0.47,0.44-0.84,0.58
			S195.95,79.75,195.42,79.75z"/>
		<path class="st0" d="M201.39,79.65c-0.43,0-0.79-0.07-1.11-0.21c-0.31-0.14-0.55-0.35-0.71-0.64c-0.17-0.29-0.25-0.66-0.25-1.12
			v-1.92h-0.78c-0.07,0-0.13-0.02-0.19-0.07c-0.05-0.05-0.07-0.11-0.07-0.18V74.7c0-0.07,0.02-0.13,0.07-0.18
			c0.05-0.05,0.11-0.07,0.19-0.07h0.78V72.8c0-0.07,0.03-0.13,0.08-0.18c0.05-0.05,0.11-0.07,0.17-0.07h1.16
			c0.07,0,0.13,0.02,0.18,0.07c0.05,0.05,0.07,0.11,0.07,0.18v1.65h1.25c0.07,0,0.13,0.02,0.18,0.07c0.05,0.05,0.07,0.11,0.07,0.18
			v0.81c0,0.07-0.02,0.13-0.07,0.18c-0.05,0.05-0.11,0.07-0.18,0.07h-1.25v1.78c0,0.23,0.04,0.41,0.13,0.54
			c0.09,0.13,0.23,0.2,0.44,0.2h0.77c0.07,0,0.13,0.02,0.18,0.07c0.05,0.05,0.07,0.11,0.07,0.18v0.87c0,0.07-0.02,0.13-0.07,0.18
			c-0.05,0.05-0.11,0.07-0.18,0.07H201.39z"/>
		<path class="st0" d="M205.72,79.75c-0.79,0-1.41-0.21-1.88-0.64s-0.71-1.06-0.73-1.9c0-0.05,0-0.11,0-0.18c0-0.07,0-0.13,0-0.17
			c0.02-0.53,0.14-0.98,0.35-1.35c0.22-0.38,0.52-0.66,0.9-0.86s0.83-0.29,1.35-0.29c0.59,0,1.07,0.12,1.46,0.35
			c0.38,0.23,0.67,0.55,0.86,0.95s0.29,0.86,0.29,1.37v0.24c0,0.07-0.03,0.13-0.07,0.18c-0.05,0.05-0.11,0.07-0.18,0.07h-3.2
			c0,0.01,0,0.02,0,0.03s0,0.03,0,0.04c0.01,0.19,0.04,0.37,0.1,0.53c0.06,0.16,0.15,0.29,0.28,0.38c0.13,0.09,0.28,0.14,0.46,0.14
			c0.13,0,0.24-0.02,0.33-0.06s0.17-0.09,0.23-0.15s0.11-0.1,0.14-0.15c0.06-0.07,0.11-0.11,0.15-0.12
			c0.04-0.02,0.09-0.02,0.17-0.02h1.24c0.07,0,0.12,0.02,0.16,0.05c0.04,0.04,0.06,0.09,0.06,0.16c-0.01,0.11-0.06,0.25-0.17,0.41
			c-0.11,0.16-0.26,0.32-0.46,0.48c-0.2,0.16-0.46,0.29-0.76,0.39C206.48,79.7,206.12,79.75,205.72,79.75z M204.87,76.52h1.69V76.5
			c0-0.21-0.03-0.4-0.1-0.56c-0.06-0.16-0.16-0.28-0.29-0.37c-0.13-0.09-0.29-0.13-0.46-0.13c-0.18,0-0.33,0.04-0.46,0.13
			c-0.12,0.09-0.22,0.21-0.29,0.37s-0.1,0.35-0.1,0.56V76.52z"/>
		<path class="st0" d="M209.43,79.65c-0.07,0-0.13-0.02-0.18-0.07c-0.05-0.05-0.07-0.11-0.07-0.18v-4.7c0-0.07,0.02-0.13,0.07-0.18
			c0.05-0.05,0.11-0.07,0.18-0.07h1.15c0.07,0,0.13,0.02,0.18,0.07c0.05,0.05,0.07,0.11,0.07,0.18v0.38
			c0.17-0.21,0.4-0.38,0.68-0.52c0.28-0.14,0.61-0.21,0.99-0.21c0.39,0,0.73,0.09,1.02,0.26s0.53,0.43,0.7,0.77
			c0.17,0.34,0.25,0.75,0.25,1.23v2.79c0,0.07-0.02,0.13-0.07,0.18c-0.05,0.05-0.11,0.07-0.18,0.07h-1.26
			c-0.07,0-0.12-0.02-0.17-0.07c-0.05-0.05-0.08-0.11-0.08-0.18v-2.73c0-0.31-0.07-0.56-0.22-0.73s-0.37-0.25-0.67-0.25
			c-0.27,0-0.49,0.08-0.66,0.25c-0.16,0.17-0.25,0.41-0.25,0.73v2.73c0,0.07-0.02,0.13-0.08,0.18c-0.05,0.05-0.11,0.07-0.17,0.07
			H209.43z"/>
		<path class="st0" d="M215.76,73.7c-0.07,0-0.13-0.02-0.18-0.07c-0.05-0.05-0.07-0.11-0.07-0.18v-0.89c0-0.07,0.02-0.14,0.07-0.19
			c0.05-0.05,0.11-0.08,0.18-0.08h1.19c0.07,0,0.13,0.02,0.18,0.08c0.05,0.05,0.08,0.11,0.08,0.19v0.89c0,0.07-0.03,0.13-0.08,0.18
			c-0.05,0.05-0.11,0.07-0.18,0.07H215.76z M215.77,79.65c-0.07,0-0.13-0.02-0.18-0.07c-0.05-0.05-0.07-0.11-0.07-0.18v-4.7
			c0-0.07,0.02-0.13,0.07-0.18c0.05-0.05,0.11-0.07,0.18-0.07h1.18c0.07,0,0.12,0.02,0.17,0.07c0.05,0.05,0.08,0.11,0.08,0.18v4.7
			c0,0.07-0.03,0.13-0.08,0.18c-0.05,0.05-0.11,0.07-0.17,0.07H215.77z"/>
		<path class="st0" d="M221.47,79.75c-0.37,0-0.69-0.06-0.94-0.19c-0.25-0.13-0.46-0.29-0.61-0.48v0.32c0,0.07-0.03,0.13-0.08,0.18
			c-0.05,0.05-0.11,0.07-0.17,0.07h-1.13c-0.07,0-0.13-0.02-0.18-0.07c-0.05-0.05-0.07-0.11-0.07-0.18v-6.6
			c0-0.07,0.02-0.13,0.07-0.18c0.05-0.05,0.11-0.07,0.18-0.07h1.22c0.07,0,0.13,0.02,0.18,0.07c0.05,0.05,0.07,0.11,0.07,0.18v2.14
			c0.16-0.17,0.36-0.31,0.6-0.42c0.24-0.11,0.53-0.17,0.86-0.17c0.33,0,0.63,0.05,0.88,0.17c0.26,0.11,0.47,0.27,0.66,0.47
			c0.18,0.21,0.32,0.45,0.42,0.74s0.16,0.61,0.17,0.97c0.01,0.13,0.01,0.24,0.01,0.35s0,0.22-0.01,0.35c-0.01,0.37-0.07,0.71-0.17,1
			s-0.25,0.54-0.43,0.74c-0.18,0.2-0.4,0.36-0.65,0.46C222.09,79.7,221.8,79.75,221.47,79.75z M220.93,78.41
			c0.23,0,0.4-0.05,0.53-0.14s0.22-0.22,0.28-0.38c0.06-0.16,0.09-0.34,0.1-0.53c0.01-0.21,0.01-0.41,0-0.62
			c-0.01-0.19-0.05-0.37-0.1-0.53s-0.15-0.29-0.28-0.38s-0.3-0.14-0.53-0.14c-0.21,0-0.38,0.04-0.51,0.13
			c-0.13,0.09-0.23,0.21-0.3,0.35c-0.07,0.14-0.1,0.3-0.11,0.47C220,76.77,220,76.89,220,77.01c0,0.12,0,0.25,0.01,0.38
			c0.01,0.18,0.04,0.35,0.1,0.5c0.06,0.15,0.16,0.28,0.29,0.38C220.53,78.37,220.71,78.41,220.93,78.41z"/>
		<path class="st0" d="M224.77,79.65c-0.07,0-0.13-0.02-0.18-0.07c-0.05-0.05-0.07-0.11-0.07-0.18v-6.6c0-0.07,0.02-0.13,0.07-0.18
			c0.05-0.05,0.11-0.07,0.18-0.07h1.18c0.07,0,0.13,0.02,0.18,0.07c0.05,0.05,0.07,0.11,0.07,0.18v6.6c0,0.07-0.02,0.13-0.07,0.18
			c-0.05,0.05-0.11,0.07-0.18,0.07H224.77z"/>
		<path class="st0" d="M229.7,79.75c-0.79,0-1.41-0.21-1.88-0.64s-0.71-1.06-0.73-1.9c0-0.05,0-0.11,0-0.18c0-0.07,0-0.13,0-0.17
			c0.02-0.53,0.14-0.98,0.36-1.35c0.22-0.38,0.52-0.66,0.9-0.86c0.38-0.2,0.83-0.29,1.34-0.29c0.59,0,1.07,0.12,1.46,0.35
			c0.38,0.23,0.67,0.55,0.86,0.95s0.29,0.86,0.29,1.37v0.24c0,0.07-0.03,0.13-0.08,0.18c-0.05,0.05-0.11,0.07-0.17,0.07h-3.2
			c0,0.01,0,0.02,0,0.03s0,0.03,0,0.04c0.01,0.19,0.04,0.37,0.1,0.53c0.06,0.16,0.15,0.29,0.28,0.38c0.13,0.09,0.28,0.14,0.46,0.14
			c0.13,0,0.25-0.02,0.33-0.06s0.17-0.09,0.22-0.15c0.06-0.06,0.11-0.1,0.14-0.15c0.06-0.07,0.11-0.11,0.14-0.12s0.1-0.02,0.18-0.02
			h1.24c0.07,0,0.12,0.02,0.16,0.05s0.06,0.09,0.05,0.16c-0.01,0.11-0.06,0.25-0.17,0.41c-0.11,0.16-0.26,0.32-0.46,0.48
			s-0.46,0.29-0.76,0.39C230.46,79.7,230.1,79.75,229.7,79.75z M228.85,76.52h1.69V76.5c0-0.21-0.03-0.4-0.1-0.56
			s-0.16-0.28-0.29-0.37c-0.13-0.09-0.28-0.13-0.46-0.13s-0.33,0.04-0.46,0.13c-0.12,0.09-0.22,0.21-0.28,0.37
			c-0.07,0.16-0.1,0.35-0.1,0.56V76.52z"/>
	</g>
	<g>
		<path class="st0" d="M63.42,69.02c-0.07,0-0.12-0.02-0.17-0.07c-0.05-0.05-0.07-0.1-0.07-0.17v-6.46c0-0.07,0.02-0.12,0.07-0.17
			c0.05-0.05,0.1-0.07,0.17-0.07h0.93c0.07,0,0.13,0.02,0.17,0.07s0.06,0.1,0.06,0.17v6.46c0,0.07-0.02,0.12-0.06,0.17
			s-0.1,0.07-0.17,0.07H63.42z"/>
		<path class="st0" d="M66.18,69.02c-0.07,0-0.12-0.02-0.17-0.07s-0.07-0.1-0.07-0.17V64.1c0-0.07,0.02-0.12,0.07-0.17
			s0.1-0.07,0.17-0.07h0.81c0.07,0,0.12,0.02,0.17,0.07c0.05,0.05,0.07,0.1,0.07,0.17v0.41c0.17-0.21,0.39-0.39,0.66-0.53
			c0.27-0.14,0.6-0.21,1-0.21c0.4,0,0.75,0.09,1.05,0.27c0.3,0.18,0.53,0.44,0.69,0.77c0.16,0.33,0.24,0.73,0.24,1.19v2.79
			c0,0.07-0.02,0.12-0.07,0.17c-0.05,0.05-0.1,0.07-0.17,0.07h-0.87c-0.07,0-0.12-0.02-0.17-0.07s-0.07-0.1-0.07-0.17v-2.73
			c0-0.38-0.09-0.68-0.28-0.9c-0.19-0.22-0.46-0.33-0.82-0.33c-0.34,0-0.62,0.11-0.82,0.33c-0.21,0.22-0.31,0.52-0.31,0.9v2.73
			c0,0.07-0.02,0.12-0.07,0.17c-0.05,0.05-0.1,0.07-0.17,0.07H66.18z"/>
		<path class="st0" d="M74,69.12c-0.4,0-0.74-0.05-1.02-0.14c-0.28-0.09-0.51-0.21-0.69-0.35c-0.18-0.14-0.31-0.28-0.4-0.42
			c-0.09-0.14-0.13-0.25-0.14-0.35c-0.01-0.07,0.01-0.13,0.06-0.17c0.05-0.04,0.1-0.06,0.16-0.06h0.78c0.03,0,0.05,0,0.07,0.01
			c0.02,0.01,0.05,0.03,0.08,0.06c0.09,0.07,0.18,0.15,0.27,0.23s0.21,0.15,0.34,0.2c0.13,0.06,0.3,0.08,0.5,0.08
			c0.26,0,0.47-0.05,0.65-0.15c0.17-0.1,0.26-0.25,0.26-0.44c0-0.14-0.04-0.25-0.11-0.34c-0.08-0.09-0.22-0.16-0.42-0.23
			c-0.21-0.07-0.5-0.14-0.87-0.22c-0.37-0.09-0.68-0.19-0.92-0.33c-0.24-0.13-0.43-0.3-0.54-0.5s-0.18-0.43-0.18-0.69
			c0-0.26,0.08-0.5,0.23-0.74c0.16-0.23,0.39-0.43,0.69-0.58c0.31-0.15,0.69-0.23,1.14-0.23c0.36,0,0.67,0.04,0.93,0.13
			c0.26,0.09,0.48,0.2,0.66,0.33s0.31,0.27,0.4,0.4c0.09,0.14,0.14,0.25,0.15,0.35c0.01,0.07-0.01,0.13-0.06,0.17
			c-0.05,0.04-0.1,0.06-0.16,0.06h-0.73c-0.03,0-0.06-0.01-0.09-0.02c-0.03-0.01-0.05-0.03-0.08-0.05
			c-0.07-0.07-0.15-0.14-0.24-0.21c-0.09-0.07-0.19-0.14-0.31-0.19s-0.28-0.08-0.48-0.08c-0.25,0-0.44,0.05-0.58,0.16
			s-0.2,0.25-0.2,0.41c0,0.11,0.03,0.21,0.09,0.29c0.06,0.08,0.19,0.16,0.38,0.23c0.19,0.07,0.48,0.15,0.87,0.23
			c0.44,0.08,0.79,0.2,1.06,0.35c0.26,0.16,0.45,0.33,0.56,0.54c0.11,0.2,0.16,0.42,0.16,0.67c0,0.3-0.09,0.56-0.26,0.8
			c-0.17,0.24-0.43,0.42-0.77,0.56C74.92,69.05,74.5,69.12,74,69.12z"/>
		<path class="st0" d="M79.57,69.02c-0.4,0-0.73-0.07-1-0.21c-0.27-0.14-0.47-0.35-0.6-0.62c-0.13-0.27-0.2-0.62-0.2-1.03v-2.25
			h-0.78c-0.07,0-0.12-0.02-0.17-0.07c-0.05-0.05-0.07-0.1-0.07-0.17V64.1c0-0.07,0.02-0.12,0.07-0.17c0.05-0.05,0.1-0.07,0.17-0.07
			h0.78v-1.65c0-0.07,0.02-0.12,0.06-0.17s0.1-0.07,0.17-0.07h0.8c0.07,0,0.12,0.02,0.17,0.07s0.07,0.1,0.07,0.17v1.65h1.24
			c0.07,0,0.12,0.02,0.17,0.07c0.05,0.05,0.07,0.1,0.07,0.17v0.57c0,0.07-0.02,0.12-0.07,0.17c-0.05,0.05-0.1,0.07-0.17,0.07h-1.24
			v2.15c0,0.27,0.05,0.48,0.14,0.63c0.1,0.15,0.26,0.23,0.5,0.23h0.68c0.07,0,0.12,0.02,0.17,0.07c0.05,0.05,0.07,0.1,0.07,0.17
			v0.61c0,0.07-0.02,0.12-0.07,0.17s-0.1,0.07-0.17,0.07H79.57z"/>
		<path class="st0" d="M81.61,63.01c-0.07,0-0.13-0.02-0.17-0.06s-0.06-0.1-0.06-0.17v-0.71c0-0.07,0.02-0.12,0.06-0.17
			s0.1-0.07,0.17-0.07h0.9c0.07,0,0.13,0.02,0.18,0.07c0.05,0.05,0.07,0.1,0.07,0.17v0.71c0,0.07-0.02,0.13-0.07,0.17
			c-0.05,0.04-0.11,0.06-0.18,0.06H81.61z M81.65,69.02c-0.07,0-0.12-0.02-0.17-0.07s-0.07-0.1-0.07-0.17V64.1
			c0-0.07,0.02-0.12,0.07-0.17s0.1-0.07,0.17-0.07h0.82c0.07,0,0.13,0.02,0.17,0.07s0.06,0.1,0.06,0.17v4.68
			c0,0.07-0.02,0.12-0.06,0.17s-0.1,0.07-0.17,0.07H81.65z"/>
		<path class="st0" d="M86.28,69.02c-0.4,0-0.73-0.07-1-0.21c-0.27-0.14-0.47-0.35-0.6-0.62c-0.13-0.27-0.2-0.62-0.2-1.03v-2.25
			H83.7c-0.07,0-0.12-0.02-0.17-0.07c-0.05-0.05-0.07-0.1-0.07-0.17V64.1c0-0.07,0.02-0.12,0.07-0.17c0.05-0.05,0.1-0.07,0.17-0.07
			h0.78v-1.65c0-0.07,0.02-0.12,0.06-0.17s0.1-0.07,0.17-0.07h0.8c0.07,0,0.12,0.02,0.17,0.07s0.07,0.1,0.07,0.17v1.65H87
			c0.07,0,0.12,0.02,0.17,0.07c0.05,0.05,0.07,0.1,0.07,0.17v0.57c0,0.07-0.02,0.12-0.07,0.17c-0.05,0.05-0.1,0.07-0.17,0.07h-1.24
			v2.15c0,0.27,0.05,0.48,0.14,0.63c0.1,0.15,0.26,0.23,0.5,0.23h0.68c0.07,0,0.12,0.02,0.17,0.07c0.05,0.05,0.07,0.1,0.07,0.17
			v0.61c0,0.07-0.02,0.12-0.07,0.17s-0.1,0.07-0.17,0.07H86.28z"/>
		<path class="st0" d="M90.04,69.12c-0.4,0-0.75-0.09-1.05-0.27s-0.52-0.44-0.68-0.77c-0.16-0.33-0.24-0.73-0.24-1.18V64.1
			c0-0.07,0.02-0.12,0.07-0.17s0.1-0.07,0.17-0.07h0.87c0.07,0,0.13,0.02,0.17,0.07s0.06,0.1,0.06,0.17v2.73
			c0,0.82,0.36,1.23,1.08,1.23c0.34,0,0.62-0.11,0.82-0.33c0.2-0.22,0.3-0.52,0.3-0.9V64.1c0-0.07,0.02-0.12,0.07-0.17
			s0.1-0.07,0.17-0.07h0.87c0.07,0,0.12,0.02,0.17,0.07c0.05,0.05,0.07,0.1,0.07,0.17v4.68c0,0.07-0.02,0.12-0.07,0.17
			c-0.05,0.05-0.1,0.07-0.17,0.07h-0.8c-0.07,0-0.13-0.02-0.17-0.07s-0.06-0.1-0.06-0.17v-0.41c-0.18,0.23-0.4,0.41-0.66,0.55
			S90.44,69.12,90.04,69.12z"/>
		<path class="st0" d="M96.53,69.02c-0.4,0-0.73-0.07-1-0.21c-0.27-0.14-0.47-0.35-0.6-0.62c-0.13-0.27-0.2-0.62-0.2-1.03v-2.25
			h-0.78c-0.07,0-0.12-0.02-0.17-0.07c-0.05-0.05-0.07-0.1-0.07-0.17V64.1c0-0.07,0.02-0.12,0.07-0.17c0.05-0.05,0.1-0.07,0.17-0.07
			h0.78v-1.65c0-0.07,0.02-0.12,0.06-0.17s0.1-0.07,0.17-0.07h0.8c0.07,0,0.12,0.02,0.17,0.07s0.07,0.1,0.07,0.17v1.65h1.24
			c0.07,0,0.12,0.02,0.17,0.07c0.05,0.05,0.07,0.1,0.07,0.17v0.57c0,0.07-0.02,0.12-0.07,0.17c-0.05,0.05-0.1,0.07-0.17,0.07h-1.24
			v2.15c0,0.27,0.05,0.48,0.14,0.63c0.1,0.15,0.26,0.23,0.5,0.23h0.68c0.07,0,0.12,0.02,0.17,0.07c0.05,0.05,0.07,0.1,0.07,0.17
			v0.61c0,0.07-0.02,0.12-0.07,0.17s-0.1,0.07-0.17,0.07H96.53z"/>
		<path class="st0" d="M100.66,69.12c-0.53,0-0.97-0.09-1.33-0.28c-0.36-0.19-0.63-0.45-0.82-0.78s-0.3-0.73-0.32-1.18
			c-0.01-0.12-0.01-0.26-0.01-0.44s0-0.32,0.01-0.44c0.03-0.46,0.14-0.85,0.33-1.18c0.19-0.33,0.47-0.59,0.83-0.78
			c0.36-0.19,0.8-0.28,1.31-0.28c0.52,0,0.95,0.09,1.31,0.28s0.64,0.44,0.83,0.78c0.2,0.33,0.31,0.73,0.33,1.18
			c0.01,0.12,0.01,0.26,0.01,0.44s0,0.32-0.01,0.44c-0.03,0.45-0.13,0.84-0.32,1.18s-0.46,0.6-0.82,0.78
			C101.63,69.03,101.18,69.12,100.66,69.12z M100.66,68.14c0.35,0,0.62-0.11,0.81-0.33c0.19-0.22,0.3-0.55,0.32-0.98
			c0.01-0.1,0.01-0.23,0.01-0.39s0-0.29-0.01-0.39c-0.02-0.42-0.13-0.75-0.32-0.97c-0.19-0.22-0.46-0.34-0.81-0.34
			c-0.35,0-0.62,0.11-0.81,0.34s-0.3,0.55-0.32,0.97c-0.01,0.1-0.01,0.23-0.01,0.39s0,0.29,0.01,0.39c0.02,0.43,0.13,0.75,0.32,0.98
			C100.03,68.03,100.31,68.14,100.66,68.14z"/>
		<path class="st0" d="M109.24,69.12c-0.58,0-1.07-0.1-1.5-0.29s-0.75-0.5-0.98-0.9c-0.23-0.41-0.35-0.93-0.35-1.56v-4.03
			c0-0.07,0.02-0.13,0.07-0.18c0.05-0.05,0.1-0.07,0.17-0.07h0.9c0.07,0,0.13,0.02,0.17,0.07s0.06,0.11,0.06,0.18v4.03
			c0,0.54,0.13,0.94,0.39,1.2c0.26,0.26,0.61,0.39,1.06,0.39c0.45,0,0.8-0.13,1.06-0.39c0.25-0.26,0.38-0.66,0.38-1.2v-4.03
			c0-0.07,0.02-0.13,0.07-0.18c0.05-0.05,0.11-0.07,0.18-0.07h0.89c0.07,0,0.13,0.02,0.17,0.07s0.06,0.11,0.06,0.18v4.03
			c0,0.63-0.11,1.15-0.34,1.56c-0.23,0.41-0.55,0.71-0.97,0.9C110.32,69.02,109.82,69.12,109.24,69.12z"/>
		<path class="st0" d="M113.58,69.02c-0.07,0-0.12-0.02-0.17-0.07s-0.07-0.1-0.07-0.17V64.1c0-0.07,0.02-0.12,0.07-0.17
			s0.1-0.07,0.17-0.07h0.81c0.07,0,0.12,0.02,0.17,0.07c0.05,0.05,0.07,0.1,0.07,0.17v0.41c0.17-0.21,0.39-0.39,0.66-0.53
			c0.27-0.14,0.6-0.21,1-0.21c0.4,0,0.75,0.09,1.05,0.27c0.3,0.18,0.53,0.44,0.69,0.77c0.16,0.33,0.24,0.73,0.24,1.19v2.79
			c0,0.07-0.02,0.12-0.07,0.17c-0.05,0.05-0.1,0.07-0.17,0.07h-0.87c-0.07,0-0.12-0.02-0.17-0.07s-0.07-0.1-0.07-0.17v-2.73
			c0-0.38-0.09-0.68-0.28-0.9c-0.19-0.22-0.46-0.33-0.82-0.33c-0.34,0-0.62,0.11-0.82,0.33c-0.21,0.22-0.31,0.52-0.31,0.9v2.73
			c0,0.07-0.02,0.12-0.07,0.17c-0.05,0.05-0.1,0.07-0.17,0.07H113.58z"/>
		<path class="st0" d="M119.65,63.01c-0.07,0-0.13-0.02-0.17-0.06s-0.06-0.1-0.06-0.17v-0.71c0-0.07,0.02-0.12,0.06-0.17
			s0.1-0.07,0.17-0.07h0.9c0.07,0,0.13,0.02,0.18,0.07c0.05,0.05,0.07,0.1,0.07,0.17v0.71c0,0.07-0.02,0.13-0.07,0.17
			c-0.05,0.04-0.11,0.06-0.18,0.06H119.65z M119.69,69.02c-0.07,0-0.12-0.02-0.17-0.07s-0.07-0.1-0.07-0.17V64.1
			c0-0.07,0.02-0.12,0.07-0.17s0.1-0.07,0.17-0.07h0.82c0.07,0,0.13,0.02,0.17,0.07s0.06,0.1,0.06,0.17v4.68
			c0,0.07-0.02,0.12-0.06,0.17s-0.1,0.07-0.17,0.07H119.69z"/>
		<path class="st0" d="M123.81,69.02c-0.11,0-0.18-0.02-0.23-0.07c-0.05-0.05-0.09-0.11-0.12-0.17l-1.85-4.6
			c-0.01-0.03-0.02-0.06-0.02-0.09c0-0.06,0.02-0.11,0.06-0.15s0.09-0.06,0.15-0.06h0.8c0.08,0,0.14,0.02,0.18,0.06
			s0.07,0.08,0.08,0.12l1.32,3.48l1.32-3.48c0.01-0.04,0.04-0.08,0.08-0.12c0.04-0.04,0.1-0.06,0.18-0.06h0.81
			c0.05,0,0.1,0.02,0.14,0.06c0.04,0.04,0.06,0.09,0.06,0.15c0,0.03,0,0.06-0.01,0.09l-1.86,4.6c-0.03,0.07-0.07,0.12-0.12,0.17
			c-0.05,0.05-0.13,0.07-0.24,0.07H123.81z"/>
		<path class="st0" d="M129.82,69.12c-0.73,0-1.32-0.21-1.75-0.63s-0.66-1.02-0.69-1.8c-0.01-0.07-0.01-0.15-0.01-0.25
			c0-0.1,0-0.18,0.01-0.24c0.03-0.5,0.14-0.93,0.34-1.29c0.2-0.36,0.48-0.64,0.84-0.84c0.36-0.19,0.78-0.29,1.26-0.29
			c0.54,0,0.98,0.11,1.35,0.33s0.64,0.53,0.82,0.92c0.19,0.39,0.28,0.85,0.28,1.36v0.21c0,0.07-0.02,0.12-0.07,0.17
			c-0.05,0.05-0.11,0.07-0.18,0.07h-3.29c0,0.04,0,0.07,0,0.08c0.01,0.23,0.05,0.44,0.13,0.64c0.08,0.2,0.21,0.35,0.37,0.47
			c0.16,0.12,0.35,0.18,0.58,0.18c0.19,0,0.34-0.03,0.47-0.08c0.13-0.06,0.23-0.12,0.31-0.19s0.14-0.13,0.17-0.18
			c0.06-0.08,0.11-0.13,0.14-0.14s0.09-0.02,0.16-0.02h0.85c0.07,0,0.12,0.02,0.16,0.06s0.06,0.09,0.05,0.15
			c-0.01,0.11-0.06,0.23-0.16,0.39c-0.1,0.15-0.25,0.3-0.44,0.45c-0.19,0.15-0.43,0.27-0.72,0.36
			C130.52,69.07,130.19,69.12,129.82,69.12z M128.73,66h2.19v-0.03c0-0.26-0.04-0.48-0.13-0.67c-0.09-0.19-0.21-0.34-0.38-0.46
			c-0.17-0.11-0.36-0.17-0.59-0.17c-0.23,0-0.43,0.06-0.59,0.17c-0.17,0.11-0.29,0.26-0.37,0.46c-0.08,0.19-0.12,0.42-0.12,0.67V66z
			"/>
		<path class="st0" d="M133.47,69.02c-0.07,0-0.12-0.02-0.17-0.07s-0.07-0.1-0.07-0.17v-4.67c0-0.07,0.02-0.13,0.07-0.18
			s0.1-0.07,0.17-0.07h0.8c0.07,0,0.12,0.02,0.17,0.07c0.05,0.05,0.07,0.11,0.07,0.18v0.41c0.15-0.21,0.35-0.37,0.59-0.49
			s0.52-0.17,0.84-0.17h0.41c0.07,0,0.13,0.02,0.17,0.07s0.06,0.1,0.06,0.17v0.71c0,0.07-0.02,0.12-0.06,0.17s-0.1,0.07-0.17,0.07
			h-0.77c-0.32,0-0.56,0.09-0.74,0.27c-0.17,0.18-0.26,0.42-0.26,0.73v2.73c0,0.07-0.02,0.12-0.07,0.17
			c-0.05,0.05-0.11,0.07-0.18,0.07H133.47z"/>
		<path class="st0" d="M139.24,69.12c-0.4,0-0.74-0.05-1.02-0.14c-0.28-0.09-0.51-0.21-0.69-0.35c-0.18-0.14-0.31-0.28-0.4-0.42
			c-0.09-0.14-0.13-0.25-0.14-0.35c-0.01-0.07,0.01-0.13,0.06-0.17c0.05-0.04,0.1-0.06,0.16-0.06h0.78c0.03,0,0.05,0,0.07,0.01
			c0.02,0.01,0.05,0.03,0.08,0.06c0.09,0.07,0.18,0.15,0.27,0.23s0.21,0.15,0.34,0.2c0.13,0.06,0.3,0.08,0.5,0.08
			c0.26,0,0.47-0.05,0.65-0.15c0.17-0.1,0.26-0.25,0.26-0.44c0-0.14-0.04-0.25-0.11-0.34c-0.08-0.09-0.22-0.16-0.42-0.23
			c-0.21-0.07-0.5-0.14-0.87-0.22c-0.37-0.09-0.68-0.19-0.92-0.33c-0.24-0.13-0.43-0.3-0.54-0.5s-0.18-0.43-0.18-0.69
			c0-0.26,0.08-0.5,0.23-0.74c0.16-0.23,0.39-0.43,0.69-0.58c0.31-0.15,0.69-0.23,1.14-0.23c0.36,0,0.67,0.04,0.93,0.13
			c0.26,0.09,0.48,0.2,0.66,0.33s0.31,0.27,0.4,0.4c0.09,0.14,0.14,0.25,0.15,0.35c0.01,0.07-0.01,0.13-0.06,0.17
			c-0.05,0.04-0.1,0.06-0.16,0.06h-0.73c-0.03,0-0.06-0.01-0.09-0.02c-0.03-0.01-0.05-0.03-0.08-0.05
			c-0.07-0.07-0.15-0.14-0.24-0.21c-0.09-0.07-0.19-0.14-0.31-0.19s-0.28-0.08-0.48-0.08c-0.25,0-0.44,0.05-0.58,0.16
			s-0.2,0.25-0.2,0.41c0,0.11,0.03,0.21,0.09,0.29c0.06,0.08,0.19,0.16,0.38,0.23c0.19,0.07,0.48,0.15,0.87,0.23
			c0.44,0.08,0.79,0.2,1.06,0.35c0.26,0.16,0.45,0.33,0.56,0.54c0.11,0.2,0.16,0.42,0.16,0.67c0,0.3-0.09,0.56-0.26,0.8
			c-0.17,0.24-0.43,0.42-0.77,0.56C140.17,69.05,139.75,69.12,139.24,69.12z"/>
		<path class="st0" d="M142.68,63.01c-0.07,0-0.13-0.02-0.17-0.06s-0.06-0.1-0.06-0.17v-0.71c0-0.07,0.02-0.12,0.06-0.17
			s0.1-0.07,0.17-0.07h0.9c0.07,0,0.13,0.02,0.18,0.07c0.05,0.05,0.07,0.1,0.07,0.17v0.71c0,0.07-0.02,0.13-0.07,0.17
			c-0.05,0.04-0.11,0.06-0.18,0.06H142.68z M142.72,69.02c-0.07,0-0.12-0.02-0.17-0.07s-0.07-0.1-0.07-0.17V64.1
			c0-0.07,0.02-0.12,0.07-0.17s0.1-0.07,0.17-0.07h0.82c0.07,0,0.13,0.02,0.17,0.07s0.06,0.1,0.06,0.17v4.68
			c0,0.07-0.02,0.12-0.06,0.17s-0.1,0.07-0.17,0.07H142.72z"/>
		<path class="st0" d="M147.35,69.02c-0.4,0-0.73-0.07-1-0.21c-0.27-0.14-0.47-0.35-0.6-0.62c-0.13-0.27-0.2-0.62-0.2-1.03v-2.25
			h-0.78c-0.07,0-0.12-0.02-0.17-0.07c-0.05-0.05-0.07-0.1-0.07-0.17V64.1c0-0.07,0.02-0.12,0.07-0.17c0.05-0.05,0.1-0.07,0.17-0.07
			h0.78v-1.65c0-0.07,0.02-0.12,0.06-0.17s0.1-0.07,0.17-0.07h0.8c0.07,0,0.12,0.02,0.17,0.07s0.07,0.1,0.07,0.17v1.65h1.24
			c0.07,0,0.12,0.02,0.17,0.07c0.05,0.05,0.07,0.1,0.07,0.17v0.57c0,0.07-0.02,0.12-0.07,0.17c-0.05,0.05-0.1,0.07-0.17,0.07h-1.24
			v2.15c0,0.27,0.05,0.48,0.14,0.63c0.1,0.15,0.26,0.23,0.5,0.23h0.68c0.07,0,0.12,0.02,0.17,0.07c0.05,0.05,0.07,0.1,0.07,0.17
			v0.61c0,0.07-0.02,0.12-0.07,0.17s-0.1,0.07-0.17,0.07H147.35z"/>
		<path class="st0" d="M150.69,69.12c-0.34,0-0.65-0.07-0.93-0.2c-0.28-0.14-0.5-0.32-0.66-0.55c-0.16-0.23-0.24-0.48-0.24-0.77
			c0-0.46,0.19-0.83,0.56-1.1c0.37-0.27,0.87-0.46,1.48-0.55l1.36-0.2v-0.21c0-0.28-0.07-0.49-0.21-0.64s-0.38-0.23-0.71-0.23
			c-0.24,0-0.43,0.05-0.58,0.14c-0.15,0.1-0.26,0.22-0.33,0.38c-0.05,0.09-0.13,0.13-0.23,0.13h-0.78c-0.07,0-0.13-0.02-0.16-0.06
			c-0.04-0.04-0.05-0.09-0.05-0.16c0.01-0.11,0.05-0.23,0.13-0.39c0.08-0.15,0.21-0.3,0.38-0.44c0.17-0.14,0.39-0.26,0.66-0.36
			c0.27-0.1,0.6-0.15,0.98-0.15c0.42,0,0.77,0.05,1.06,0.15c0.29,0.1,0.52,0.24,0.69,0.41s0.3,0.37,0.38,0.6
			c0.08,0.23,0.12,0.48,0.12,0.73v3.11c0,0.07-0.02,0.12-0.07,0.17c-0.05,0.05-0.1,0.07-0.17,0.07h-0.8c-0.07,0-0.13-0.02-0.17-0.07
			s-0.06-0.1-0.06-0.17v-0.39c-0.09,0.13-0.2,0.24-0.35,0.35c-0.15,0.11-0.32,0.2-0.53,0.27S150.98,69.12,150.69,69.12z
			 M151.03,68.18c0.23,0,0.44-0.05,0.63-0.15s0.34-0.25,0.45-0.46s0.16-0.47,0.16-0.79v-0.21l-0.99,0.16
			c-0.39,0.06-0.68,0.16-0.87,0.29c-0.19,0.13-0.29,0.29-0.29,0.49c0,0.15,0.04,0.27,0.13,0.37c0.09,0.1,0.2,0.18,0.34,0.23
			C150.73,68.15,150.88,68.18,151.03,68.18z"/>
		<path class="st0" d="M155.01,69.02c-0.07,0-0.12-0.02-0.17-0.07s-0.07-0.1-0.07-0.17v-4.67c0-0.07,0.02-0.13,0.07-0.18
			s0.1-0.07,0.17-0.07h0.8c0.07,0,0.12,0.02,0.17,0.07c0.05,0.05,0.07,0.11,0.07,0.18v0.41c0.15-0.21,0.35-0.37,0.59-0.49
			s0.52-0.17,0.84-0.17h0.41c0.07,0,0.13,0.02,0.17,0.07s0.06,0.1,0.06,0.17v0.71c0,0.07-0.02,0.12-0.06,0.17s-0.1,0.07-0.17,0.07
			h-0.77c-0.32,0-0.56,0.09-0.74,0.27c-0.17,0.18-0.26,0.42-0.26,0.73v2.73c0,0.07-0.02,0.12-0.07,0.17
			c-0.05,0.05-0.11,0.07-0.18,0.07H155.01z"/>
		<path class="st0" d="M159.03,63.01c-0.07,0-0.13-0.02-0.17-0.06s-0.06-0.1-0.06-0.17v-0.71c0-0.07,0.02-0.12,0.06-0.17
			s0.1-0.07,0.17-0.07h0.9c0.07,0,0.13,0.02,0.18,0.07c0.05,0.05,0.07,0.1,0.07,0.17v0.71c0,0.07-0.02,0.13-0.07,0.17
			c-0.05,0.04-0.11,0.06-0.18,0.06H159.03z M159.07,69.02c-0.07,0-0.12-0.02-0.17-0.07s-0.07-0.1-0.07-0.17V64.1
			c0-0.07,0.02-0.12,0.07-0.17s0.1-0.07,0.17-0.07h0.82c0.07,0,0.13,0.02,0.17,0.07s0.06,0.1,0.06,0.17v4.68
			c0,0.07-0.02,0.12-0.06,0.17s-0.1,0.07-0.17,0.07H159.07z"/>
		<path class="st0" d="M163.65,69.12c-0.53,0-0.97-0.09-1.33-0.28c-0.36-0.19-0.63-0.45-0.82-0.78s-0.3-0.73-0.32-1.18
			c-0.01-0.12-0.01-0.26-0.01-0.44s0-0.32,0.01-0.44c0.03-0.46,0.14-0.85,0.33-1.18c0.19-0.33,0.47-0.59,0.83-0.78
			c0.36-0.19,0.8-0.28,1.31-0.28c0.52,0,0.95,0.09,1.31,0.28s0.64,0.44,0.83,0.78c0.2,0.33,0.31,0.73,0.33,1.18
			c0.01,0.12,0.01,0.26,0.01,0.44s0,0.32-0.01,0.44c-0.03,0.45-0.13,0.84-0.32,1.18s-0.46,0.6-0.82,0.78
			C164.62,69.03,164.18,69.12,163.65,69.12z M163.65,68.14c0.35,0,0.62-0.11,0.81-0.33c0.19-0.22,0.3-0.55,0.32-0.98
			c0.01-0.1,0.01-0.23,0.01-0.39s0-0.29-0.01-0.39c-0.02-0.42-0.13-0.75-0.32-0.97c-0.19-0.22-0.46-0.34-0.81-0.34
			c-0.35,0-0.62,0.11-0.81,0.34s-0.3,0.55-0.32,0.97c-0.01,0.1-0.01,0.23-0.01,0.39s0,0.29,0.01,0.39c0.02,0.43,0.13,0.75,0.32,0.98
			C163.03,68.03,163.3,68.14,163.65,68.14z"/>
		<path class="st0" d="M171.26,69.12c-0.34,0-0.65-0.06-0.91-0.17c-0.26-0.12-0.48-0.28-0.65-0.49s-0.3-0.46-0.4-0.75
			s-0.15-0.6-0.16-0.95c-0.01-0.12-0.01-0.23-0.01-0.32s0-0.2,0.01-0.32c0.01-0.33,0.06-0.64,0.15-0.92
			c0.09-0.28,0.22-0.53,0.4-0.75c0.17-0.21,0.39-0.38,0.65-0.5c0.26-0.12,0.56-0.18,0.91-0.18c0.36,0,0.66,0.06,0.91,0.18
			c0.25,0.12,0.45,0.28,0.62,0.47v-2.2c0-0.07,0.02-0.12,0.06-0.17s0.1-0.07,0.17-0.07h0.84c0.07,0,0.12,0.02,0.17,0.07
			s0.07,0.1,0.07,0.17v6.56c0,0.07-0.02,0.12-0.07,0.17s-0.1,0.07-0.17,0.07h-0.78c-0.07,0-0.13-0.02-0.17-0.07s-0.06-0.1-0.06-0.17
			v-0.37c-0.17,0.2-0.38,0.37-0.63,0.51C171.96,69.05,171.64,69.12,171.26,69.12z M171.63,68.06c0.28,0,0.5-0.06,0.67-0.19
			c0.17-0.13,0.29-0.29,0.37-0.48s0.12-0.4,0.13-0.6c0.01-0.12,0.01-0.25,0.01-0.38s0-0.26-0.01-0.38c-0.01-0.2-0.05-0.39-0.14-0.57
			s-0.21-0.33-0.38-0.45c-0.17-0.12-0.38-0.18-0.64-0.18c-0.28,0-0.5,0.06-0.66,0.18c-0.16,0.12-0.28,0.28-0.35,0.48
			c-0.07,0.2-0.12,0.42-0.13,0.65c-0.01,0.2-0.01,0.4,0,0.59c0.01,0.24,0.06,0.46,0.13,0.65c0.07,0.2,0.19,0.36,0.35,0.48
			C171.13,68,171.35,68.06,171.63,68.06z"/>
		<path class="st0" d="M177.56,69.12c-0.73,0-1.32-0.21-1.75-0.63s-0.66-1.02-0.69-1.8c-0.01-0.07-0.01-0.15-0.01-0.25
			c0-0.1,0-0.18,0.01-0.24c0.03-0.5,0.14-0.93,0.34-1.29c0.2-0.36,0.48-0.64,0.84-0.84c0.36-0.19,0.78-0.29,1.26-0.29
			c0.54,0,0.98,0.11,1.35,0.33s0.64,0.53,0.82,0.92c0.19,0.39,0.28,0.85,0.28,1.36v0.21c0,0.07-0.02,0.12-0.07,0.17
			c-0.05,0.05-0.11,0.07-0.18,0.07h-3.29c0,0.04,0,0.07,0,0.08c0.01,0.23,0.05,0.44,0.13,0.64c0.08,0.2,0.21,0.35,0.37,0.47
			c0.16,0.12,0.35,0.18,0.58,0.18c0.19,0,0.34-0.03,0.47-0.08c0.13-0.06,0.23-0.12,0.31-0.19s0.14-0.13,0.17-0.18
			c0.06-0.08,0.11-0.13,0.14-0.14s0.09-0.02,0.16-0.02h0.85c0.07,0,0.12,0.02,0.16,0.06s0.06,0.09,0.05,0.15
			c-0.01,0.11-0.06,0.23-0.16,0.39c-0.1,0.15-0.25,0.3-0.44,0.45c-0.19,0.15-0.43,0.27-0.72,0.36
			C178.26,69.07,177.93,69.12,177.56,69.12z M176.47,66h2.19v-0.03c0-0.26-0.04-0.48-0.13-0.67c-0.09-0.19-0.21-0.34-0.38-0.46
			c-0.17-0.11-0.36-0.17-0.59-0.17c-0.23,0-0.43,0.06-0.59,0.17c-0.17,0.11-0.29,0.26-0.37,0.46c-0.08,0.19-0.12,0.42-0.12,0.67V66z
			"/>
		<path class="st0" d="M185.01,69.02c-0.07,0-0.13-0.02-0.18-0.07c-0.05-0.05-0.07-0.11-0.07-0.18v-5.18h-1.78
			c-0.07,0-0.13-0.02-0.18-0.07c-0.05-0.05-0.07-0.11-0.07-0.18v-1.07c0-0.07,0.02-0.13,0.07-0.18c0.05-0.05,0.11-0.07,0.18-0.07
			h5.38c0.07,0,0.13,0.02,0.18,0.07c0.05,0.05,0.07,0.11,0.07,0.18v1.07c0,0.07-0.02,0.12-0.07,0.18c-0.05,0.05-0.11,0.07-0.18,0.07
			h-1.78v5.18c0,0.07-0.02,0.13-0.07,0.18c-0.05,0.05-0.11,0.07-0.18,0.07H185.01z"/>
		<path class="st0" d="M191.24,69.12c-0.38,0-0.72-0.09-1.01-0.26c-0.3-0.17-0.53-0.43-0.7-0.76c-0.17-0.34-0.25-0.75-0.25-1.24
			v-2.79c0-0.07,0.02-0.13,0.07-0.18c0.05-0.05,0.11-0.07,0.18-0.07h1.25c0.07,0,0.13,0.02,0.18,0.07c0.05,0.05,0.07,0.11,0.07,0.18
			v2.73c0,0.65,0.29,0.98,0.88,0.98c0.27,0,0.49-0.08,0.66-0.25c0.16-0.17,0.25-0.41,0.25-0.73v-2.73c0-0.07,0.02-0.13,0.07-0.18
			c0.05-0.05,0.11-0.07,0.18-0.07h1.25c0.07,0,0.13,0.02,0.18,0.07c0.05,0.05,0.07,0.11,0.07,0.18v4.7c0,0.07-0.02,0.13-0.07,0.18
			c-0.05,0.05-0.11,0.07-0.18,0.07h-1.16c-0.07,0-0.12-0.02-0.17-0.07c-0.05-0.05-0.08-0.11-0.08-0.18v-0.38
			c-0.17,0.24-0.4,0.42-0.67,0.54C191.95,69.06,191.62,69.12,191.24,69.12z"/>
		<path class="st0" d="M195.91,69.02c-0.07,0-0.13-0.02-0.18-0.07c-0.05-0.05-0.07-0.11-0.07-0.18v-4.7c0-0.07,0.02-0.12,0.07-0.17
			s0.11-0.08,0.18-0.08h1.15c0.07,0,0.13,0.03,0.18,0.08s0.07,0.11,0.07,0.17v0.4c0.18-0.21,0.39-0.37,0.64-0.48
			s0.53-0.17,0.85-0.17h0.44c0.07,0,0.12,0.02,0.17,0.07c0.05,0.05,0.08,0.11,0.08,0.18v1.03c0,0.07-0.03,0.12-0.08,0.17
			c-0.05,0.05-0.11,0.08-0.17,0.08h-0.97c-0.27,0-0.49,0.07-0.63,0.23c-0.15,0.15-0.23,0.36-0.23,0.63v2.56
			c0,0.07-0.02,0.13-0.08,0.18c-0.05,0.05-0.11,0.07-0.18,0.07H195.91z"/>
		<path class="st0" d="M200.36,63.07c-0.07,0-0.13-0.02-0.18-0.07c-0.05-0.05-0.07-0.11-0.07-0.18v-0.89c0-0.07,0.02-0.14,0.07-0.19
			c0.05-0.05,0.11-0.08,0.18-0.08h1.19c0.07,0,0.14,0.02,0.19,0.08c0.05,0.05,0.08,0.11,0.08,0.19v0.89c0,0.07-0.03,0.13-0.08,0.18
			c-0.05,0.05-0.11,0.07-0.19,0.07H200.36z M200.37,69.02c-0.07,0-0.13-0.02-0.18-0.07c-0.05-0.05-0.07-0.11-0.07-0.18v-4.7
			c0-0.07,0.02-0.13,0.07-0.18c0.05-0.05,0.11-0.07,0.18-0.07h1.18c0.07,0,0.12,0.02,0.18,0.07c0.05,0.05,0.07,0.11,0.07,0.18v4.7
			c0,0.07-0.02,0.13-0.07,0.18c-0.05,0.05-0.11,0.07-0.18,0.07H200.37z"/>
		<path class="st0" d="M205.03,69.12c-0.43,0-0.8-0.05-1.11-0.15s-0.55-0.21-0.74-0.35c-0.19-0.14-0.33-0.29-0.42-0.44
			s-0.14-0.28-0.15-0.39c-0.01-0.07,0.02-0.13,0.07-0.18c0.05-0.05,0.11-0.08,0.17-0.08h1.14c0.02,0,0.04,0,0.05,0.01
			c0.01,0.01,0.03,0.02,0.06,0.04c0.09,0.05,0.17,0.1,0.26,0.18c0.09,0.07,0.19,0.13,0.3,0.19c0.11,0.05,0.25,0.08,0.41,0.08
			c0.19,0,0.34-0.04,0.47-0.11c0.13-0.07,0.19-0.18,0.19-0.33c0-0.11-0.03-0.19-0.09-0.26c-0.06-0.07-0.18-0.14-0.37-0.21
			c-0.18-0.07-0.46-0.13-0.82-0.2c-0.35-0.08-0.65-0.19-0.91-0.31s-0.46-0.3-0.6-0.51c-0.14-0.21-0.21-0.47-0.21-0.77
			c0-0.27,0.09-0.52,0.26-0.77c0.17-0.25,0.43-0.45,0.76-0.6c0.33-0.16,0.74-0.23,1.23-0.23c0.39,0,0.72,0.04,1,0.13
			c0.28,0.09,0.52,0.21,0.72,0.35c0.2,0.14,0.34,0.28,0.44,0.43c0.1,0.15,0.15,0.28,0.16,0.4c0.01,0.07-0.01,0.12-0.06,0.18
			c-0.05,0.05-0.1,0.07-0.16,0.07h-1.04c-0.03,0-0.05,0-0.08-0.01c-0.03-0.01-0.05-0.02-0.07-0.04c-0.08-0.04-0.16-0.09-0.24-0.16
			c-0.08-0.07-0.17-0.13-0.28-0.18s-0.24-0.08-0.4-0.08c-0.18,0-0.32,0.04-0.42,0.12c-0.1,0.08-0.15,0.18-0.15,0.31
			c0,0.09,0.03,0.17,0.08,0.24s0.17,0.14,0.35,0.2s0.45,0.13,0.83,0.2c0.46,0.07,0.83,0.19,1.1,0.35c0.27,0.16,0.47,0.35,0.58,0.57
			s0.17,0.44,0.17,0.69c0,0.32-0.09,0.6-0.29,0.85c-0.19,0.25-0.47,0.44-0.84,0.58S205.57,69.12,205.03,69.12z"/>
		<path class="st0" d="M208.59,69.02c-0.07,0-0.13-0.02-0.18-0.07c-0.05-0.05-0.07-0.11-0.07-0.18v-4.7c0-0.07,0.02-0.13,0.07-0.18
			c0.05-0.05,0.11-0.07,0.18-0.07h1.09c0.07,0,0.13,0.02,0.18,0.07c0.05,0.05,0.07,0.11,0.07,0.18v0.34
			c0.13-0.18,0.32-0.34,0.56-0.48s0.52-0.21,0.85-0.21c0.77-0.01,1.29,0.28,1.58,0.87c0.15-0.25,0.37-0.46,0.66-0.62
			c0.29-0.16,0.6-0.24,0.94-0.24c0.35,0,0.66,0.08,0.94,0.23s0.5,0.4,0.67,0.72c0.17,0.32,0.25,0.74,0.25,1.26v2.84
			c0,0.07-0.03,0.13-0.08,0.18c-0.05,0.05-0.11,0.07-0.17,0.07h-1.16c-0.07,0-0.13-0.02-0.18-0.07c-0.05-0.05-0.08-0.11-0.08-0.18
			V66c0-0.23-0.03-0.42-0.1-0.56c-0.07-0.14-0.16-0.23-0.27-0.29s-0.24-0.09-0.39-0.09c-0.12,0-0.24,0.03-0.36,0.09
			s-0.21,0.16-0.28,0.29c-0.07,0.14-0.1,0.32-0.1,0.56v2.77c0,0.07-0.02,0.13-0.07,0.18c-0.05,0.05-0.11,0.07-0.18,0.07h-1.16
			c-0.07,0-0.13-0.02-0.18-0.07c-0.05-0.05-0.07-0.11-0.07-0.18V66c0-0.23-0.04-0.42-0.11-0.56c-0.07-0.14-0.17-0.23-0.28-0.29
			c-0.11-0.06-0.24-0.09-0.38-0.09c-0.12,0-0.24,0.03-0.35,0.09c-0.12,0.06-0.21,0.16-0.28,0.29c-0.07,0.14-0.1,0.32-0.1,0.55v2.78
			c0,0.07-0.03,0.13-0.08,0.18c-0.05,0.05-0.11,0.07-0.19,0.07H208.59z"/>
		<path class="st0" d="M219.87,69.12c-0.56,0-1.03-0.09-1.42-0.27c-0.38-0.18-0.68-0.44-0.88-0.77c-0.2-0.34-0.32-0.74-0.34-1.21
			c-0.01-0.13-0.01-0.29-0.01-0.46s0-0.32,0.01-0.44c0.03-0.47,0.15-0.88,0.36-1.21c0.21-0.33,0.51-0.59,0.9-0.77
			c0.38-0.18,0.84-0.27,1.38-0.27c0.55,0,1.01,0.09,1.4,0.27c0.38,0.18,0.68,0.44,0.89,0.77c0.21,0.33,0.33,0.74,0.36,1.21
			c0.01,0.13,0.01,0.27,0.01,0.44s0,0.32-0.01,0.46c-0.03,0.47-0.14,0.87-0.34,1.21c-0.2,0.34-0.5,0.59-0.88,0.77
			C220.92,69.03,220.44,69.12,219.87,69.12z M219.87,67.9c0.3,0,0.52-0.09,0.66-0.27c0.14-0.18,0.21-0.45,0.24-0.81
			c0.01-0.1,0.01-0.23,0.01-0.4c0-0.17,0-0.3-0.01-0.4c-0.02-0.35-0.1-0.62-0.24-0.81c-0.14-0.18-0.36-0.27-0.66-0.27
			c-0.29,0-0.51,0.09-0.65,0.27c-0.14,0.18-0.22,0.45-0.23,0.81c-0.01,0.1-0.01,0.23-0.01,0.4c0,0.17,0,0.3,0.01,0.4
			c0.01,0.36,0.09,0.63,0.23,0.81C219.36,67.81,219.58,67.9,219.87,67.9z"/>
	</g>
	<g>
		<path class="st37" d="M66.77,33.43c-1.1,0-1.97-0.27-2.59-0.8c-0.63-0.54-0.94-1.34-0.94-2.41v-4.75c0-0.09,0.03-0.16,0.08-0.22
			c0.05-0.06,0.12-0.09,0.21-0.09h1.6c0.09,0,0.16,0.03,0.22,0.09c0.06,0.06,0.09,0.13,0.09,0.22v4.73c0,0.48,0.11,0.84,0.34,1.08
			c0.23,0.24,0.56,0.36,0.98,0.36c0.43,0,0.76-0.12,0.98-0.37c0.23-0.24,0.34-0.6,0.34-1.08v-4.73c0-0.09,0.03-0.16,0.09-0.22
			c0.06-0.06,0.13-0.09,0.22-0.09h1.58c0.09,0,0.16,0.03,0.22,0.09c0.06,0.06,0.09,0.13,0.09,0.22v4.75c0,1.07-0.31,1.88-0.93,2.41
			C68.73,33.16,67.87,33.43,66.77,33.43L66.77,33.43z"/>
	</g>
	<g>
		<path class="st37" d="M71.97,33.31c-0.08,0-0.15-0.03-0.2-0.09c-0.06-0.06-0.09-0.13-0.09-0.2v-7.58c0-0.09,0.03-0.16,0.09-0.21
			c0.06-0.05,0.13-0.08,0.2-0.08h1.63c0.09,0,0.16,0.03,0.21,0.08c0.05,0.05,0.08,0.12,0.08,0.21v6.04h3.5
			c0.09,0,0.16,0.03,0.22,0.09c0.06,0.06,0.09,0.13,0.09,0.22v1.24c0,0.09-0.03,0.16-0.09,0.21c-0.06,0.05-0.13,0.08-0.22,0.08
			H71.97L71.97,33.31z"/>
	</g>
	<g>
		<path class="st37" d="M84.51,25.84c-0.58-0.46-1.37-0.69-2.38-0.69h-3.3c-0.09,0-0.16,0.03-0.21,0.09
			c-0.05,0.06-0.08,0.13-0.08,0.22v7.56c0,0.08,0.03,0.15,0.09,0.2c0.06,0.06,0.13,0.09,0.2,0.09h1.68c0.09,0,0.16-0.03,0.21-0.09
			c0.05-0.06,0.08-0.13,0.08-0.2V30.5h1.33c1.01,0,1.8-0.22,2.38-0.66c0.57-0.44,0.86-1.1,0.86-1.99
			C85.37,26.97,85.09,26.3,84.51,25.84z M82.83,28.59c-0.18,0.17-0.43,0.25-0.75,0.25h-1.31v-2h1.31c0.35,0,0.61,0.09,0.78,0.28
			c0.17,0.19,0.25,0.43,0.25,0.73C83.1,28.17,83.01,28.42,82.83,28.59z"/>
	</g>
	<g>
		<path class="st37" d="M89.75,33.43c-1.13,0-2.01-0.27-2.65-0.82c-0.64-0.55-0.98-1.33-1.01-2.35c-0.01-0.22-0.01-0.57-0.01-1.06
			c0-0.49,0-0.85,0.01-1.07c0.03-0.98,0.37-1.74,1.02-2.28c0.65-0.54,1.53-0.81,2.64-0.81c0.75,0,1.4,0.12,1.95,0.36
			c0.56,0.24,0.98,0.55,1.27,0.93c0.29,0.38,0.44,0.76,0.46,1.16c0,0.07-0.03,0.13-0.08,0.18c-0.05,0.05-0.11,0.08-0.18,0.08h-1.81
			c-0.08,0-0.14-0.01-0.18-0.04c-0.04-0.03-0.08-0.07-0.12-0.12c-0.09-0.22-0.24-0.4-0.45-0.56c-0.21-0.16-0.5-0.23-0.87-0.23
			c-0.9,0-1.37,0.47-1.4,1.4c-0.01,0.22-0.01,0.55-0.01,1c0,0.45,0,0.79,0.01,1.01c0.03,0.99,0.5,1.48,1.42,1.48
			c0.45,0,0.81-0.11,1.07-0.34c0.26-0.23,0.4-0.57,0.4-1.03v-0.21H90.2c-0.09,0-0.16-0.03-0.22-0.09c-0.06-0.06-0.09-0.13-0.09-0.22
			V28.9c0-0.09,0.03-0.16,0.09-0.22c0.06-0.06,0.13-0.09,0.22-0.09h2.96c0.09,0,0.16,0.03,0.22,0.09c0.06,0.06,0.09,0.13,0.09,0.22
			v1.35c0,0.66-0.15,1.23-0.46,1.71c-0.31,0.48-0.74,0.84-1.3,1.1C91.15,33.3,90.5,33.43,89.75,33.43L89.75,33.43z"/>
	</g>
	<g>
		<path class="st37" d="M98.02,33.43c-1.11,0-1.98-0.27-2.62-0.8c-0.63-0.54-0.97-1.32-1.01-2.35c-0.01-0.21-0.01-0.55-0.01-1.03
			c0-0.48,0-0.83,0.01-1.05c0.04-1.01,0.38-1.79,1.02-2.34c0.64-0.55,1.51-0.82,2.6-0.82c0.69,0,1.31,0.11,1.86,0.34
			c0.55,0.23,0.98,0.55,1.3,0.98c0.32,0.43,0.49,0.93,0.5,1.52c0,0.07-0.03,0.13-0.08,0.17c-0.05,0.05-0.11,0.07-0.18,0.07h-1.65
			c-0.11,0-0.19-0.02-0.24-0.06c-0.05-0.04-0.1-0.12-0.13-0.24c-0.11-0.38-0.27-0.65-0.5-0.8c-0.22-0.15-0.51-0.23-0.88-0.23
			c-0.88,0-1.33,0.49-1.36,1.47c-0.01,0.21-0.01,0.53-0.01,0.97s0,0.77,0.01,0.99c0.03,0.98,0.49,1.47,1.36,1.47
			c0.36,0,0.65-0.08,0.88-0.23c0.23-0.16,0.39-0.42,0.5-0.79c0.03-0.12,0.07-0.2,0.13-0.24c0.05-0.04,0.14-0.06,0.24-0.06h1.65
			c0.07,0,0.13,0.02,0.18,0.07c0.05,0.05,0.08,0.1,0.08,0.17c-0.02,0.58-0.18,1.09-0.5,1.52c-0.32,0.43-0.75,0.75-1.3,0.98
			C99.33,33.32,98.71,33.43,98.02,33.43L98.02,33.43z"/>
	</g>
	<g>
		<path class="st0" d="M43.38,17.4c7.74,0,11.6,5.8,11.6,12.57c0.1,3.09,0,4.84,0,8.7c-1.15,0-2.9,0-2.9,0s-2.55,5.51,1.93,8.7
			c0,0.19-16.53,5.45-20.31-10.64c0,0.19,8.55,5.41,13.54,3.87c0,0,1.94-7.22,0.5-11.59c-1.87-5.65-10.13-4.07-14.03-1.8
			c-9.7,5.64-12.78,14.39-16.45,21.12C17.27,48.35,19.68,17.4,43.38,17.4z"/>
	</g>
	<g>
		<path class="st0" d="M63.53,40h37.87c0.16,0,0.28,0.13,0.28,0.28v1.08c0,0.16-0.13,0.28-0.28,0.28H63.53
			c-0.16,0-0.28-0.13-0.28-0.28v-1.08C63.24,40.13,63.37,40,63.53,40z"/>
	</g>
</g>
<g id="Capa_3">
</g>
</svg>
