<?xml version="1.0" encoding="utf-8"?>
<!-- Generator: Adobe Illustrator 28.0.0, SVG Export Plug-In . SVG Version: 6.00 Build 0)  -->
<svg version="1.1" xmlns="http://www.w3.org/2000/svg" xmlns:xlink="http://www.w3.org/1999/xlink" x="0px" y="0px"
	 viewBox="0 0 398.11 81.24" style="enable-background:new 0 0 398.11 81.24;" xml:space="preserve">
<style type="text/css">
	.st0{fill:#0067A2;}
	.st1{display:none;}
	.st2{display:inline;fill:none;stroke:#009FE3;stroke-width:0.216;stroke-miterlimit:22.9256;}
	.st3{display:inline;fill-rule:evenodd;clip-rule:evenodd;fill:none;stroke:#009FE3;stroke-width:0.216;stroke-miterlimit:22.9256;}
	.st4{display:inline;fill-rule:evenodd;clip-rule:evenodd;fill:none;stroke:#B2B2B2;stroke-width:0.216;stroke-miterlimit:22.9256;}
	.st5{display:inline;}
	.st6{fill:#DADADA;}
	.st7{display:inline;fill:#DADADA;}
	.st8{display:inline;fill:none;stroke:#F59A00;stroke-width:0.216;stroke-miterlimit:22.9256;}
	.st9{display:inline;fill:none;stroke:#EF7D00;stroke-width:0.216;stroke-miterlimit:22.9256;}
	.st10{display:inline;fill:none;stroke:#E30613;stroke-width:0.216;stroke-miterlimit:22.9256;}
	.st11{fill-rule:evenodd;clip-rule:evenodd;fill:#DADADA;}
	
		.st12{display:inline;fill-rule:evenodd;clip-rule:evenodd;fill:none;stroke:#000000;stroke-width:0.216;stroke-miterlimit:22.9256;}
	.st13{fill:none;stroke:#C6C6C6;stroke-width:0.216;stroke-miterlimit:22.9256;}
	.st14{fill:none;stroke:#B2B2B2;stroke-width:0.216;stroke-miterlimit:22.9256;}
	.st15{display:inline;fill:none;stroke:#C6C6C6;stroke-width:0.216;stroke-miterlimit:22.9256;}
	.st16{display:inline;fill:none;stroke:#B2B2B2;stroke-width:0.216;stroke-miterlimit:22.9256;}
	.st17{display:inline;fill-rule:evenodd;clip-rule:evenodd;fill:#DADADA;}
	.st18{fill-rule:evenodd;clip-rule:evenodd;fill:#009640;}
	
		.st19{display:inline;fill-rule:evenodd;clip-rule:evenodd;fill:none;stroke:#000000;stroke-width:0.2173;stroke-miterlimit:22.9256;}
	
		.st20{display:inline;fill-rule:evenodd;clip-rule:evenodd;fill:none;stroke:#C6C6C6;stroke-width:0.216;stroke-miterlimit:22.9256;}
	
		.st21{display:inline;fill-rule:evenodd;clip-rule:evenodd;fill:none;stroke:#E30613;stroke-width:0.216;stroke-miterlimit:22.9256;}
	.st22{display:inline;fill-rule:evenodd;clip-rule:evenodd;fill:#009640;}
	.st23{display:inline;fill:none;stroke:#EF7D00;stroke-width:0.2175;stroke-miterlimit:22.9256;}
	.st24{fill:#B3B1B1;}
	.st25{fill:none;stroke:#B3B1B1;stroke-width:0.216;stroke-miterlimit:22.926;}
	.st26{display:inline;fill:#FFFFFF;}
	.st27{display:inline;fill:none;stroke:#020203;stroke-width:0.216;stroke-miterlimit:22.926;}
	.st28{display:inline;fill:none;stroke:#289BD3;stroke-width:0.216;stroke-miterlimit:22.926;}
	.st29{display:inline;fill:none;stroke:#F39A10;stroke-width:0.216;stroke-miterlimit:22.926;}
	.st30{display:inline;fill:#B3B1B1;}
	.st31{display:inline;fill:none;stroke:#B3B1B1;stroke-width:0.216;stroke-miterlimit:22.926;}
	.st32{display:inline;fill:none;}
	.st33{fill:none;stroke:#E30613;stroke-width:0.2175;stroke-miterlimit:22.9256;}
	.st34{fill:none;stroke:#C6C6C6;stroke-width:0.2175;stroke-miterlimit:22.9256;}
	.st35{fill:#0467A2;}
	.st36{fill:#F39A10;}
	.st37{fill:#F59A00;}
	.st38{fill-rule:evenodd;clip-rule:evenodd;fill:#0067A2;}
	.st39{fill-rule:evenodd;clip-rule:evenodd;fill:#F59A00;}
	.st40{fill:#FFFFFF;}
	.st41{fill-rule:evenodd;clip-rule:evenodd;fill:#FFFFFF;}
</style>
<g id="Capa_4">
</g>
<g id="Capa_1" class="st1">
	<g class="st5">
		<path class="st24" d="M235.6,40.75c0,3.66-0.88,6.52-2.63,8.6s-4.39,3.11-7.9,3.11h-15.58c-0.28,0-0.52-0.1-0.71-0.29
			c-0.19-0.19-0.29-0.43-0.29-0.72v-5.29c0-0.28,0.09-0.52,0.29-0.72c0.19-0.19,0.43-0.29,0.71-0.29h15.5
			c1.55,0,2.73-0.38,3.53-1.15c0.8-0.77,1.2-1.86,1.2-3.29c0-1.43-0.4-2.52-1.18-3.29c-0.79-0.77-1.97-1.15-3.55-1.15h-15.5
			c-0.28,0-0.52-0.1-0.71-0.29c-0.19-0.19-0.29-0.43-0.29-0.72v-5.33c0-0.29,0.09-0.52,0.29-0.7c0.19-0.18,0.43-0.27,0.71-0.27
			h15.58c3.51,0,6.15,1.04,7.9,3.13C234.72,34.18,235.6,37.06,235.6,40.75"/>
		<line class="st25" x1="208.51" y1="0.2" x2="208.51" y2="81.22"/>
		<line class="st25" x1="235.66" y1="0.2" x2="235.66" y2="81.22"/>
	</g>
	<rect x="0.38" class="st32" width="742.35" height="81.13"/>
	<rect x="0.38" class="st32" width="742.23" height="81.13"/>
	<rect x="0.38" class="st27" width="742.35" height="81.13"/>
	<line class="st28" x1="0.46" y1="58.43" x2="742.73" y2="58.43"/>
	<line class="st29" x1="0.43" y1="0.1" x2="405.13" y2="0.1"/>
	<path class="st30" d="M67.85,42.11c0-1.45,0.38-2.57,1.12-3.37c0.75-0.8,1.89-1.2,3.41-1.2h6.63c0.12,0,0.22,0.04,0.29,0.1
		c0.08,0.07,0.11,0.16,0.11,0.28v1.47c0,0.12-0.04,0.21-0.11,0.29c-0.08,0.07-0.17,0.11-0.29,0.11h-6.63c-0.86,0-1.5,0.2-1.94,0.6
		c-0.43,0.4-0.65,0.97-0.65,1.7c0,0.74,0.22,1.3,0.65,1.7c0.43,0.4,1.08,0.6,1.94,0.6h6.63c0.12,0,0.22,0.04,0.29,0.11
		c0.08,0.08,0.11,0.17,0.11,0.29v1.47c0,0.12-0.04,0.21-0.11,0.28c-0.08,0.07-0.17,0.1-0.29,0.1h-6.63c-1.52,0-2.66-0.4-3.41-1.19
		C68.23,44.66,67.85,43.55,67.85,42.11"/>
	<path class="st30" d="M57.72,11.41c-1.48,0-2.62-0.37-3.44-1.1c-0.82-0.74-1.22-1.85-1.22-3.34V0.46c0-0.12,0.04-0.21,0.11-0.29
		c0.07-0.07,0.17-0.11,0.28-0.11h1.5c0.12,0,0.22,0.04,0.29,0.11c0.08,0.08,0.12,0.17,0.12,0.29v6.51c0,0.84,0.2,1.48,0.61,1.9
		c0.41,0.43,0.99,0.64,1.74,0.64c0.75,0,1.33-0.21,1.74-0.64c0.41-0.43,0.61-1.06,0.61-1.9V0.46c0-0.12,0.04-0.21,0.11-0.29
		c0.08-0.07,0.17-0.11,0.29-0.11h1.5c0.12,0,0.21,0.04,0.28,0.11c0.07,0.08,0.11,0.17,0.11,0.29v6.51c0,1.49-0.4,2.61-1.21,3.34
		C60.33,11.04,59.19,11.41,57.72,11.41"/>
	<path class="st30" d="M57.69,11.41c1.48,0,2.62,0.37,3.44,1.1c0.82,0.74,1.22,1.85,1.22,3.34v6.51c0,0.12-0.03,0.21-0.11,0.29
		c-0.07,0.07-0.17,0.11-0.28,0.11h-1.5c-0.12,0-0.22-0.04-0.29-0.11c-0.08-0.08-0.11-0.17-0.11-0.29v-6.51c0-0.84-0.2-1.48-0.61-1.9
		c-0.41-0.43-0.99-0.64-1.74-0.64s-1.33,0.21-1.74,0.64c-0.41,0.43-0.61,1.06-0.61,1.9v6.51c0,0.12-0.04,0.21-0.11,0.29
		c-0.08,0.07-0.17,0.11-0.29,0.11h-1.5c-0.12,0-0.22-0.04-0.29-0.11c-0.07-0.08-0.11-0.17-0.11-0.29v-6.51
		c0-1.49,0.4-2.61,1.21-3.34C55.09,11.78,56.23,11.41,57.69,11.41"/>
	<line class="st31" x1="79.38" y1="0.06" x2="79.38" y2="81.08"/>
	<path class="st30" d="M12,42.11c0-1.45,0.37-2.57,1.12-3.37c0.75-0.8,1.89-1.2,3.41-1.2h6.63c0.12,0,0.22,0.04,0.29,0.1
		c0.08,0.07,0.11,0.16,0.11,0.28v1.47c0,0.12-0.04,0.21-0.11,0.29c-0.07,0.07-0.17,0.11-0.29,0.11h-6.63c-0.86,0-1.51,0.2-1.94,0.6
		c-0.44,0.4-0.65,0.97-0.65,1.7c0,0.74,0.22,1.3,0.65,1.7c0.43,0.4,1.08,0.6,1.94,0.6h6.63c0.12,0,0.22,0.04,0.29,0.11
		c0.08,0.08,0.11,0.17,0.11,0.29v1.47c0,0.12-0.04,0.21-0.11,0.28c-0.07,0.07-0.17,0.1-0.29,0.1h-6.63c-1.52,0-2.66-0.4-3.41-1.19
		C12.38,44.66,12,43.55,12,42.11"/>
	<path class="st30" d="M12.01,42.11c0-1.45-0.38-2.57-1.12-3.37c-0.75-0.8-1.89-1.2-3.41-1.2H0.84c-0.12,0-0.22,0.04-0.29,0.1
		c-0.08,0.07-0.11,0.16-0.11,0.28v1.47c0,0.12,0.04,0.21,0.11,0.29c0.08,0.07,0.17,0.11,0.29,0.11h6.63c0.86,0,1.51,0.2,1.94,0.6
		c0.43,0.4,0.65,0.97,0.65,1.7c0,0.74-0.22,1.3-0.65,1.7c-0.43,0.4-1.08,0.6-1.94,0.6H0.84c-0.12,0-0.22,0.04-0.29,0.11
		c-0.08,0.08-0.11,0.17-0.11,0.29v1.47c0,0.12,0.04,0.21,0.11,0.28c0.08,0.07,0.17,0.1,0.29,0.1h6.63c1.52,0,2.66-0.4,3.41-1.19
		C11.63,44.66,12.01,43.55,12.01,42.11"/>
	<path class="st30" d="M57.72,69.73c-1.48,0-2.62,0.37-3.44,1.1c-0.82,0.74-1.22,1.85-1.22,3.34v6.51c0,0.12,0.04,0.21,0.11,0.29
		c0.07,0.07,0.17,0.11,0.28,0.11h1.5c0.12,0,0.22-0.04,0.29-0.11c0.08-0.08,0.12-0.17,0.12-0.29v-6.51c0-0.84,0.2-1.48,0.61-1.9
		c0.41-0.43,0.99-0.64,1.74-0.64c0.75,0,1.33,0.21,1.74,0.64c0.41,0.43,0.61,1.06,0.61,1.9v6.51c0,0.12,0.04,0.21,0.11,0.29
		c0.08,0.07,0.17,0.11,0.29,0.11h1.5c0.12,0,0.21-0.04,0.28-0.11c0.07-0.08,0.11-0.17,0.11-0.29v-6.51c0-1.49-0.4-2.61-1.21-3.34
		C60.33,70.1,59.19,69.73,57.72,69.73"/>
	<path class="st30" d="M57.69,69.73c1.48,0,2.62-0.37,3.44-1.1c0.82-0.74,1.22-1.85,1.22-3.34v-6.51c0-0.12-0.03-0.21-0.11-0.29
		c-0.07-0.07-0.17-0.11-0.28-0.11h-1.5c-0.12,0-0.22,0.04-0.29,0.11c-0.08,0.08-0.11,0.17-0.11,0.29v6.51c0,0.84-0.2,1.48-0.61,1.9
		c-0.41,0.43-0.99,0.64-1.74,0.64s-1.33-0.21-1.74-0.64c-0.41-0.43-0.61-1.06-0.61-1.9v-6.51c0-0.12-0.04-0.21-0.11-0.29
		c-0.08-0.07-0.17-0.11-0.29-0.11h-1.5c-0.12,0-0.22,0.04-0.29,0.11c-0.07,0.08-0.11,0.17-0.11,0.29v6.51c0,1.49,0.4,2.61,1.21,3.34
		C55.09,69.36,56.23,69.73,57.69,69.73"/>
	<line class="st28" x1="0.46" y1="22.8" x2="742.73" y2="22.8"/>
	<line class="st28" x1="0.46" y1="42.8" x2="742.73" y2="42.8"/>
	<line class="st28" x1="0.46" y1="47.29" x2="742.73" y2="47.29"/>
	<line class="st29" x1="0.46" y1="31.73" x2="742.73" y2="31.73"/>
	<g class="st5">
		<line class="st25" x1="375.08" y1="-0.11" x2="375.08" y2="80.9"/>
		<path class="st25" d="M386.7-0.05v81.02 M398.27-0.05v81.02"/>
		<path class="st24" d="M386.69,42.83c0-1.45,0.38-2.57,1.12-3.37c0.75-0.8,1.88-1.2,3.4-1.2h6.63c0.12,0,0.22,0.04,0.29,0.1
			c0.08,0.07,0.11,0.16,0.11,0.28v1.47c0,0.12-0.04,0.21-0.11,0.29c-0.08,0.07-0.17,0.11-0.29,0.11h-6.63c-0.86,0-1.51,0.2-1.94,0.6
			c-0.44,0.4-0.65,0.97-0.65,1.7c0,0.74,0.22,1.3,0.65,1.7c0.43,0.4,1.08,0.6,1.94,0.6h6.63c0.12,0,0.22,0.04,0.29,0.11
			c0.08,0.08,0.11,0.17,0.11,0.29v1.47c0,0.12-0.04,0.21-0.11,0.28c-0.08,0.07-0.17,0.1-0.29,0.1h-6.63c-1.52,0-2.65-0.4-3.4-1.19
			C387.07,45.38,386.69,44.27,386.69,42.83"/>
		<path class="st24" d="M386.65,42.81c0-1.45-0.38-2.57-1.12-3.37c-0.75-0.8-1.88-1.2-3.4-1.2h-6.63c-0.12,0-0.22,0.04-0.29,0.1
			c-0.08,0.07-0.11,0.16-0.11,0.28v1.47c0,0.12,0.04,0.21,0.11,0.29c0.08,0.07,0.17,0.11,0.29,0.11h6.63c0.86,0,1.51,0.2,1.94,0.6
			c0.44,0.4,0.65,0.97,0.65,1.7c0,0.74-0.22,1.3-0.65,1.7c-0.43,0.4-1.08,0.6-1.94,0.6h-6.63c-0.12,0-0.22,0.04-0.29,0.11
			c-0.08,0.08-0.11,0.17-0.11,0.29v1.47c0,0.12,0.04,0.21,0.11,0.28c0.08,0.07,0.17,0.1,0.29,0.1h6.63c1.52,0,2.65-0.4,3.4-1.19
			C386.28,45.37,386.65,44.25,386.65,42.81"/>
	</g>
	<g class="st5">
		<path class="st24" d="M265.78,40.77c0,3.66-0.88,6.52-2.63,8.6s-4.39,3.11-7.9,3.11h-15.58c-0.28,0-0.52-0.1-0.71-0.29
			c-0.19-0.19-0.29-0.43-0.29-0.72v-5.29c0-0.28,0.09-0.52,0.29-0.72c0.19-0.19,0.43-0.29,0.71-0.29h15.5
			c1.55,0,2.73-0.38,3.53-1.15c0.8-0.77,1.2-1.86,1.2-3.29c0-1.43-0.4-2.52-1.18-3.29c-0.79-0.77-1.97-1.15-3.55-1.15h-15.5
			c-0.28,0-0.52-0.1-0.71-0.29c-0.19-0.19-0.29-0.43-0.29-0.72v-5.33c0-0.29,0.09-0.52,0.29-0.7c0.19-0.18,0.43-0.27,0.71-0.27
			h15.58c3.51,0,6.15,1.04,7.9,3.13C264.9,34.21,265.78,37.09,265.78,40.77"/>
		<line class="st25" x1="238.68" y1="0.23" x2="238.68" y2="81.24"/>
		<line class="st25" x1="265.83" y1="0.23" x2="265.83" y2="81.24"/>
	</g>
	<g class="st5">
		<path class="st24" d="M234.85,41.11c0,3.66-0.88,6.52-2.63,8.6s-4.39,3.11-7.9,3.11h-15.58c-0.28,0-0.52-0.1-0.71-0.29
			c-0.19-0.19-0.29-0.43-0.29-0.72v-5.29c0-0.28,0.09-0.52,0.29-0.72c0.19-0.19,0.43-0.29,0.71-0.29h15.5
			c1.55,0,2.73-0.38,3.53-1.15c0.8-0.77,1.2-1.86,1.2-3.29c0-1.43-0.4-2.52-1.18-3.29c-0.79-0.77-1.97-1.15-3.55-1.15h-15.5
			c-0.28,0-0.52-0.1-0.71-0.29c-0.19-0.19-0.29-0.43-0.29-0.72v-5.33c0-0.29,0.09-0.52,0.29-0.7c0.19-0.18,0.43-0.27,0.71-0.27
			h15.58c3.51,0,6.15,1.04,7.9,3.13C233.97,34.54,234.85,37.42,234.85,41.11"/>
		<line class="st25" x1="207.76" y1="0.56" x2="207.76" y2="81.58"/>
		<line class="st25" x1="234.91" y1="0.56" x2="234.91" y2="81.58"/>
	</g>
	<line class="st29" x1="18.34" y1="0.1" x2="423.04" y2="0.1"/>
	<line class="st9" x1="129.5" y1="0.01" x2="283.02" y2="-0.06"/>
	<line class="st9" x1="17.86" y1="0.07" x2="91.96" y2="0.34"/>
</g>
<g id="Capa_2">
	<g>
		<path class="st0" d="M274.5,58.03c-0.27,0-0.5-0.09-0.67-0.26c-0.17-0.17-0.26-0.4-0.26-0.67V37.74h-6.65
			c-0.27,0-0.5-0.09-0.67-0.28c-0.17-0.19-0.26-0.41-0.26-0.65v-4c0-0.27,0.09-0.5,0.26-0.67c0.17-0.17,0.4-0.26,0.67-0.26h20.11
			c0.27,0,0.5,0.09,0.67,0.26c0.17,0.17,0.26,0.4,0.26,0.67v4c0,0.25-0.09,0.47-0.26,0.65c-0.17,0.19-0.4,0.28-0.67,0.28h-6.65V57.1
			c0,0.27-0.09,0.5-0.26,0.67c-0.17,0.17-0.4,0.26-0.67,0.26H274.5z"/>
		<path class="st0" d="M292.29,58.03c-0.27,0-0.5-0.09-0.67-0.26c-0.17-0.17-0.26-0.4-0.26-0.67V32.81c0-0.27,0.09-0.5,0.26-0.67
			c0.17-0.17,0.4-0.26,0.67-0.26h5.01c0.27,0,0.5,0.09,0.67,0.26c0.17,0.17,0.26,0.4,0.26,0.67V57.1c0,0.27-0.09,0.5-0.26,0.67
			c-0.18,0.17-0.4,0.26-0.67,0.26H292.29z"/>
		<path class="st0" d="M304.39,58.03c-0.27,0-0.5-0.09-0.67-0.26c-0.17-0.17-0.26-0.4-0.26-0.67V32.81c0-0.27,0.09-0.5,0.26-0.67
			c0.17-0.17,0.4-0.26,0.67-0.26h9.72c2.44,0,4.52,0.39,6.24,1.18c1.72,0.79,3.04,1.93,3.96,3.44c0.92,1.51,1.42,3.37,1.5,5.59
			c0.02,1.1,0.04,2.06,0.04,2.88s-0.01,1.77-0.04,2.84c-0.1,2.32-0.59,4.24-1.48,5.75c-0.88,1.52-2.17,2.65-3.85,3.38
			c-1.68,0.74-3.74,1.1-6.18,1.1H304.39z M310.15,52.65h3.96c1.07,0,1.96-0.17,2.67-0.5s1.25-0.87,1.61-1.59
			c0.36-0.72,0.55-1.67,0.58-2.84c0.05-0.72,0.08-1.37,0.09-1.94s0.01-1.15,0-1.72s-0.04-1.21-0.09-1.91
			c-0.05-1.69-0.49-2.93-1.33-3.72c-0.83-0.78-2.07-1.18-3.72-1.18h-3.77V52.65z"/>
		<path class="st0" d="M331.15,58.03c-0.27,0-0.5-0.09-0.67-0.26c-0.17-0.17-0.26-0.4-0.26-0.67V32.81c0-0.27,0.09-0.5,0.26-0.67
			c0.17-0.17,0.4-0.26,0.67-0.26h17.45c0.27,0,0.5,0.09,0.67,0.26c0.17,0.17,0.26,0.4,0.26,0.67v3.51c0,0.27-0.09,0.5-0.26,0.67
			c-0.17,0.17-0.4,0.26-0.67,0.26h-11.92v5.04h11.1c0.27,0,0.5,0.09,0.67,0.28s0.26,0.42,0.26,0.69v3.25c0,0.25-0.09,0.47-0.26,0.65
			c-0.17,0.19-0.4,0.28-0.67,0.28h-11.1v5.19h12.22c0.27,0,0.5,0.09,0.67,0.26c0.17,0.17,0.26,0.4,0.26,0.67v3.51
			c0,0.27-0.09,0.5-0.26,0.67c-0.17,0.17-0.4,0.26-0.67,0.26H331.15z"/>
		<path class="st0" d="M363.85,58.41c-2.49,0-4.56-0.36-6.2-1.07s-2.89-1.64-3.74-2.78c-0.85-1.15-1.29-2.37-1.34-3.66
			c0-0.2,0.08-0.38,0.24-0.54c0.16-0.16,0.36-0.24,0.58-0.24h4.71c0.35,0,0.62,0.06,0.8,0.19c0.19,0.12,0.35,0.29,0.5,0.49
			c0.2,0.37,0.48,0.74,0.84,1.08c0.36,0.35,0.84,0.63,1.42,0.84c0.59,0.21,1.31,0.32,2.19,0.32c1.44,0,2.54-0.22,3.27-0.67
			c0.73-0.45,1.1-1.06,1.1-1.83c0-0.55-0.2-1-0.6-1.36s-1.04-0.69-1.92-0.97c-0.88-0.29-2.06-0.58-3.53-0.88
			c-1.89-0.4-3.51-0.92-4.84-1.55c-1.33-0.64-2.35-1.47-3.04-2.5c-0.7-1.03-1.05-2.32-1.05-3.87c0-1.52,0.43-2.88,1.29-4.07
			c0.86-1.2,2.06-2.13,3.61-2.8c1.54-0.67,3.38-1.01,5.49-1.01c1.72,0,3.23,0.22,4.54,0.67c1.31,0.45,2.41,1.05,3.31,1.79
			c0.9,0.75,1.57,1.54,2.04,2.37c0.46,0.83,0.7,1.65,0.73,2.45c0,0.2-0.08,0.38-0.22,0.54c-0.15,0.16-0.34,0.24-0.56,0.24h-4.93
			c-0.27,0-0.51-0.05-0.71-0.15s-0.37-0.26-0.52-0.49c-0.15-0.55-0.54-1.03-1.18-1.44c-0.63-0.41-1.46-0.62-2.48-0.62
			c-1.1,0-1.95,0.19-2.56,0.58c-0.61,0.39-0.91,0.98-0.91,1.77c0,0.5,0.17,0.93,0.5,1.31c0.34,0.37,0.9,0.7,1.68,0.97
			c0.79,0.27,1.86,0.56,3.23,0.86c2.27,0.42,4.1,0.95,5.49,1.59c1.4,0.63,2.42,1.46,3.06,2.47c0.65,1.01,0.97,2.27,0.97,3.79
			c0,1.7-0.48,3.16-1.44,4.39c-0.96,1.23-2.29,2.17-3.98,2.82C367.98,58.08,366.04,58.41,363.85,58.41z"/>
	</g>
	<g>
		<path class="st35" d="M54.2,22.76c9.07,0,13.61,6.68,13.61,14.47c0.11,3.55,0,5.58,0,10.02h-3.4c0,0-2.99,6.35,2.27,10.02
			c0,0.22-19.4,6.28-23.82-12.24c0,0.22,10.03,6.23,15.88,4.45c0,0,2.28-8.31,0.59-13.34c-2.19-6.51-11.88-4.68-16.46-2.07
			c-11.38,6.49-14.99,16.56-19.29,24.31C23.57,58.38,26.4,22.76,54.2,22.76"/>
	</g>
	<g>
		<path class="st36" d="M195.51,58.75c-3.71,0-6.62-0.88-8.73-2.63s-3.24-4.33-3.37-7.71c-0.03-0.69-0.04-1.81-0.04-3.36
			c0-1.58,0.01-2.72,0.04-3.43c0.13-3.31,1.26-5.86,3.4-7.65c2.14-1.79,5.04-2.69,8.69-2.69c2.31,0,4.38,0.37,6.21,1.11
			c1.83,0.74,3.27,1.81,4.34,3.21c1.06,1.4,1.62,3.05,1.67,4.96c0,0.23-0.09,0.42-0.25,0.57c-0.17,0.15-0.37,0.23-0.6,0.23h-5.52
			c-0.36,0-0.63-0.07-0.8-0.21c-0.17-0.14-0.32-0.4-0.45-0.78c-0.36-1.25-0.92-2.12-1.65-2.62c-0.74-0.5-1.72-0.74-2.94-0.74
			c-2.93,0-4.45,1.6-4.55,4.81c-0.03,0.69-0.04,1.74-0.04,3.17c0,1.42,0.01,2.51,0.04,3.24c0.1,3.21,1.62,4.81,4.55,4.81
			c1.19,0,2.17-0.26,2.94-0.76c0.77-0.51,1.32-1.37,1.65-2.6c0.1-0.38,0.25-0.64,0.43-0.78c0.18-0.14,0.45-0.21,0.82-0.21h5.52
			c0.23,0,0.43,0.08,0.6,0.23c0.17,0.15,0.25,0.34,0.25,0.57c-0.05,1.91-0.61,3.56-1.67,4.96c-1.06,1.4-2.51,2.47-4.34,3.21
			C199.89,58.38,197.82,58.75,195.51,58.75 M167.91,58.75c-3.76,0-6.7-0.9-8.83-2.69c-2.13-1.79-3.26-4.36-3.38-7.69
			c-0.03-0.71-0.04-1.87-0.04-3.47c0-1.6,0.01-2.77,0.04-3.51c0.1-3.21,1.24-5.69,3.4-7.46c2.17-1.77,5.1-2.65,8.81-2.65
			c2.49,0,4.66,0.39,6.52,1.18c1.85,0.79,3.27,1.8,4.24,3.03c0.97,1.23,1.49,2.5,1.54,3.8c0,0.23-0.08,0.43-0.25,0.59
			c-0.17,0.17-0.37,0.25-0.6,0.25h-6.03c-0.26,0-0.46-0.04-0.6-0.13c-0.14-0.09-0.28-0.22-0.41-0.4c-0.31-0.71-0.81-1.32-1.5-1.83
			c-0.69-0.51-1.65-0.76-2.9-0.76c-3.01,0-4.57,1.53-4.67,4.58c-0.03,0.71-0.04,1.81-0.04,3.28c0,1.48,0.01,2.58,0.04,3.32
			c0.1,3.23,1.69,4.85,4.75,4.85c1.5,0,2.7-0.37,3.58-1.11c0.88-0.74,1.32-1.86,1.32-3.36v-0.69h-3.46c-0.28,0-0.52-0.1-0.72-0.29
			c-0.2-0.19-0.29-0.43-0.29-0.71V43.9c0-0.28,0.1-0.52,0.29-0.71c0.19-0.19,0.43-0.29,0.72-0.29h9.88c0.28,0,0.53,0.1,0.72,0.29
			c0.19,0.19,0.29,0.43,0.29,0.71v4.43c0,2.16-0.51,4.03-1.54,5.59c-1.02,1.57-2.47,2.76-4.34,3.59
			C172.58,58.33,170.4,58.75,167.91,58.75 M142.29,43.71c1.06,0,1.9-0.27,2.51-0.82c0.61-0.55,0.91-1.35,0.91-2.42
			c0-0.99-0.28-1.79-0.84-2.4c-0.56-0.61-1.42-0.92-2.59-0.92h-4.36v6.57H142.29z M131.48,58.37c-0.26,0-0.49-0.1-0.68-0.29
			c-0.2-0.19-0.29-0.41-0.29-0.67V32.64c0-0.28,0.09-0.52,0.27-0.71c0.18-0.19,0.41-0.29,0.7-0.29h11.01c3.37,0,6.02,0.75,7.94,2.25
			c1.92,1.5,2.88,3.7,2.88,6.61s-0.96,5.07-2.88,6.51c-1.92,1.44-4.57,2.16-7.94,2.16h-4.44v8.25c0,0.25-0.09,0.48-0.27,0.67
			c-0.18,0.19-0.42,0.29-0.7,0.29H131.48z M108.54,58.37c-0.26,0-0.49-0.1-0.68-0.29c-0.19-0.19-0.29-0.41-0.29-0.67V32.6
			c0-0.28,0.1-0.51,0.29-0.69c0.2-0.18,0.42-0.27,0.68-0.27h5.45c0.29,0,0.52,0.09,0.7,0.27c0.18,0.18,0.27,0.41,0.27,0.69v19.77
			h11.67c0.29,0,0.53,0.1,0.72,0.29c0.19,0.19,0.29,0.43,0.29,0.71v4.05c0,0.28-0.1,0.51-0.29,0.69c-0.19,0.18-0.43,0.27-0.72,0.27
			H108.54z M91.21,58.75c-3.68,0-6.57-0.88-8.66-2.63c-2.09-1.76-3.13-4.39-3.13-7.9V32.64c0-0.28,0.09-0.52,0.27-0.71
			c0.18-0.19,0.41-0.29,0.7-0.29h5.33c0.28,0,0.52,0.09,0.72,0.29c0.19,0.19,0.29,0.43,0.29,0.71v15.5c0,1.58,0.38,2.76,1.15,3.55
			c0.76,0.79,1.86,1.18,3.29,1.18c1.43,0,2.52-0.4,3.29-1.2c0.76-0.8,1.15-1.98,1.15-3.53v-15.5c0-0.28,0.1-0.52,0.29-0.71
			c0.2-0.19,0.43-0.29,0.72-0.29h5.29c0.29,0,0.53,0.09,0.72,0.29c0.19,0.19,0.29,0.43,0.29,0.71v15.58c0,3.51-1.04,6.15-3.11,7.9
			S94.87,58.75,91.21,58.75"/>
	</g>
	<g>
		<path class="st35" d="M235.25,58.38h3.13c0.16,0,0.28-0.13,0.28-0.28V31.97c0-0.16-0.13-0.28-0.28-0.28h-3.13
			c-0.16,0-0.28,0.13-0.28,0.28v26.13C234.96,58.25,235.09,58.38,235.25,58.38z"/>
	</g>
</g>
<g id="Capa_3">
</g>
</svg>
